G04*
G04 #@! TF.GenerationSoftware,Altium Limited,CircuitMaker,2.2.1 (2.2.1.6)*
G04*
G04 Layer_Physical_Order=2*
G04 Layer_Color=16711680*
%FSLAX25Y25*%
%MOIN*%
G70*
G04*
G04 #@! TF.SameCoordinates,A4E7AD6A-1E60-4C3D-990C-C51B8D7E7BCC*
G04*
G04*
G04 #@! TF.FilePolarity,Positive*
G04*
G01*
G75*
%ADD13C,0.09055*%
%ADD14C,0.03000*%
G36*
X-12500Y-12500D02*
X-29882D01*
X-30000Y-12443D01*
Y-12500D01*
X-37497Y-8837D01*
X-40500Y-7393D01*
Y-7370D01*
X-51510Y-1990D01*
X-51725Y-1802D01*
X-52075Y-1350D01*
X-52330Y-838D01*
X-52480Y-285D01*
X-52500Y-0D01*
X-52482Y281D01*
X-52338Y825D01*
X-52090Y1330D01*
X-51748Y1777D01*
X-51537Y1963D01*
X-40500Y7363D01*
Y7384D01*
X-37501Y8830D01*
X-30000Y12500D01*
Y12446D01*
X-29888Y12500D01*
X-12500D01*
Y-12500D01*
D02*
G37*
G36*
X30000Y12450D02*
Y12463D01*
X35491Y9790D01*
X40500Y7363D01*
Y7351D01*
X51509Y1991D01*
X51509Y1990D01*
X51725Y1803D01*
X52075Y1350D01*
X52330Y838D01*
X52480Y285D01*
X52500Y-0D01*
X52482Y-281D01*
X52338Y-825D01*
X52090Y-1330D01*
X51748Y-1777D01*
X51537Y-1963D01*
X40500Y-7345D01*
Y-7357D01*
X35273Y-9894D01*
X30000Y-12465D01*
Y-12453D01*
X29902Y-12500D01*
X12500D01*
Y12500D01*
X29896D01*
X30000Y12450D01*
D02*
G37*
D13*
X-19150Y6299D02*
D03*
Y-6299D02*
D03*
X19150D02*
D03*
Y6299D02*
D03*
D14*
X-48500Y-0D02*
D03*
X-32500Y-8000D02*
D03*
Y-0D02*
D03*
Y8000D02*
D03*
X-40500Y4000D02*
D03*
Y-4000D02*
D03*
X32500Y-7939D02*
D03*
Y8061D02*
D03*
X40500Y4000D02*
D03*
Y-4000D02*
D03*
X48500Y0D02*
D03*
X32500Y61D02*
D03*
M02*
