G04*
G04 #@! TF.GenerationSoftware,Altium Limited,CircuitMaker,2.2.1 (2.2.1.6)*
G04*
G04 Layer_Color=15132400*
%FSLAX25Y25*%
%MOIN*%
G70*
G04*
G04 #@! TF.SameCoordinates,A4E7AD6A-1E60-4C3D-990C-C51B8D7E7BCC*
G04*
G04*
G04 #@! TF.FilePolarity,Positive*
G04*
G01*
G75*
%ADD10C,0.00500*%
G36*
X-2622Y-5500D02*
X-3032D01*
X-4000Y-2951D01*
X-3541D01*
X-2992Y-4482D01*
Y-4487D01*
X-2987Y-4492D01*
X-2982Y-4507D01*
X-2977Y-4527D01*
X-2958Y-4576D01*
X-2938Y-4640D01*
X-2913Y-4715D01*
X-2884Y-4803D01*
X-2859Y-4892D01*
X-2829Y-4991D01*
X-2824Y-4981D01*
X-2819Y-4957D01*
X-2805Y-4912D01*
X-2785Y-4858D01*
X-2765Y-4784D01*
X-2735Y-4705D01*
X-2701Y-4611D01*
X-2666Y-4507D01*
X-2098Y-2951D01*
X-1654D01*
X-2622Y-5500D01*
D02*
G37*
G36*
X3949Y-1973D02*
X3993Y-1978D01*
X4042Y-1983D01*
X4097Y-1993D01*
X4156Y-2002D01*
X4284Y-2037D01*
X4354Y-2057D01*
X4418Y-2087D01*
X4487Y-2121D01*
X4551Y-2156D01*
X4610Y-2200D01*
X4670Y-2249D01*
X4675Y-2254D01*
X4685Y-2264D01*
X4699Y-2279D01*
X4714Y-2299D01*
X4739Y-2328D01*
X4764Y-2358D01*
X4788Y-2398D01*
X4818Y-2442D01*
X4872Y-2541D01*
X4922Y-2660D01*
X4936Y-2729D01*
X4951Y-2798D01*
X4961Y-2872D01*
X4966Y-2946D01*
Y-2956D01*
Y-2981D01*
X4961Y-3025D01*
X4956Y-3079D01*
X4946Y-3139D01*
X4927Y-3213D01*
X4907Y-3287D01*
X4877Y-3361D01*
X4872Y-3371D01*
X4862Y-3396D01*
X4838Y-3435D01*
X4808Y-3489D01*
X4769Y-3554D01*
X4719Y-3628D01*
X4655Y-3707D01*
X4586Y-3791D01*
Y-3796D01*
X4576Y-3801D01*
X4566Y-3816D01*
X4546Y-3830D01*
X4526Y-3855D01*
X4497Y-3885D01*
X4467Y-3914D01*
X4428Y-3954D01*
X4388Y-3993D01*
X4339Y-4043D01*
X4284Y-4092D01*
X4225Y-4146D01*
X4156Y-4206D01*
X4087Y-4270D01*
X4008Y-4339D01*
X3924Y-4408D01*
X3919Y-4413D01*
X3909Y-4423D01*
X3889Y-4438D01*
X3860Y-4463D01*
X3830Y-4487D01*
X3795Y-4517D01*
X3716Y-4586D01*
X3627Y-4665D01*
X3548Y-4739D01*
X3474Y-4803D01*
X3445Y-4833D01*
X3420Y-4858D01*
X3415Y-4863D01*
X3400Y-4878D01*
X3380Y-4897D01*
X3356Y-4927D01*
X3331Y-4961D01*
X3301Y-5001D01*
X3242Y-5085D01*
X4971D01*
Y-5500D01*
X2639D01*
Y-5495D01*
Y-5475D01*
Y-5446D01*
X2644Y-5406D01*
X2649Y-5362D01*
X2659Y-5312D01*
X2669Y-5258D01*
X2689Y-5204D01*
Y-5199D01*
X2694Y-5194D01*
X2704Y-5164D01*
X2728Y-5115D01*
X2758Y-5055D01*
X2797Y-4981D01*
X2847Y-4902D01*
X2906Y-4818D01*
X2975Y-4734D01*
Y-4729D01*
X2985Y-4724D01*
X2995Y-4710D01*
X3010Y-4695D01*
X3059Y-4645D01*
X3119Y-4581D01*
X3198Y-4502D01*
X3296Y-4413D01*
X3410Y-4310D01*
X3539Y-4201D01*
X3543Y-4196D01*
X3563Y-4181D01*
X3593Y-4156D01*
X3632Y-4122D01*
X3677Y-4082D01*
X3731Y-4038D01*
X3790Y-3988D01*
X3850Y-3934D01*
X3978Y-3816D01*
X4107Y-3692D01*
X4166Y-3628D01*
X4225Y-3568D01*
X4275Y-3514D01*
X4314Y-3460D01*
X4319Y-3455D01*
X4324Y-3445D01*
X4334Y-3430D01*
X4349Y-3410D01*
X4378Y-3361D01*
X4418Y-3292D01*
X4457Y-3208D01*
X4487Y-3124D01*
X4512Y-3030D01*
X4521Y-2936D01*
Y-2931D01*
Y-2926D01*
Y-2911D01*
X4517Y-2892D01*
X4512Y-2847D01*
X4497Y-2783D01*
X4477Y-2719D01*
X4442Y-2645D01*
X4398Y-2571D01*
X4334Y-2501D01*
X4324Y-2492D01*
X4299Y-2472D01*
X4260Y-2447D01*
X4205Y-2413D01*
X4136Y-2378D01*
X4057Y-2353D01*
X3958Y-2334D01*
X3855Y-2324D01*
X3825D01*
X3805Y-2328D01*
X3746Y-2334D01*
X3677Y-2348D01*
X3598Y-2368D01*
X3514Y-2403D01*
X3430Y-2447D01*
X3356Y-2511D01*
X3346Y-2521D01*
X3326Y-2546D01*
X3296Y-2590D01*
X3262Y-2645D01*
X3227Y-2719D01*
X3198Y-2808D01*
X3178Y-2911D01*
X3168Y-3030D01*
X2723Y-2985D01*
Y-2981D01*
X2728Y-2966D01*
Y-2936D01*
X2733Y-2906D01*
X2743Y-2862D01*
X2753Y-2818D01*
X2768Y-2763D01*
X2783Y-2704D01*
X2827Y-2585D01*
X2886Y-2457D01*
X2921Y-2398D01*
X2965Y-2338D01*
X3010Y-2279D01*
X3064Y-2230D01*
X3069Y-2225D01*
X3079Y-2220D01*
X3094Y-2205D01*
X3119Y-2190D01*
X3148Y-2170D01*
X3183Y-2146D01*
X3227Y-2121D01*
X3277Y-2096D01*
X3331Y-2077D01*
X3390Y-2052D01*
X3455Y-2027D01*
X3529Y-2007D01*
X3603Y-1993D01*
X3687Y-1978D01*
X3771Y-1973D01*
X3864Y-1968D01*
X3914D01*
X3949Y-1973D01*
D02*
G37*
G36*
X2071Y-5500D02*
X1577D01*
Y-5006D01*
X2071D01*
Y-5500D01*
D02*
G37*
G36*
X229D02*
X-201D01*
Y-2748D01*
X-206Y-2753D01*
X-231Y-2773D01*
X-265Y-2803D01*
X-310Y-2842D01*
X-374Y-2887D01*
X-443Y-2936D01*
X-522Y-2991D01*
X-616Y-3050D01*
X-621D01*
X-626Y-3055D01*
X-641Y-3065D01*
X-661Y-3074D01*
X-705Y-3099D01*
X-764Y-3134D01*
X-838Y-3168D01*
X-912Y-3208D01*
X-991Y-3242D01*
X-1066Y-3272D01*
Y-2852D01*
X-1061D01*
X-1051Y-2842D01*
X-1031Y-2837D01*
X-1006Y-2822D01*
X-972Y-2808D01*
X-937Y-2788D01*
X-853Y-2739D01*
X-754Y-2679D01*
X-646Y-2610D01*
X-537Y-2531D01*
X-433Y-2442D01*
X-428Y-2437D01*
X-423Y-2432D01*
X-409Y-2417D01*
X-389Y-2403D01*
X-339Y-2353D01*
X-285Y-2294D01*
X-221Y-2220D01*
X-157Y-2141D01*
X-102Y-2057D01*
X-53Y-1968D01*
X229D01*
Y-5500D01*
D02*
G37*
G36*
X10236Y2012D02*
X10281D01*
X10384Y2007D01*
X10503Y1993D01*
X10621Y1978D01*
X10735Y1953D01*
X10784Y1938D01*
X10834Y1918D01*
X10839D01*
X10844Y1914D01*
X10873Y1899D01*
X10918Y1874D01*
X10977Y1839D01*
X11041Y1795D01*
X11105Y1736D01*
X11170Y1667D01*
X11229Y1583D01*
Y1578D01*
X11234Y1573D01*
X11244Y1558D01*
X11254Y1543D01*
X11278Y1494D01*
X11303Y1429D01*
X11333Y1350D01*
X11352Y1261D01*
X11372Y1163D01*
X11377Y1054D01*
Y1049D01*
Y1039D01*
Y1019D01*
X11372Y995D01*
Y960D01*
X11362Y926D01*
X11348Y837D01*
X11318Y738D01*
X11273Y634D01*
X11244Y580D01*
X11214Y525D01*
X11175Y476D01*
X11130Y427D01*
X11125Y422D01*
X11120Y417D01*
X11105Y402D01*
X11086Y387D01*
X11061Y367D01*
X11026Y343D01*
X10987Y318D01*
X10947Y288D01*
X10898Y264D01*
X10839Y234D01*
X10779Y209D01*
X10710Y180D01*
X10636Y155D01*
X10557Y135D01*
X10473Y115D01*
X10379Y101D01*
X10389Y96D01*
X10409Y86D01*
X10443Y66D01*
X10483Y46D01*
X10577Y-13D01*
X10621Y-43D01*
X10661Y-77D01*
X10671Y-87D01*
X10695Y-112D01*
X10735Y-151D01*
X10789Y-206D01*
X10849Y-275D01*
X10913Y-354D01*
X10982Y-448D01*
X11051Y-547D01*
X11659Y-1500D01*
X11076D01*
X10611Y-769D01*
Y-764D01*
X10602Y-754D01*
X10592Y-739D01*
X10577Y-715D01*
X10537Y-660D01*
X10493Y-591D01*
X10439Y-512D01*
X10379Y-433D01*
X10325Y-354D01*
X10271Y-285D01*
X10266Y-275D01*
X10251Y-255D01*
X10226Y-230D01*
X10192Y-191D01*
X10157Y-156D01*
X10117Y-117D01*
X10073Y-82D01*
X10034Y-53D01*
X10029Y-48D01*
X10014Y-43D01*
X9994Y-28D01*
X9969Y-13D01*
X9900Y17D01*
X9826Y41D01*
X9821D01*
X9811Y46D01*
X9791D01*
X9762Y51D01*
X9727Y56D01*
X9683D01*
X9628Y61D01*
X9026D01*
Y-1500D01*
X8561D01*
Y2017D01*
X10197D01*
X10236Y2012D01*
D02*
G37*
G36*
X7830Y1602D02*
X5751D01*
Y525D01*
X7697D01*
Y110D01*
X5751D01*
Y-1085D01*
X7914D01*
Y-1500D01*
X5286D01*
Y2017D01*
X7830D01*
Y1602D01*
D02*
G37*
G36*
X4792D02*
X3631D01*
Y-1500D01*
X3167D01*
Y1602D01*
X2006D01*
Y2017D01*
X4792D01*
Y1602D01*
D02*
G37*
G36*
X514Y2012D02*
X603Y2007D01*
X692Y2002D01*
X776Y1993D01*
X855Y1983D01*
X865D01*
X880Y1978D01*
X899Y1973D01*
X944Y1963D01*
X1003Y1943D01*
X1072Y1923D01*
X1146Y1894D01*
X1216Y1859D01*
X1285Y1815D01*
X1295Y1810D01*
X1314Y1795D01*
X1349Y1765D01*
X1388Y1726D01*
X1433Y1681D01*
X1482Y1622D01*
X1527Y1553D01*
X1571Y1474D01*
X1576Y1464D01*
X1586Y1434D01*
X1606Y1390D01*
X1626Y1331D01*
X1645Y1261D01*
X1665Y1182D01*
X1675Y1089D01*
X1680Y995D01*
Y990D01*
Y975D01*
Y950D01*
X1675Y921D01*
X1670Y881D01*
X1665Y837D01*
X1655Y787D01*
X1645Y733D01*
X1611Y609D01*
X1586Y550D01*
X1561Y486D01*
X1527Y422D01*
X1487Y357D01*
X1443Y293D01*
X1393Y234D01*
X1388Y229D01*
X1379Y219D01*
X1364Y204D01*
X1339Y184D01*
X1304Y165D01*
X1265Y135D01*
X1216Y110D01*
X1156Y81D01*
X1092Y51D01*
X1013Y27D01*
X929Y-3D01*
X835Y-23D01*
X731Y-43D01*
X618Y-58D01*
X489Y-67D01*
X356Y-72D01*
X-543D01*
Y-1500D01*
X-1007D01*
Y2017D01*
X440D01*
X514Y2012D01*
D02*
G37*
G36*
X-1378Y-1500D02*
X-1907D01*
X-2317Y-433D01*
X-3799D01*
X-4179Y-1500D01*
X-4668D01*
X-3319Y2017D01*
X-2816D01*
X-1378Y-1500D01*
D02*
G37*
G36*
X-6486Y2012D02*
X-6397D01*
X-6293Y2002D01*
X-6190Y1993D01*
X-6091Y1983D01*
X-6002Y1963D01*
X-5997D01*
X-5987Y1958D01*
X-5972Y1953D01*
X-5952Y1948D01*
X-5893Y1933D01*
X-5824Y1904D01*
X-5745Y1869D01*
X-5656Y1830D01*
X-5572Y1775D01*
X-5488Y1711D01*
X-5483Y1706D01*
X-5473Y1701D01*
X-5463Y1686D01*
X-5444Y1671D01*
X-5389Y1617D01*
X-5330Y1548D01*
X-5261Y1464D01*
X-5192Y1360D01*
X-5127Y1242D01*
X-5068Y1113D01*
Y1108D01*
X-5063Y1098D01*
X-5053Y1079D01*
X-5048Y1049D01*
X-5034Y1015D01*
X-5024Y975D01*
X-5014Y926D01*
X-4999Y871D01*
X-4984Y812D01*
X-4974Y748D01*
X-4950Y604D01*
X-4935Y446D01*
X-4930Y274D01*
Y268D01*
Y254D01*
Y234D01*
Y204D01*
X-4935Y170D01*
Y130D01*
X-4940Y86D01*
Y36D01*
X-4955Y-77D01*
X-4969Y-196D01*
X-4994Y-319D01*
X-5024Y-438D01*
Y-443D01*
X-5029Y-453D01*
X-5034Y-467D01*
X-5038Y-487D01*
X-5063Y-547D01*
X-5088Y-616D01*
X-5122Y-695D01*
X-5167Y-784D01*
X-5211Y-868D01*
X-5266Y-947D01*
X-5271Y-957D01*
X-5290Y-981D01*
X-5320Y-1016D01*
X-5360Y-1060D01*
X-5409Y-1115D01*
X-5463Y-1169D01*
X-5523Y-1218D01*
X-5587Y-1268D01*
X-5597Y-1273D01*
X-5616Y-1288D01*
X-5656Y-1307D01*
X-5705Y-1332D01*
X-5765Y-1362D01*
X-5839Y-1386D01*
X-5918Y-1416D01*
X-6007Y-1441D01*
X-6017D01*
X-6031Y-1446D01*
X-6051Y-1451D01*
X-6101Y-1460D01*
X-6170Y-1470D01*
X-6254Y-1480D01*
X-6348Y-1490D01*
X-6456Y-1495D01*
X-6570Y-1500D01*
X-7840D01*
Y2017D01*
X-6525D01*
X-6486Y2012D01*
D02*
G37*
G36*
X-8210Y-1500D02*
X-8738D01*
X-9149Y-433D01*
X-10631D01*
X-11011Y-1500D01*
X-11500D01*
X-10151Y2017D01*
X-9647D01*
X-8210Y-1500D01*
D02*
G37*
G36*
X1845Y6131D02*
X1884D01*
X1978Y6121D01*
X2087Y6106D01*
X2200Y6081D01*
X2319Y6052D01*
X2433Y6007D01*
X2437D01*
X2447Y6002D01*
X2462Y5993D01*
X2482Y5983D01*
X2536Y5953D01*
X2606Y5914D01*
X2680Y5859D01*
X2754Y5795D01*
X2828Y5721D01*
X2892Y5632D01*
Y5627D01*
X2897Y5622D01*
X2907Y5607D01*
X2917Y5587D01*
X2946Y5538D01*
X2976Y5474D01*
X3006Y5390D01*
X3035Y5301D01*
X3060Y5197D01*
X3070Y5084D01*
X2625Y5049D01*
Y5054D01*
Y5064D01*
X2620Y5079D01*
X2615Y5103D01*
X2600Y5163D01*
X2581Y5237D01*
X2546Y5316D01*
X2507Y5400D01*
X2447Y5479D01*
X2378Y5548D01*
X2368Y5558D01*
X2339Y5578D01*
X2289Y5602D01*
X2225Y5637D01*
X2136Y5666D01*
X2032Y5696D01*
X1909Y5716D01*
X1766Y5721D01*
X1696D01*
X1662Y5716D01*
X1622Y5711D01*
X1534Y5701D01*
X1430Y5681D01*
X1331Y5657D01*
X1237Y5617D01*
X1193Y5592D01*
X1153Y5563D01*
X1143Y5558D01*
X1123Y5538D01*
X1094Y5503D01*
X1059Y5459D01*
X1020Y5405D01*
X990Y5341D01*
X970Y5271D01*
X960Y5192D01*
Y5182D01*
Y5163D01*
X965Y5123D01*
X975Y5084D01*
X995Y5034D01*
X1015Y4980D01*
X1049Y4930D01*
X1094Y4881D01*
X1099Y4876D01*
X1123Y4861D01*
X1143Y4846D01*
X1168Y4837D01*
X1198Y4822D01*
X1232Y4802D01*
X1277Y4787D01*
X1326Y4767D01*
X1380Y4743D01*
X1445Y4723D01*
X1519Y4698D01*
X1603Y4679D01*
X1692Y4654D01*
X1795Y4629D01*
X1800D01*
X1820Y4624D01*
X1850Y4619D01*
X1889Y4609D01*
X1934Y4595D01*
X1988Y4585D01*
X2042Y4570D01*
X2107Y4555D01*
X2235Y4521D01*
X2363Y4481D01*
X2423Y4461D01*
X2482Y4441D01*
X2531Y4427D01*
X2576Y4407D01*
X2581D01*
X2591Y4402D01*
X2606Y4392D01*
X2625Y4382D01*
X2680Y4352D01*
X2749Y4308D01*
X2818Y4254D01*
X2897Y4194D01*
X2966Y4125D01*
X3025Y4046D01*
X3030Y4036D01*
X3050Y4007D01*
X3075Y3962D01*
X3100Y3903D01*
X3129Y3829D01*
X3149Y3745D01*
X3169Y3651D01*
X3174Y3547D01*
Y3542D01*
Y3537D01*
Y3523D01*
Y3498D01*
X3164Y3449D01*
X3154Y3379D01*
X3134Y3295D01*
X3104Y3206D01*
X3065Y3113D01*
X3011Y3019D01*
Y3014D01*
X3006Y3009D01*
X2981Y2979D01*
X2946Y2935D01*
X2892Y2880D01*
X2828Y2816D01*
X2749Y2752D01*
X2660Y2688D01*
X2551Y2633D01*
X2546D01*
X2536Y2628D01*
X2521Y2623D01*
X2497Y2614D01*
X2472Y2604D01*
X2437Y2589D01*
X2398Y2579D01*
X2354Y2569D01*
X2255Y2544D01*
X2141Y2520D01*
X2013Y2505D01*
X1874Y2500D01*
X1795D01*
X1756Y2505D01*
X1706Y2510D01*
X1652D01*
X1593Y2520D01*
X1469Y2535D01*
X1336Y2559D01*
X1202Y2594D01*
X1074Y2638D01*
X1069D01*
X1059Y2643D01*
X1044Y2653D01*
X1020Y2663D01*
X960Y2698D01*
X891Y2742D01*
X807Y2801D01*
X723Y2871D01*
X639Y2954D01*
X565Y3053D01*
Y3058D01*
X555Y3068D01*
X550Y3083D01*
X536Y3103D01*
X521Y3127D01*
X506Y3162D01*
X471Y3241D01*
X437Y3335D01*
X407Y3444D01*
X387Y3562D01*
X378Y3691D01*
X817Y3730D01*
Y3725D01*
Y3720D01*
X822Y3705D01*
Y3686D01*
X832Y3636D01*
X847Y3577D01*
X867Y3508D01*
X891Y3434D01*
X921Y3360D01*
X960Y3290D01*
X965Y3286D01*
X980Y3261D01*
X1010Y3231D01*
X1049Y3192D01*
X1094Y3152D01*
X1158Y3103D01*
X1227Y3058D01*
X1311Y3019D01*
X1316D01*
X1321Y3014D01*
X1336Y3009D01*
X1356Y3004D01*
X1405Y2984D01*
X1469Y2969D01*
X1548Y2950D01*
X1642Y2930D01*
X1741Y2920D01*
X1850Y2915D01*
X1894D01*
X1943Y2920D01*
X2008Y2925D01*
X2082Y2935D01*
X2161Y2950D01*
X2240Y2969D01*
X2319Y2994D01*
X2329Y2999D01*
X2354Y3009D01*
X2388Y3029D01*
X2433Y3053D01*
X2482Y3083D01*
X2531Y3118D01*
X2581Y3162D01*
X2620Y3211D01*
X2625Y3216D01*
X2635Y3236D01*
X2655Y3266D01*
X2675Y3300D01*
X2689Y3345D01*
X2709Y3399D01*
X2719Y3453D01*
X2724Y3513D01*
Y3518D01*
Y3542D01*
X2719Y3572D01*
X2714Y3611D01*
X2699Y3656D01*
X2685Y3700D01*
X2660Y3750D01*
X2630Y3799D01*
X2625Y3804D01*
X2610Y3819D01*
X2591Y3844D01*
X2556Y3873D01*
X2512Y3903D01*
X2457Y3937D01*
X2393Y3972D01*
X2314Y4007D01*
X2309Y4012D01*
X2284Y4017D01*
X2265Y4022D01*
X2245Y4031D01*
X2215Y4036D01*
X2181Y4046D01*
X2141Y4061D01*
X2097Y4071D01*
X2047Y4086D01*
X1988Y4101D01*
X1924Y4115D01*
X1855Y4135D01*
X1776Y4155D01*
X1687Y4175D01*
X1682D01*
X1667Y4180D01*
X1642Y4185D01*
X1608Y4194D01*
X1568Y4204D01*
X1524Y4219D01*
X1420Y4249D01*
X1311Y4283D01*
X1198Y4318D01*
X1094Y4357D01*
X1049Y4377D01*
X1010Y4397D01*
X1005D01*
X1000Y4402D01*
X970Y4422D01*
X926Y4451D01*
X867Y4486D01*
X807Y4535D01*
X743Y4590D01*
X684Y4654D01*
X634Y4723D01*
X630Y4733D01*
X615Y4758D01*
X595Y4797D01*
X575Y4851D01*
X550Y4916D01*
X531Y4990D01*
X516Y5074D01*
X511Y5163D01*
Y5168D01*
Y5173D01*
Y5187D01*
X516Y5207D01*
X521Y5262D01*
X531Y5326D01*
X545Y5400D01*
X575Y5484D01*
X610Y5573D01*
X659Y5662D01*
Y5666D01*
X664Y5672D01*
X689Y5701D01*
X723Y5741D01*
X773Y5795D01*
X832Y5849D01*
X911Y5909D01*
X1000Y5963D01*
X1099Y6012D01*
X1104D01*
X1114Y6017D01*
X1128Y6022D01*
X1148Y6032D01*
X1178Y6042D01*
X1208Y6052D01*
X1291Y6077D01*
X1385Y6096D01*
X1494Y6116D01*
X1617Y6131D01*
X1746Y6136D01*
X1810D01*
X1845Y6131D01*
D02*
G37*
G36*
X-245Y4041D02*
Y4036D01*
Y4017D01*
Y3992D01*
Y3952D01*
X-250Y3908D01*
Y3858D01*
X-255Y3799D01*
X-260Y3740D01*
X-274Y3607D01*
X-299Y3463D01*
X-329Y3325D01*
X-349Y3261D01*
X-368Y3201D01*
Y3196D01*
X-373Y3187D01*
X-383Y3172D01*
X-393Y3152D01*
X-423Y3093D01*
X-467Y3024D01*
X-526Y2940D01*
X-601Y2856D01*
X-694Y2772D01*
X-803Y2693D01*
X-808D01*
X-818Y2683D01*
X-833Y2673D01*
X-857Y2663D01*
X-892Y2648D01*
X-927Y2633D01*
X-971Y2614D01*
X-1020Y2599D01*
X-1080Y2579D01*
X-1139Y2559D01*
X-1208Y2544D01*
X-1282Y2530D01*
X-1356Y2520D01*
X-1440Y2510D01*
X-1529Y2500D01*
X-1673D01*
X-1707Y2505D01*
X-1747D01*
X-1796Y2510D01*
X-1850Y2515D01*
X-1910Y2520D01*
X-2043Y2540D01*
X-2176Y2569D01*
X-2315Y2614D01*
X-2438Y2668D01*
X-2443D01*
X-2453Y2678D01*
X-2468Y2688D01*
X-2488Y2698D01*
X-2542Y2737D01*
X-2611Y2792D01*
X-2685Y2861D01*
X-2759Y2945D01*
X-2824Y3043D01*
X-2883Y3157D01*
Y3162D01*
X-2888Y3172D01*
X-2893Y3192D01*
X-2903Y3216D01*
X-2912Y3251D01*
X-2927Y3290D01*
X-2937Y3335D01*
X-2947Y3389D01*
X-2962Y3449D01*
X-2972Y3518D01*
X-2987Y3587D01*
X-2997Y3666D01*
X-3001Y3755D01*
X-3011Y3844D01*
X-3016Y3937D01*
Y4041D01*
Y6077D01*
X-2552D01*
Y4046D01*
Y4041D01*
Y4027D01*
Y4002D01*
Y3972D01*
X-2547Y3933D01*
Y3888D01*
X-2542Y3789D01*
X-2532Y3681D01*
X-2517Y3567D01*
X-2497Y3463D01*
X-2483Y3414D01*
X-2468Y3369D01*
X-2463Y3360D01*
X-2453Y3335D01*
X-2428Y3295D01*
X-2399Y3246D01*
X-2359Y3192D01*
X-2310Y3137D01*
X-2251Y3083D01*
X-2176Y3033D01*
X-2167Y3029D01*
X-2137Y3014D01*
X-2093Y2999D01*
X-2033Y2979D01*
X-1959Y2954D01*
X-1875Y2940D01*
X-1776Y2925D01*
X-1668Y2920D01*
X-1618D01*
X-1584Y2925D01*
X-1539D01*
X-1490Y2935D01*
X-1440Y2940D01*
X-1381Y2950D01*
X-1258Y2979D01*
X-1139Y3019D01*
X-1025Y3078D01*
X-976Y3113D01*
X-932Y3152D01*
X-927Y3157D01*
X-922Y3162D01*
X-912Y3177D01*
X-897Y3196D01*
X-882Y3226D01*
X-862Y3261D01*
X-843Y3300D01*
X-818Y3350D01*
X-798Y3409D01*
X-778Y3473D01*
X-759Y3547D01*
X-744Y3626D01*
X-729Y3720D01*
X-719Y3819D01*
X-709Y3928D01*
Y4046D01*
Y6077D01*
X-245D01*
Y4041D01*
D02*
G37*
G36*
X6365Y5662D02*
X4285D01*
Y4585D01*
X6231D01*
Y4170D01*
X4285D01*
Y2974D01*
X6449D01*
Y2559D01*
X3821D01*
Y6077D01*
X6365D01*
Y5662D01*
D02*
G37*
G36*
X-3629D02*
X-5536D01*
Y4570D01*
X-3886D01*
Y4155D01*
X-5536D01*
Y2559D01*
X-6000D01*
Y6077D01*
X-3629D01*
Y5662D01*
D02*
G37*
%LPC*%
G36*
X10211Y1627D02*
X9026D01*
Y466D01*
X10078D01*
X10132Y471D01*
X10206Y476D01*
X10285Y481D01*
X10369Y496D01*
X10448Y511D01*
X10522Y530D01*
X10532Y535D01*
X10552Y545D01*
X10587Y560D01*
X10626Y580D01*
X10671Y609D01*
X10715Y644D01*
X10760Y688D01*
X10799Y738D01*
X10804Y743D01*
X10814Y763D01*
X10829Y792D01*
X10849Y832D01*
X10868Y881D01*
X10883Y935D01*
X10893Y995D01*
X10898Y1054D01*
Y1059D01*
Y1064D01*
X10893Y1098D01*
X10888Y1143D01*
X10873Y1202D01*
X10853Y1266D01*
X10819Y1336D01*
X10774Y1400D01*
X10715Y1464D01*
X10705Y1469D01*
X10681Y1489D01*
X10636Y1513D01*
X10577Y1548D01*
X10493Y1578D01*
X10394Y1602D01*
X10276Y1622D01*
X10211Y1627D01*
D02*
G37*
G36*
X465Y1602D02*
X-543D01*
Y343D01*
X410D01*
X440Y348D01*
X479D01*
X519Y353D01*
X618Y362D01*
X722Y382D01*
X830Y412D01*
X929Y456D01*
X969Y481D01*
X1008Y511D01*
X1018Y520D01*
X1038Y540D01*
X1067Y580D01*
X1107Y634D01*
X1142Y698D01*
X1171Y777D01*
X1191Y871D01*
X1201Y980D01*
Y985D01*
Y990D01*
Y1019D01*
X1196Y1059D01*
X1186Y1113D01*
X1171Y1173D01*
X1151Y1237D01*
X1127Y1301D01*
X1087Y1360D01*
X1082Y1365D01*
X1067Y1385D01*
X1043Y1415D01*
X1008Y1444D01*
X964Y1479D01*
X914Y1513D01*
X855Y1543D01*
X791Y1568D01*
X786D01*
X766Y1573D01*
X736Y1578D01*
X692Y1588D01*
X633Y1592D01*
X558Y1597D01*
X465Y1602D01*
D02*
G37*
G36*
X-3082Y1652D02*
Y1647D01*
X-3087Y1637D01*
X-3092Y1617D01*
X-3097Y1592D01*
X-3102Y1563D01*
X-3112Y1523D01*
X-3132Y1439D01*
X-3161Y1336D01*
X-3196Y1222D01*
X-3230Y1098D01*
X-3275Y975D01*
X-3660Y-53D01*
X-2465D01*
X-2830Y921D01*
Y926D01*
X-2835Y940D01*
X-2845Y965D01*
X-2860Y995D01*
X-2870Y1034D01*
X-2890Y1079D01*
X-2904Y1123D01*
X-2924Y1178D01*
X-2964Y1296D01*
X-3008Y1415D01*
X-3048Y1538D01*
X-3082Y1652D01*
D02*
G37*
G36*
X-6565Y1602D02*
X-7375D01*
Y-1085D01*
X-6540D01*
X-6506Y-1080D01*
X-6427Y-1075D01*
X-6338Y-1070D01*
X-6249Y-1055D01*
X-6160Y-1041D01*
X-6081Y-1021D01*
X-6071Y-1016D01*
X-6046Y-1011D01*
X-6012Y-996D01*
X-5967Y-971D01*
X-5913Y-947D01*
X-5864Y-917D01*
X-5809Y-878D01*
X-5765Y-838D01*
X-5755Y-828D01*
X-5735Y-808D01*
X-5705Y-774D01*
X-5671Y-720D01*
X-5626Y-660D01*
X-5582Y-581D01*
X-5542Y-497D01*
X-5503Y-398D01*
Y-393D01*
X-5498Y-384D01*
X-5493Y-369D01*
X-5488Y-349D01*
X-5483Y-319D01*
X-5473Y-290D01*
X-5463Y-250D01*
X-5453Y-206D01*
X-5439Y-107D01*
X-5424Y7D01*
X-5414Y140D01*
X-5409Y283D01*
Y288D01*
Y308D01*
Y338D01*
X-5414Y372D01*
Y422D01*
X-5419Y476D01*
X-5424Y535D01*
X-5434Y599D01*
X-5453Y733D01*
X-5488Y876D01*
X-5533Y1010D01*
X-5557Y1074D01*
X-5592Y1133D01*
Y1138D01*
X-5602Y1148D01*
X-5612Y1163D01*
X-5626Y1182D01*
X-5661Y1232D01*
X-5715Y1296D01*
X-5779Y1360D01*
X-5858Y1424D01*
X-5943Y1484D01*
X-6036Y1528D01*
X-6046Y1533D01*
X-6071Y1538D01*
X-6115Y1553D01*
X-6180Y1568D01*
X-6219Y1573D01*
X-6264Y1578D01*
X-6313Y1588D01*
X-6367Y1592D01*
X-6427Y1597D01*
X-6491D01*
X-6565Y1602D01*
D02*
G37*
G36*
X-9914Y1652D02*
Y1647D01*
X-9919Y1637D01*
X-9924Y1617D01*
X-9929Y1592D01*
X-9934Y1563D01*
X-9944Y1523D01*
X-9964Y1439D01*
X-9993Y1336D01*
X-10028Y1222D01*
X-10063Y1098D01*
X-10107Y975D01*
X-10492Y-53D01*
X-9297D01*
X-9662Y921D01*
Y926D01*
X-9667Y940D01*
X-9677Y965D01*
X-9692Y995D01*
X-9702Y1034D01*
X-9722Y1079D01*
X-9736Y1123D01*
X-9756Y1178D01*
X-9796Y1296D01*
X-9840Y1415D01*
X-9880Y1538D01*
X-9914Y1652D01*
D02*
G37*
%LPD*%
D10*
X-7525Y-5059D02*
G03*
X-8976Y-3136I-2000J0D01*
G01*
X-8951Y3077D02*
G03*
X-7500Y5000I-549J1923D01*
G01*
X-9525Y-7059D02*
G03*
X-7525Y-5059I0J2000D01*
G01*
X-7500Y5000D02*
G03*
X-9500Y7000I-2000J0D01*
G01*
X9475Y6941D02*
G03*
X7475Y4941I0J-2000D01*
G01*
Y4941D02*
G03*
X8925Y3018I2000J0D01*
G01*
X7475Y-5059D02*
G03*
X9475Y-7059I2000J0D01*
G01*
X8925Y-3136D02*
G03*
X7475Y-5059I549J-1923D01*
G01*
X-13525Y-7059D02*
X-10025D01*
X-13500Y7000D02*
X-10000D01*
X-23500Y-3000D02*
Y3000D01*
X-10025Y-7059D02*
X-9525D01*
X-16000Y1500D02*
X-8951Y3077D01*
X-10000Y7000D02*
X-9500D01*
X-16025Y-1559D02*
X-8976Y-3136D01*
X9975Y6941D02*
X13475D01*
X9475D02*
X9975D01*
X8925Y3018D02*
X15974Y1441D01*
X9975Y-7059D02*
X13475D01*
X9475D02*
X9975D01*
X8925Y-3136D02*
X15974Y-1559D01*
X23500Y-3000D02*
Y3000D01*
M02*
