G04*
G04 #@! TF.GenerationSoftware,Altium Limited,CircuitMaker,2.2.1 (2.2.1.6)*
G04*
G04 Layer_Color=13813960*
%FSLAX25Y25*%
%MOIN*%
G70*
G04*
G04 #@! TF.SameCoordinates,A4E7AD6A-1E60-4C3D-990C-C51B8D7E7BCC*
G04*
G04*
G04 #@! TF.FilePolarity,Positive*
G04*
G01*
G75*
%ADD10C,0.00500*%
G36*
X7326Y12225D02*
Y12213D01*
X7461D01*
X7461Y12202D01*
X7551D01*
Y12191D01*
X7607D01*
Y12180D01*
X7663D01*
Y12168D01*
X7708Y12169D01*
X7708Y12157D01*
X7742D01*
Y12146D01*
X7786Y12146D01*
X7786Y12135D01*
X7820Y12135D01*
Y12124D01*
X7854Y12124D01*
X7854Y12112D01*
X7876D01*
X7876Y12101D01*
X7910Y12101D01*
X7910Y12090D01*
X7944D01*
Y12079D01*
X7966D01*
Y12067D01*
X7989Y12067D01*
Y12056D01*
X8011Y12056D01*
Y12045D01*
X8034Y12045D01*
Y12034D01*
X8056Y12034D01*
X8056Y12022D01*
X8079D01*
Y12011D01*
X8101D01*
X8101Y12000D01*
X8124D01*
X8124Y11989D01*
X8146Y11989D01*
X8146Y11977D01*
X8168Y11977D01*
Y11966D01*
X8180Y11966D01*
X8180Y11955D01*
X8202D01*
X8202Y11944D01*
X8225D01*
Y11933D01*
X8236Y11933D01*
X8236Y11921D01*
X8258Y11921D01*
Y11910D01*
X8270D01*
Y11899D01*
X8292D01*
X8292Y11888D01*
X8303D01*
Y11876D01*
X8315D01*
X8315Y11865D01*
X8337Y11865D01*
Y11854D01*
X8348Y11854D01*
X8348Y11843D01*
X8360Y11843D01*
X8360Y11831D01*
X8382D01*
Y11820D01*
X8393D01*
Y11809D01*
X8405Y11809D01*
Y11798D01*
X8416D01*
X8416Y11787D01*
X8427Y11787D01*
X8427Y11775D01*
X8438Y11775D01*
Y11764D01*
X8461D01*
X8461Y11753D01*
X8472D01*
Y11742D01*
X8483Y11742D01*
Y11730D01*
X8494Y11730D01*
Y11719D01*
X8506D01*
Y11708D01*
X8517Y11708D01*
X8517Y11697D01*
X8528D01*
X8528Y11685D01*
X8539D01*
Y11674D01*
X8551Y11674D01*
Y11663D01*
X8562D01*
Y11652D01*
X8573Y11652D01*
X8573Y11640D01*
X8584D01*
X8584Y11629D01*
X8596D01*
Y11607D01*
X8607Y11607D01*
Y11596D01*
X8618D01*
Y11584D01*
X8629D01*
Y11573D01*
X8640D01*
Y11562D01*
X8652D01*
Y11539D01*
X8663Y11539D01*
X8663Y11528D01*
X8674D01*
Y11517D01*
X8685D01*
Y11506D01*
X8697Y11506D01*
Y11483D01*
X8708D01*
X8708Y11472D01*
X8719D01*
Y11449D01*
X8730D01*
Y11438D01*
X8742D01*
Y11427D01*
X8753Y11427D01*
Y11405D01*
X8764D01*
X8764Y11393D01*
X8775D01*
X8775Y11371D01*
X8787D01*
Y11348D01*
X8798D01*
Y11337D01*
X8809D01*
X8809Y11315D01*
X8820Y11315D01*
X8820Y11292D01*
X8831D01*
X8832Y11270D01*
X8843D01*
Y11247D01*
X8854D01*
Y11236D01*
X8865D01*
X8865Y11214D01*
X8876D01*
Y11180D01*
X8888D01*
X8888Y11157D01*
X8899Y11157D01*
X8899Y11135D01*
X8910D01*
Y11112D01*
X8921D01*
Y11079D01*
X8933D01*
X8933Y11056D01*
X8944D01*
Y11022D01*
X8955D01*
Y10989D01*
X8966Y10989D01*
X8966Y10955D01*
X8978D01*
Y10910D01*
X8989D01*
X8989Y10876D01*
X9000D01*
X9000Y10831D01*
X9011D01*
X9011Y10775D01*
X9023D01*
X9023Y10719D01*
X9034Y10719D01*
X9034Y10640D01*
X9045D01*
Y10494D01*
X9056Y10494D01*
Y3393D01*
X9045Y3393D01*
Y3247D01*
X9034D01*
Y3168D01*
X9023D01*
Y3112D01*
X9011D01*
X9011Y3056D01*
X9000D01*
Y3011D01*
X8989D01*
X8989Y2966D01*
X8978D01*
Y2933D01*
X8966Y2933D01*
Y2899D01*
X8955Y2899D01*
Y2865D01*
X8944D01*
Y2831D01*
X8933Y2832D01*
Y2809D01*
X8921D01*
X8921Y2775D01*
X8910D01*
Y2753D01*
X8899D01*
X8899Y2719D01*
X8888Y2719D01*
X8888Y2697D01*
X8876Y2697D01*
Y2674D01*
X8865D01*
X8865Y2652D01*
X8854Y2652D01*
Y2629D01*
X8843D01*
X8843Y2607D01*
X8832D01*
X8831Y2584D01*
X8820Y2584D01*
X8820Y2573D01*
X8809D01*
Y2551D01*
X8798Y2551D01*
Y2528D01*
X8787D01*
X8787Y2517D01*
X8775D01*
X8775Y2494D01*
X8764Y2494D01*
X8764Y2483D01*
X8753D01*
X8753Y2461D01*
X8742D01*
X8742Y2449D01*
X8730D01*
Y2427D01*
X8719D01*
X8719Y2416D01*
X8708Y2416D01*
Y2393D01*
X8697D01*
Y2382D01*
X8685D01*
Y2371D01*
X8674D01*
X8674Y2360D01*
X8663D01*
Y2337D01*
X8652D01*
Y2326D01*
X8640Y2326D01*
Y2315D01*
X8629D01*
Y2303D01*
X8618D01*
X8618Y2281D01*
X8607D01*
Y2270D01*
X8596Y2270D01*
Y2258D01*
X8584Y2258D01*
X8584Y2247D01*
X8573D01*
Y2236D01*
X8562Y2236D01*
Y2225D01*
X8551Y2225D01*
Y2214D01*
X8539D01*
X8539Y2202D01*
X8528Y2202D01*
X8528Y2191D01*
X8517D01*
X8517Y2180D01*
X8506Y2180D01*
Y2169D01*
X8494D01*
Y2157D01*
X8483D01*
X8483Y2146D01*
X8472Y2146D01*
X8472Y2135D01*
X8461Y2135D01*
X8461Y2124D01*
X8449Y2124D01*
Y2112D01*
X8438D01*
Y2101D01*
X8416D01*
X8416Y2090D01*
X8405Y2090D01*
Y2079D01*
X8393D01*
X8393Y2067D01*
X8382D01*
Y2056D01*
X8371D01*
Y2045D01*
X8348Y2045D01*
Y2034D01*
X8337D01*
Y2022D01*
X8326Y2022D01*
Y2011D01*
X8303D01*
Y2000D01*
X8292D01*
X8292Y1989D01*
X8270Y1989D01*
X8270Y1977D01*
X8258D01*
X8258Y1966D01*
X8236Y1966D01*
Y1955D01*
X8225Y1955D01*
Y1944D01*
X8202Y1944D01*
Y1933D01*
X8191Y1933D01*
Y1921D01*
X8169D01*
X8169Y1910D01*
X8146D01*
X8146Y1899D01*
X8135D01*
Y1888D01*
X8112Y1888D01*
X8112Y1876D01*
X8090Y1876D01*
Y1865D01*
X8067Y1865D01*
Y1854D01*
X8045D01*
X8045Y1843D01*
X8022Y1843D01*
Y1832D01*
X8000D01*
Y1820D01*
X7966D01*
X7966Y1809D01*
X7944Y1809D01*
Y1798D01*
X7921D01*
X7921Y1787D01*
X7888D01*
Y1775D01*
X7854Y1775D01*
Y1764D01*
X7820Y1764D01*
X7820Y1753D01*
X7786D01*
X7786Y1742D01*
X7753D01*
X7753Y1730D01*
X7708D01*
X7708Y1719D01*
X7663Y1719D01*
Y1708D01*
X7618D01*
Y1697D01*
X7562D01*
X7562Y1685D01*
X7483Y1685D01*
Y1674D01*
X-7371Y1674D01*
Y1685D01*
X-7449Y1685D01*
Y1697D01*
X-7506D01*
Y1708D01*
X-7551D01*
Y1719D01*
X-7607Y1719D01*
X-7607Y1730D01*
X-7641Y1730D01*
X-7640Y1742D01*
X-7685Y1742D01*
Y1753D01*
X-7719D01*
Y1764D01*
X-7753D01*
X-7753Y1775D01*
X-7775D01*
Y1787D01*
X-7809Y1787D01*
X-7809Y1798D01*
X-7831D01*
Y1809D01*
X-7865D01*
Y1820D01*
X-7888D01*
Y1831D01*
X-7910Y1832D01*
X-7910Y1843D01*
X-7933Y1843D01*
X-7933Y1854D01*
X-7955D01*
X-7955Y1865D01*
X-7977D01*
Y1876D01*
X-8000Y1876D01*
Y1888D01*
X-8022D01*
X-8022Y1899D01*
X-8045D01*
X-8045Y1910D01*
X-8056D01*
X-8056Y1921D01*
X-8079Y1921D01*
Y1933D01*
X-8090Y1933D01*
Y1944D01*
X-8112D01*
Y1955D01*
X-8135D01*
X-8135Y1966D01*
X-8146Y1966D01*
Y1977D01*
X-8168D01*
Y1989D01*
X-8180Y1989D01*
X-8180Y2000D01*
X-8191D01*
X-8191Y2011D01*
X-8213Y2011D01*
Y2022D01*
X-8225D01*
X-8225Y2034D01*
X-8236D01*
Y2045D01*
X-8258Y2045D01*
Y2056D01*
X-8270D01*
X-8270Y2067D01*
X-8281D01*
Y2079D01*
X-8292Y2079D01*
Y2090D01*
X-8315Y2090D01*
X-8315Y2101D01*
X-8326D01*
X-8326Y2112D01*
X-8337D01*
Y2124D01*
X-8348Y2124D01*
Y2135D01*
X-8360D01*
Y2146D01*
X-8371Y2146D01*
X-8371Y2157D01*
X-8382D01*
X-8382Y2169D01*
X-8393D01*
Y2180D01*
X-8405Y2180D01*
Y2191D01*
X-8416D01*
X-8416Y2202D01*
X-8427D01*
X-8427Y2214D01*
X-8438Y2214D01*
Y2225D01*
X-8449D01*
Y2236D01*
X-8461Y2236D01*
Y2247D01*
X-8472D01*
X-8472Y2258D01*
X-8483D01*
Y2270D01*
X-8494Y2270D01*
Y2281D01*
X-8506D01*
Y2292D01*
X-8517Y2292D01*
X-8517Y2315D01*
X-8528D01*
X-8528Y2326D01*
X-8539Y2326D01*
Y2337D01*
X-8551D01*
Y2348D01*
X-8562Y2348D01*
X-8562Y2371D01*
X-8573D01*
Y2382D01*
X-8584D01*
Y2393D01*
X-8596Y2393D01*
Y2416D01*
X-8607Y2416D01*
X-8607Y2427D01*
X-8618Y2427D01*
X-8618Y2438D01*
X-8629Y2438D01*
Y2461D01*
X-8640D01*
Y2472D01*
X-8652Y2472D01*
Y2494D01*
X-8663Y2494D01*
Y2506D01*
X-8674D01*
Y2528D01*
X-8685Y2528D01*
Y2551D01*
X-8697D01*
Y2573D01*
X-8708Y2573D01*
Y2584D01*
X-8719Y2584D01*
X-8719Y2607D01*
X-8730D01*
X-8730Y2629D01*
X-8742Y2629D01*
Y2652D01*
X-8753Y2652D01*
Y2674D01*
X-8764D01*
X-8764Y2697D01*
X-8775D01*
Y2719D01*
X-8787D01*
Y2742D01*
X-8798Y2742D01*
Y2775D01*
X-8809D01*
Y2798D01*
X-8820Y2798D01*
X-8820Y2831D01*
X-8832Y2832D01*
Y2865D01*
X-8843D01*
X-8843Y2888D01*
X-8854D01*
Y2933D01*
X-8865D01*
Y4360D01*
Y4371D01*
Y10955D01*
X-8854Y10955D01*
Y10989D01*
X-8843D01*
Y11022D01*
X-8831Y11022D01*
X-8832Y11056D01*
X-8820Y11056D01*
Y11090D01*
X-8809Y11090D01*
Y11112D01*
X-8798D01*
Y11146D01*
X-8787Y11146D01*
Y11169D01*
X-8775D01*
X-8775Y11191D01*
X-8764Y11191D01*
Y11214D01*
X-8753Y11214D01*
Y11236D01*
X-8742D01*
Y11258D01*
X-8730Y11258D01*
Y11281D01*
X-8719D01*
Y11303D01*
X-8708Y11303D01*
Y11315D01*
X-8697Y11315D01*
Y11337D01*
X-8685D01*
X-8685Y11360D01*
X-8674D01*
X-8674Y11371D01*
X-8663Y11371D01*
X-8663Y11393D01*
X-8652D01*
Y11405D01*
X-8640Y11405D01*
X-8640Y11427D01*
X-8629Y11427D01*
Y11438D01*
X-8618D01*
X-8618Y11461D01*
X-8607Y11461D01*
X-8607Y11472D01*
X-8596Y11472D01*
X-8596Y11494D01*
X-8584Y11494D01*
X-8584Y11506D01*
X-8573D01*
Y11517D01*
X-8562D01*
Y11528D01*
X-8551Y11528D01*
X-8551Y11551D01*
X-8539D01*
X-8539Y11562D01*
X-8528Y11562D01*
X-8528Y11573D01*
X-8517D01*
Y11584D01*
X-8506Y11584D01*
Y11596D01*
X-8494D01*
Y11618D01*
X-8483Y11618D01*
X-8483Y11629D01*
X-8472D01*
X-8472Y11640D01*
X-8461Y11640D01*
X-8461Y11652D01*
X-8449D01*
Y11663D01*
X-8438Y11663D01*
Y11674D01*
X-8427Y11674D01*
Y11685D01*
X-8416Y11685D01*
X-8416Y11697D01*
X-8405Y11697D01*
Y11708D01*
X-8393Y11708D01*
Y11719D01*
X-8382D01*
X-8382Y11730D01*
X-8371Y11730D01*
Y11742D01*
X-8360Y11742D01*
X-8360Y11753D01*
X-8348D01*
X-8348Y11764D01*
X-8337Y11764D01*
Y11775D01*
X-8315D01*
Y11787D01*
X-8303D01*
Y11798D01*
X-8292D01*
X-8292Y11809D01*
X-8281D01*
Y11820D01*
X-8270D01*
Y11831D01*
X-8247Y11831D01*
X-8247Y11843D01*
X-8236D01*
X-8236Y11854D01*
X-8225D01*
Y11865D01*
X-8202D01*
Y11876D01*
X-8191Y11876D01*
X-8191Y11888D01*
X-8180D01*
X-8180Y11899D01*
X-8157D01*
X-8157Y11910D01*
X-8146D01*
Y11921D01*
X-8124Y11921D01*
X-8124Y11933D01*
X-8112D01*
Y11944D01*
X-8090D01*
Y11955D01*
X-8067Y11955D01*
X-8067Y11966D01*
X-8056D01*
X-8056Y11977D01*
X-8034D01*
Y11989D01*
X-8011D01*
Y12000D01*
X-7989D01*
X-7989Y12011D01*
X-7977Y12011D01*
Y12022D01*
X-7955D01*
Y12034D01*
X-7933Y12034D01*
Y12045D01*
X-7910Y12045D01*
Y12056D01*
X-7876D01*
X-7876Y12067D01*
X-7854Y12067D01*
Y12079D01*
X-7831Y12079D01*
Y12090D01*
X-7798Y12090D01*
Y12101D01*
X-7775D01*
Y12112D01*
X-7742D01*
Y12124D01*
X-7708D01*
Y12135D01*
X-7674D01*
Y12146D01*
X-7641D01*
X-7640Y12157D01*
X-7596Y12157D01*
Y12168D01*
X-7551Y12168D01*
Y12180D01*
X-7494D01*
Y12191D01*
X-7438D01*
Y12202D01*
X-7360D01*
X-7360Y12213D01*
X-7214D01*
Y12225D01*
X7326Y12225D01*
D02*
G37*
G36*
X2233Y-6087D02*
X2314Y-6092D01*
X2460Y-6125D01*
X2589Y-6162D01*
X2702Y-6211D01*
X2751Y-6238D01*
X2794Y-6259D01*
X2826Y-6286D01*
X2859Y-6302D01*
X2880Y-6319D01*
X2896Y-6335D01*
X2907Y-6340D01*
X2912Y-6346D01*
X3015Y-6453D01*
X3101Y-6567D01*
X3166Y-6690D01*
X3220Y-6809D01*
X3257Y-6917D01*
X3274Y-6960D01*
X3284Y-6998D01*
X3290Y-7035D01*
X3295Y-7057D01*
X3300Y-7073D01*
Y-7079D01*
X2832Y-7165D01*
X2810Y-7041D01*
X2772Y-6938D01*
X2735Y-6847D01*
X2697Y-6777D01*
X2659Y-6718D01*
X2627Y-6680D01*
X2605Y-6653D01*
X2600Y-6647D01*
X2530Y-6588D01*
X2449Y-6545D01*
X2373Y-6513D01*
X2303Y-6491D01*
X2239Y-6480D01*
X2185Y-6470D01*
X2142D01*
X2045Y-6475D01*
X1953Y-6497D01*
X1878Y-6523D01*
X1813Y-6556D01*
X1759Y-6588D01*
X1721Y-6615D01*
X1694Y-6637D01*
X1689Y-6642D01*
X1630Y-6712D01*
X1586Y-6782D01*
X1554Y-6852D01*
X1533Y-6922D01*
X1522Y-6982D01*
X1511Y-7030D01*
Y-7062D01*
Y-7068D01*
Y-7073D01*
Y-7132D01*
X1522Y-7186D01*
X1549Y-7283D01*
X1586Y-7364D01*
X1630Y-7434D01*
X1678Y-7488D01*
X1716Y-7521D01*
X1743Y-7547D01*
X1748Y-7553D01*
X1754D01*
X1845Y-7607D01*
X1942Y-7645D01*
X2034Y-7671D01*
X2115Y-7688D01*
X2190Y-7699D01*
X2249Y-7709D01*
X2320D01*
X2347Y-7704D01*
X2373D01*
X2427Y-8119D01*
X2357Y-8103D01*
X2293Y-8092D01*
X2233Y-8081D01*
X2185Y-8076D01*
X2147Y-8070D01*
X2093D01*
X1975Y-8081D01*
X1872Y-8103D01*
X1781Y-8135D01*
X1700Y-8173D01*
X1640Y-8216D01*
X1592Y-8248D01*
X1565Y-8270D01*
X1554Y-8281D01*
X1484Y-8361D01*
X1430Y-8453D01*
X1393Y-8539D01*
X1366Y-8625D01*
X1349Y-8701D01*
X1344Y-8760D01*
X1339Y-8782D01*
Y-8798D01*
Y-8809D01*
Y-8814D01*
Y-8879D01*
X1349Y-8938D01*
X1376Y-9046D01*
X1414Y-9143D01*
X1452Y-9229D01*
X1495Y-9294D01*
X1533Y-9342D01*
X1560Y-9375D01*
X1565Y-9380D01*
X1570Y-9386D01*
X1657Y-9461D01*
X1754Y-9515D01*
X1845Y-9558D01*
X1937Y-9585D01*
X2012Y-9601D01*
X2077Y-9606D01*
X2099Y-9612D01*
X2131D01*
X2233Y-9606D01*
X2325Y-9585D01*
X2406Y-9558D01*
X2476Y-9520D01*
X2535Y-9488D01*
X2578Y-9461D01*
X2600Y-9439D01*
X2611Y-9434D01*
X2675Y-9359D01*
X2735Y-9267D01*
X2778Y-9170D01*
X2815Y-9078D01*
X2842Y-8987D01*
X2853Y-8949D01*
X2864Y-8917D01*
X2869Y-8890D01*
X2875Y-8868D01*
X2880Y-8857D01*
Y-8852D01*
X3349Y-8917D01*
X3338Y-9003D01*
X3322Y-9089D01*
X3274Y-9245D01*
X3209Y-9380D01*
X3177Y-9439D01*
X3144Y-9493D01*
X3112Y-9542D01*
X3080Y-9585D01*
X3053Y-9617D01*
X3026Y-9650D01*
X3004Y-9671D01*
X2988Y-9687D01*
X2977Y-9698D01*
X2972Y-9703D01*
X2907Y-9758D01*
X2837Y-9801D01*
X2772Y-9838D01*
X2697Y-9876D01*
X2557Y-9930D01*
X2427Y-9962D01*
X2363Y-9973D01*
X2309Y-9984D01*
X2260Y-9989D01*
X2217Y-9995D01*
X2179Y-10000D01*
X2131D01*
X2028Y-9995D01*
X1932Y-9984D01*
X1835Y-9968D01*
X1748Y-9946D01*
X1667Y-9919D01*
X1592Y-9892D01*
X1522Y-9860D01*
X1457Y-9827D01*
X1398Y-9795D01*
X1349Y-9763D01*
X1306Y-9736D01*
X1268Y-9709D01*
X1242Y-9687D01*
X1220Y-9671D01*
X1209Y-9660D01*
X1204Y-9655D01*
X1139Y-9585D01*
X1085Y-9520D01*
X1031Y-9445D01*
X994Y-9375D01*
X956Y-9305D01*
X929Y-9229D01*
X880Y-9100D01*
X870Y-9035D01*
X859Y-8981D01*
X848Y-8933D01*
X843Y-8890D01*
X837Y-8852D01*
Y-8825D01*
Y-8809D01*
Y-8803D01*
X843Y-8669D01*
X864Y-8550D01*
X897Y-8442D01*
X929Y-8356D01*
X967Y-8281D01*
X994Y-8227D01*
X1010Y-8211D01*
X1015Y-8194D01*
X1026Y-8189D01*
Y-8184D01*
X1101Y-8097D01*
X1188Y-8027D01*
X1279Y-7973D01*
X1366Y-7930D01*
X1441Y-7898D01*
X1500Y-7876D01*
X1527Y-7871D01*
X1543Y-7866D01*
X1554Y-7860D01*
X1560D01*
X1468Y-7812D01*
X1387Y-7758D01*
X1317Y-7704D01*
X1263Y-7650D01*
X1215Y-7607D01*
X1188Y-7569D01*
X1166Y-7547D01*
X1161Y-7537D01*
X1118Y-7456D01*
X1085Y-7380D01*
X1058Y-7305D01*
X1042Y-7235D01*
X1031Y-7176D01*
X1026Y-7127D01*
Y-7095D01*
Y-7084D01*
X1031Y-6987D01*
X1048Y-6895D01*
X1069Y-6809D01*
X1096Y-6739D01*
X1123Y-6674D01*
X1144Y-6626D01*
X1161Y-6599D01*
X1166Y-6588D01*
X1225Y-6507D01*
X1290Y-6432D01*
X1355Y-6373D01*
X1419Y-6319D01*
X1479Y-6276D01*
X1527Y-6249D01*
X1560Y-6227D01*
X1565Y-6222D01*
X1570D01*
X1673Y-6173D01*
X1775Y-6141D01*
X1872Y-6114D01*
X1958Y-6098D01*
X2039Y-6087D01*
X2099Y-6081D01*
X2152D01*
X2233Y-6087D01*
D02*
G37*
G36*
X-11177D02*
X-11096Y-6092D01*
X-10951Y-6125D01*
X-10821Y-6162D01*
X-10708Y-6211D01*
X-10660Y-6238D01*
X-10616Y-6259D01*
X-10584Y-6286D01*
X-10552Y-6302D01*
X-10530Y-6319D01*
X-10514Y-6335D01*
X-10503Y-6340D01*
X-10498Y-6346D01*
X-10395Y-6453D01*
X-10309Y-6567D01*
X-10244Y-6690D01*
X-10191Y-6809D01*
X-10153Y-6917D01*
X-10137Y-6960D01*
X-10126Y-6998D01*
X-10121Y-7035D01*
X-10115Y-7057D01*
X-10110Y-7073D01*
Y-7079D01*
X-10579Y-7165D01*
X-10600Y-7041D01*
X-10638Y-6938D01*
X-10676Y-6847D01*
X-10713Y-6777D01*
X-10751Y-6718D01*
X-10784Y-6680D01*
X-10805Y-6653D01*
X-10810Y-6647D01*
X-10881Y-6588D01*
X-10961Y-6545D01*
X-11037Y-6513D01*
X-11107Y-6491D01*
X-11172Y-6480D01*
X-11225Y-6470D01*
X-11269D01*
X-11366Y-6475D01*
X-11457Y-6497D01*
X-11533Y-6523D01*
X-11597Y-6556D01*
X-11651Y-6588D01*
X-11689Y-6615D01*
X-11716Y-6637D01*
X-11721Y-6642D01*
X-11781Y-6712D01*
X-11824Y-6782D01*
X-11856Y-6852D01*
X-11878Y-6922D01*
X-11889Y-6982D01*
X-11899Y-7030D01*
Y-7062D01*
Y-7068D01*
Y-7073D01*
Y-7132D01*
X-11889Y-7186D01*
X-11862Y-7283D01*
X-11824Y-7364D01*
X-11781Y-7434D01*
X-11732Y-7488D01*
X-11694Y-7521D01*
X-11667Y-7547D01*
X-11662Y-7553D01*
X-11657D01*
X-11565Y-7607D01*
X-11468Y-7645D01*
X-11376Y-7671D01*
X-11296Y-7688D01*
X-11220Y-7699D01*
X-11161Y-7709D01*
X-11091D01*
X-11064Y-7704D01*
X-11037D01*
X-10983Y-8119D01*
X-11053Y-8103D01*
X-11118Y-8092D01*
X-11177Y-8081D01*
X-11225Y-8076D01*
X-11263Y-8070D01*
X-11317D01*
X-11436Y-8081D01*
X-11538Y-8103D01*
X-11630Y-8135D01*
X-11711Y-8173D01*
X-11770Y-8216D01*
X-11818Y-8248D01*
X-11845Y-8270D01*
X-11856Y-8281D01*
X-11926Y-8361D01*
X-11980Y-8453D01*
X-12018Y-8539D01*
X-12045Y-8625D01*
X-12061Y-8701D01*
X-12066Y-8760D01*
X-12072Y-8782D01*
Y-8798D01*
Y-8809D01*
Y-8814D01*
Y-8879D01*
X-12061Y-8938D01*
X-12034Y-9046D01*
X-11996Y-9143D01*
X-11958Y-9229D01*
X-11915Y-9294D01*
X-11878Y-9342D01*
X-11851Y-9375D01*
X-11845Y-9380D01*
X-11840Y-9386D01*
X-11754Y-9461D01*
X-11657Y-9515D01*
X-11565Y-9558D01*
X-11473Y-9585D01*
X-11398Y-9601D01*
X-11333Y-9606D01*
X-11312Y-9612D01*
X-11279D01*
X-11177Y-9606D01*
X-11085Y-9585D01*
X-11005Y-9558D01*
X-10934Y-9520D01*
X-10875Y-9488D01*
X-10832Y-9461D01*
X-10810Y-9439D01*
X-10800Y-9434D01*
X-10735Y-9359D01*
X-10676Y-9267D01*
X-10633Y-9170D01*
X-10595Y-9078D01*
X-10568Y-8987D01*
X-10557Y-8949D01*
X-10546Y-8917D01*
X-10541Y-8890D01*
X-10536Y-8868D01*
X-10530Y-8857D01*
Y-8852D01*
X-10061Y-8917D01*
X-10072Y-9003D01*
X-10088Y-9089D01*
X-10137Y-9245D01*
X-10201Y-9380D01*
X-10234Y-9439D01*
X-10266Y-9493D01*
X-10298Y-9542D01*
X-10331Y-9585D01*
X-10358Y-9617D01*
X-10385Y-9650D01*
X-10406Y-9671D01*
X-10422Y-9687D01*
X-10433Y-9698D01*
X-10439Y-9703D01*
X-10503Y-9758D01*
X-10573Y-9801D01*
X-10638Y-9838D01*
X-10713Y-9876D01*
X-10854Y-9930D01*
X-10983Y-9962D01*
X-11048Y-9973D01*
X-11101Y-9984D01*
X-11150Y-9989D01*
X-11193Y-9995D01*
X-11231Y-10000D01*
X-11279D01*
X-11382Y-9995D01*
X-11479Y-9984D01*
X-11576Y-9968D01*
X-11662Y-9946D01*
X-11743Y-9919D01*
X-11818Y-9892D01*
X-11889Y-9860D01*
X-11953Y-9827D01*
X-12012Y-9795D01*
X-12061Y-9763D01*
X-12104Y-9736D01*
X-12142Y-9709D01*
X-12169Y-9687D01*
X-12190Y-9671D01*
X-12201Y-9660D01*
X-12207Y-9655D01*
X-12271Y-9585D01*
X-12325Y-9520D01*
X-12379Y-9445D01*
X-12417Y-9375D01*
X-12454Y-9305D01*
X-12481Y-9229D01*
X-12530Y-9100D01*
X-12541Y-9035D01*
X-12551Y-8981D01*
X-12562Y-8933D01*
X-12568Y-8890D01*
X-12573Y-8852D01*
Y-8825D01*
Y-8809D01*
Y-8803D01*
X-12568Y-8669D01*
X-12546Y-8550D01*
X-12514Y-8442D01*
X-12481Y-8356D01*
X-12444Y-8281D01*
X-12417Y-8227D01*
X-12400Y-8211D01*
X-12395Y-8194D01*
X-12384Y-8189D01*
Y-8184D01*
X-12309Y-8097D01*
X-12223Y-8027D01*
X-12131Y-7973D01*
X-12045Y-7930D01*
X-11969Y-7898D01*
X-11910Y-7876D01*
X-11883Y-7871D01*
X-11867Y-7866D01*
X-11856Y-7860D01*
X-11851D01*
X-11942Y-7812D01*
X-12023Y-7758D01*
X-12093Y-7704D01*
X-12147Y-7650D01*
X-12196Y-7607D01*
X-12223Y-7569D01*
X-12244Y-7547D01*
X-12250Y-7537D01*
X-12293Y-7456D01*
X-12325Y-7380D01*
X-12352Y-7305D01*
X-12368Y-7235D01*
X-12379Y-7176D01*
X-12384Y-7127D01*
Y-7095D01*
Y-7084D01*
X-12379Y-6987D01*
X-12363Y-6895D01*
X-12341Y-6809D01*
X-12314Y-6739D01*
X-12287Y-6674D01*
X-12266Y-6626D01*
X-12250Y-6599D01*
X-12244Y-6588D01*
X-12185Y-6507D01*
X-12120Y-6432D01*
X-12056Y-6373D01*
X-11991Y-6319D01*
X-11932Y-6276D01*
X-11883Y-6249D01*
X-11851Y-6227D01*
X-11845Y-6222D01*
X-11840D01*
X-11738Y-6173D01*
X-11635Y-6141D01*
X-11538Y-6114D01*
X-11452Y-6098D01*
X-11371Y-6087D01*
X-11312Y-6081D01*
X-11258D01*
X-11177Y-6087D01*
D02*
G37*
G36*
X-2283D02*
X-2192Y-6092D01*
X-2100Y-6108D01*
X-2019Y-6125D01*
X-1939Y-6146D01*
X-1869Y-6173D01*
X-1804Y-6200D01*
X-1744Y-6222D01*
X-1691Y-6249D01*
X-1642Y-6276D01*
X-1604Y-6302D01*
X-1572Y-6324D01*
X-1545Y-6340D01*
X-1529Y-6356D01*
X-1518Y-6362D01*
X-1513Y-6367D01*
X-1453Y-6421D01*
X-1405Y-6486D01*
X-1356Y-6550D01*
X-1319Y-6615D01*
X-1254Y-6755D01*
X-1206Y-6885D01*
X-1189Y-6949D01*
X-1173Y-7008D01*
X-1162Y-7057D01*
X-1152Y-7106D01*
X-1146Y-7138D01*
Y-7170D01*
X-1141Y-7186D01*
Y-7192D01*
X-1626Y-7240D01*
X-1637Y-7111D01*
X-1658Y-6998D01*
X-1691Y-6901D01*
X-1728Y-6820D01*
X-1766Y-6761D01*
X-1798Y-6712D01*
X-1820Y-6685D01*
X-1831Y-6674D01*
X-1912Y-6604D01*
X-2003Y-6556D01*
X-2095Y-6518D01*
X-2181Y-6497D01*
X-2257Y-6480D01*
X-2321Y-6475D01*
X-2343Y-6470D01*
X-2375D01*
X-2488Y-6480D01*
X-2596Y-6502D01*
X-2682Y-6529D01*
X-2758Y-6567D01*
X-2817Y-6604D01*
X-2860Y-6631D01*
X-2887Y-6653D01*
X-2898Y-6664D01*
X-2968Y-6739D01*
X-3016Y-6820D01*
X-3054Y-6901D01*
X-3076Y-6971D01*
X-3092Y-7041D01*
X-3097Y-7089D01*
X-3103Y-7111D01*
Y-7127D01*
Y-7132D01*
Y-7138D01*
X-3092Y-7240D01*
X-3065Y-7343D01*
X-3033Y-7434D01*
X-2990Y-7526D01*
X-2946Y-7601D01*
X-2914Y-7655D01*
X-2898Y-7677D01*
X-2887Y-7693D01*
X-2882Y-7704D01*
X-2876Y-7709D01*
X-2833Y-7768D01*
X-2779Y-7828D01*
X-2715Y-7892D01*
X-2650Y-7963D01*
X-2510Y-8097D01*
X-2370Y-8227D01*
X-2305Y-8286D01*
X-2240Y-8340D01*
X-2181Y-8388D01*
X-2133Y-8432D01*
X-2090Y-8469D01*
X-2057Y-8496D01*
X-2036Y-8512D01*
X-2030Y-8518D01*
X-1890Y-8636D01*
X-1766Y-8749D01*
X-1658Y-8846D01*
X-1572Y-8933D01*
X-1507Y-9003D01*
X-1453Y-9057D01*
X-1437Y-9073D01*
X-1426Y-9089D01*
X-1416Y-9094D01*
Y-9100D01*
X-1340Y-9191D01*
X-1276Y-9283D01*
X-1222Y-9369D01*
X-1179Y-9450D01*
X-1146Y-9515D01*
X-1119Y-9569D01*
X-1108Y-9601D01*
X-1103Y-9606D01*
Y-9612D01*
X-1082Y-9671D01*
X-1071Y-9730D01*
X-1060Y-9784D01*
X-1055Y-9833D01*
X-1049Y-9876D01*
Y-9908D01*
Y-9930D01*
Y-9935D01*
X-3593D01*
Y-9483D01*
X-1707D01*
X-1771Y-9391D01*
X-1804Y-9348D01*
X-1831Y-9310D01*
X-1858Y-9278D01*
X-1879Y-9256D01*
X-1895Y-9240D01*
X-1901Y-9235D01*
X-1928Y-9208D01*
X-1960Y-9175D01*
X-2041Y-9105D01*
X-2127Y-9024D01*
X-2224Y-8938D01*
X-2310Y-8863D01*
X-2348Y-8830D01*
X-2380Y-8803D01*
X-2413Y-8777D01*
X-2434Y-8760D01*
X-2445Y-8749D01*
X-2451Y-8744D01*
X-2542Y-8669D01*
X-2629Y-8593D01*
X-2704Y-8523D01*
X-2779Y-8459D01*
X-2844Y-8399D01*
X-2903Y-8345D01*
X-2957Y-8291D01*
X-3000Y-8248D01*
X-3043Y-8205D01*
X-3076Y-8173D01*
X-3108Y-8140D01*
X-3130Y-8113D01*
X-3151Y-8097D01*
X-3162Y-8081D01*
X-3173Y-8076D01*
Y-8070D01*
X-3248Y-7979D01*
X-3318Y-7892D01*
X-3372Y-7812D01*
X-3415Y-7742D01*
X-3448Y-7682D01*
X-3475Y-7639D01*
X-3486Y-7612D01*
X-3491Y-7601D01*
X-3523Y-7521D01*
X-3545Y-7440D01*
X-3566Y-7359D01*
X-3577Y-7294D01*
X-3582Y-7235D01*
X-3588Y-7186D01*
Y-7159D01*
Y-7149D01*
X-3582Y-7068D01*
X-3572Y-6987D01*
X-3556Y-6911D01*
X-3539Y-6836D01*
X-3486Y-6707D01*
X-3426Y-6599D01*
X-3394Y-6550D01*
X-3367Y-6507D01*
X-3340Y-6475D01*
X-3313Y-6443D01*
X-3297Y-6421D01*
X-3281Y-6405D01*
X-3270Y-6394D01*
X-3264Y-6389D01*
X-3200Y-6335D01*
X-3135Y-6286D01*
X-3065Y-6249D01*
X-2990Y-6211D01*
X-2919Y-6179D01*
X-2844Y-6157D01*
X-2704Y-6119D01*
X-2639Y-6108D01*
X-2580Y-6098D01*
X-2526Y-6092D01*
X-2478Y-6087D01*
X-2440Y-6081D01*
X-2386D01*
X-2283Y-6087D01*
D02*
G37*
G36*
X-8245D02*
X-8153Y-6092D01*
X-8062Y-6108D01*
X-7981Y-6125D01*
X-7900Y-6146D01*
X-7830Y-6173D01*
X-7765Y-6200D01*
X-7706Y-6222D01*
X-7652Y-6249D01*
X-7603Y-6276D01*
X-7566Y-6302D01*
X-7533Y-6324D01*
X-7506Y-6340D01*
X-7490Y-6356D01*
X-7480Y-6362D01*
X-7474Y-6367D01*
X-7415Y-6421D01*
X-7366Y-6486D01*
X-7318Y-6550D01*
X-7280Y-6615D01*
X-7215Y-6755D01*
X-7167Y-6885D01*
X-7151Y-6949D01*
X-7135Y-7008D01*
X-7124Y-7057D01*
X-7113Y-7106D01*
X-7108Y-7138D01*
Y-7170D01*
X-7102Y-7186D01*
Y-7192D01*
X-7587Y-7240D01*
X-7598Y-7111D01*
X-7620Y-6998D01*
X-7652Y-6901D01*
X-7690Y-6820D01*
X-7727Y-6761D01*
X-7760Y-6712D01*
X-7781Y-6685D01*
X-7792Y-6674D01*
X-7873Y-6604D01*
X-7965Y-6556D01*
X-8056Y-6518D01*
X-8142Y-6497D01*
X-8218Y-6480D01*
X-8283Y-6475D01*
X-8304Y-6470D01*
X-8337D01*
X-8450Y-6480D01*
X-8557Y-6502D01*
X-8644Y-6529D01*
X-8719Y-6567D01*
X-8778Y-6604D01*
X-8822Y-6631D01*
X-8849Y-6653D01*
X-8859Y-6664D01*
X-8929Y-6739D01*
X-8978Y-6820D01*
X-9016Y-6901D01*
X-9037Y-6971D01*
X-9053Y-7041D01*
X-9059Y-7089D01*
X-9064Y-7111D01*
Y-7127D01*
Y-7132D01*
Y-7138D01*
X-9053Y-7240D01*
X-9026Y-7343D01*
X-8994Y-7434D01*
X-8951Y-7526D01*
X-8908Y-7601D01*
X-8875Y-7655D01*
X-8859Y-7677D01*
X-8849Y-7693D01*
X-8843Y-7704D01*
X-8838Y-7709D01*
X-8795Y-7768D01*
X-8741Y-7828D01*
X-8676Y-7892D01*
X-8611Y-7963D01*
X-8471Y-8097D01*
X-8331Y-8227D01*
X-8266Y-8286D01*
X-8202Y-8340D01*
X-8142Y-8388D01*
X-8094Y-8432D01*
X-8051Y-8469D01*
X-8019Y-8496D01*
X-7997Y-8512D01*
X-7992Y-8518D01*
X-7851Y-8636D01*
X-7727Y-8749D01*
X-7620Y-8846D01*
X-7533Y-8933D01*
X-7469Y-9003D01*
X-7415Y-9057D01*
X-7399Y-9073D01*
X-7388Y-9089D01*
X-7377Y-9094D01*
Y-9100D01*
X-7302Y-9191D01*
X-7237Y-9283D01*
X-7183Y-9369D01*
X-7140Y-9450D01*
X-7108Y-9515D01*
X-7081Y-9569D01*
X-7070Y-9601D01*
X-7064Y-9606D01*
Y-9612D01*
X-7043Y-9671D01*
X-7032Y-9730D01*
X-7021Y-9784D01*
X-7016Y-9833D01*
X-7011Y-9876D01*
Y-9908D01*
Y-9930D01*
Y-9935D01*
X-9555D01*
Y-9483D01*
X-7668D01*
X-7733Y-9391D01*
X-7765Y-9348D01*
X-7792Y-9310D01*
X-7819Y-9278D01*
X-7841Y-9256D01*
X-7857Y-9240D01*
X-7862Y-9235D01*
X-7889Y-9208D01*
X-7921Y-9175D01*
X-8002Y-9105D01*
X-8089Y-9024D01*
X-8186Y-8938D01*
X-8272Y-8863D01*
X-8309Y-8830D01*
X-8342Y-8803D01*
X-8374Y-8777D01*
X-8396Y-8760D01*
X-8406Y-8749D01*
X-8412Y-8744D01*
X-8504Y-8669D01*
X-8590Y-8593D01*
X-8665Y-8523D01*
X-8741Y-8459D01*
X-8805Y-8399D01*
X-8865Y-8345D01*
X-8919Y-8291D01*
X-8962Y-8248D01*
X-9005Y-8205D01*
X-9037Y-8173D01*
X-9070Y-8140D01*
X-9091Y-8113D01*
X-9113Y-8097D01*
X-9123Y-8081D01*
X-9134Y-8076D01*
Y-8070D01*
X-9210Y-7979D01*
X-9280Y-7892D01*
X-9334Y-7812D01*
X-9377Y-7742D01*
X-9409Y-7682D01*
X-9436Y-7639D01*
X-9447Y-7612D01*
X-9452Y-7601D01*
X-9484Y-7521D01*
X-9506Y-7440D01*
X-9528Y-7359D01*
X-9538Y-7294D01*
X-9544Y-7235D01*
X-9549Y-7186D01*
Y-7159D01*
Y-7149D01*
X-9544Y-7068D01*
X-9533Y-6987D01*
X-9517Y-6911D01*
X-9501Y-6836D01*
X-9447Y-6707D01*
X-9387Y-6599D01*
X-9355Y-6550D01*
X-9328Y-6507D01*
X-9301Y-6475D01*
X-9274Y-6443D01*
X-9258Y-6421D01*
X-9242Y-6405D01*
X-9231Y-6394D01*
X-9226Y-6389D01*
X-9161Y-6335D01*
X-9097Y-6286D01*
X-9026Y-6249D01*
X-8951Y-6211D01*
X-8881Y-6179D01*
X-8805Y-6157D01*
X-8665Y-6119D01*
X-8601Y-6108D01*
X-8541Y-6098D01*
X-8487Y-6092D01*
X-8439Y-6087D01*
X-8401Y-6081D01*
X-8347D01*
X-8245Y-6087D01*
D02*
G37*
G36*
X10868Y-7100D02*
X10992Y-7122D01*
X11105Y-7149D01*
X11202Y-7181D01*
X11283Y-7213D01*
X11321Y-7230D01*
X11348Y-7240D01*
X11369Y-7251D01*
X11385Y-7262D01*
X11396Y-7267D01*
X11402D01*
X11509Y-7337D01*
X11601Y-7418D01*
X11677Y-7499D01*
X11741Y-7585D01*
X11790Y-7655D01*
X11828Y-7720D01*
X11838Y-7742D01*
X11849Y-7758D01*
X11855Y-7768D01*
Y-7774D01*
X11903Y-7903D01*
X11941Y-8038D01*
X11962Y-8167D01*
X11984Y-8291D01*
X11989Y-8345D01*
X11995Y-8394D01*
Y-8442D01*
X12000Y-8480D01*
Y-8512D01*
Y-8534D01*
Y-8550D01*
Y-8556D01*
X11995Y-8679D01*
X11984Y-8803D01*
X11968Y-8911D01*
X11946Y-9014D01*
X11919Y-9111D01*
X11892Y-9197D01*
X11860Y-9278D01*
X11828Y-9348D01*
X11795Y-9413D01*
X11763Y-9466D01*
X11736Y-9515D01*
X11709Y-9553D01*
X11687Y-9585D01*
X11671Y-9606D01*
X11660Y-9617D01*
X11655Y-9623D01*
X11590Y-9687D01*
X11515Y-9747D01*
X11445Y-9795D01*
X11364Y-9838D01*
X11288Y-9876D01*
X11213Y-9903D01*
X11138Y-9930D01*
X11067Y-9946D01*
X10998Y-9962D01*
X10938Y-9973D01*
X10884Y-9984D01*
X10836Y-9989D01*
X10793Y-9995D01*
X10739D01*
X10658Y-9989D01*
X10577Y-9984D01*
X10426Y-9951D01*
X10297Y-9908D01*
X10184Y-9860D01*
X10140Y-9838D01*
X10097Y-9811D01*
X10060Y-9790D01*
X10027Y-9774D01*
X10006Y-9752D01*
X9990Y-9741D01*
X9979Y-9736D01*
X9973Y-9730D01*
X9920Y-9677D01*
X9866Y-9623D01*
X9779Y-9499D01*
X9709Y-9375D01*
X9661Y-9256D01*
X9623Y-9148D01*
X9607Y-9100D01*
X9596Y-9062D01*
X9591Y-9030D01*
X9585Y-9003D01*
X9580Y-8987D01*
Y-8981D01*
X10043Y-8917D01*
X10070Y-9041D01*
X10103Y-9148D01*
X10146Y-9240D01*
X10184Y-9310D01*
X10221Y-9369D01*
X10254Y-9407D01*
X10275Y-9434D01*
X10286Y-9439D01*
X10356Y-9493D01*
X10437Y-9537D01*
X10512Y-9563D01*
X10582Y-9585D01*
X10647Y-9596D01*
X10696Y-9601D01*
X10733Y-9606D01*
X10744D01*
X10809Y-9601D01*
X10868Y-9596D01*
X10976Y-9569D01*
X11073Y-9526D01*
X11154Y-9483D01*
X11218Y-9439D01*
X11267Y-9396D01*
X11294Y-9369D01*
X11305Y-9359D01*
X11342Y-9310D01*
X11375Y-9251D01*
X11429Y-9127D01*
X11461Y-8992D01*
X11488Y-8857D01*
X11499Y-8793D01*
X11504Y-8733D01*
X11509Y-8685D01*
Y-8636D01*
X11515Y-8599D01*
Y-8572D01*
Y-8550D01*
Y-8545D01*
Y-8442D01*
X11504Y-8351D01*
X11493Y-8264D01*
X11483Y-8189D01*
X11461Y-8113D01*
X11445Y-8049D01*
X11423Y-7989D01*
X11402Y-7936D01*
X11385Y-7892D01*
X11364Y-7849D01*
X11342Y-7817D01*
X11326Y-7790D01*
X11315Y-7768D01*
X11305Y-7752D01*
X11294Y-7747D01*
Y-7742D01*
X11251Y-7699D01*
X11208Y-7655D01*
X11111Y-7591D01*
X11014Y-7547D01*
X10922Y-7515D01*
X10841Y-7494D01*
X10809Y-7488D01*
X10776D01*
X10750Y-7483D01*
X10717D01*
X10631Y-7488D01*
X10555Y-7504D01*
X10485Y-7531D01*
X10426Y-7553D01*
X10383Y-7580D01*
X10345Y-7607D01*
X10324Y-7623D01*
X10318Y-7628D01*
X10259Y-7688D01*
X10210Y-7752D01*
X10167Y-7822D01*
X10135Y-7887D01*
X10114Y-7946D01*
X10092Y-8000D01*
X10086Y-8033D01*
X10081Y-8038D01*
Y-8043D01*
X9623Y-7973D01*
X9666Y-7822D01*
X9715Y-7693D01*
X9779Y-7585D01*
X9839Y-7494D01*
X9898Y-7418D01*
X9946Y-7370D01*
X9984Y-7337D01*
X9990Y-7327D01*
X9995D01*
X10049Y-7283D01*
X10108Y-7251D01*
X10232Y-7192D01*
X10356Y-7149D01*
X10469Y-7122D01*
X10577Y-7106D01*
X10620Y-7100D01*
X10658D01*
X10690Y-7095D01*
X10733D01*
X10868Y-7100D01*
D02*
G37*
G36*
X5235Y-6092D02*
X5370Y-6119D01*
X5489Y-6151D01*
X5591Y-6195D01*
X5672Y-6238D01*
X5710Y-6254D01*
X5737Y-6270D01*
X5758Y-6286D01*
X5774Y-6297D01*
X5780Y-6302D01*
X5785Y-6308D01*
X5882Y-6400D01*
X5969Y-6502D01*
X6039Y-6610D01*
X6098Y-6712D01*
X6141Y-6804D01*
X6157Y-6847D01*
X6173Y-6879D01*
X6184Y-6911D01*
X6195Y-6933D01*
X6200Y-6944D01*
Y-6949D01*
X6222Y-7030D01*
X6244Y-7116D01*
X6276Y-7294D01*
X6303Y-7478D01*
X6319Y-7650D01*
X6324Y-7731D01*
X6330Y-7806D01*
Y-7871D01*
X6335Y-7930D01*
Y-7979D01*
Y-8011D01*
Y-8038D01*
Y-8043D01*
X6330Y-8237D01*
X6319Y-8421D01*
X6303Y-8588D01*
X6276Y-8744D01*
X6249Y-8884D01*
X6216Y-9014D01*
X6179Y-9127D01*
X6146Y-9229D01*
X6109Y-9321D01*
X6076Y-9396D01*
X6044Y-9461D01*
X6017Y-9515D01*
X5990Y-9553D01*
X5974Y-9585D01*
X5963Y-9601D01*
X5958Y-9606D01*
X5893Y-9677D01*
X5829Y-9736D01*
X5758Y-9790D01*
X5688Y-9833D01*
X5613Y-9871D01*
X5543Y-9903D01*
X5473Y-9930D01*
X5403Y-9951D01*
X5338Y-9968D01*
X5279Y-9978D01*
X5225Y-9989D01*
X5176Y-9995D01*
X5139D01*
X5112Y-10000D01*
X5085D01*
X4934Y-9989D01*
X4799Y-9968D01*
X4680Y-9930D01*
X4578Y-9887D01*
X4497Y-9849D01*
X4465Y-9827D01*
X4438Y-9811D01*
X4416Y-9801D01*
X4400Y-9790D01*
X4395Y-9779D01*
X4389D01*
X4292Y-9687D01*
X4206Y-9585D01*
X4136Y-9477D01*
X4077Y-9375D01*
X4034Y-9283D01*
X4017Y-9240D01*
X4001Y-9208D01*
X3991Y-9175D01*
X3980Y-9154D01*
X3974Y-9143D01*
Y-9138D01*
X3947Y-9057D01*
X3926Y-8970D01*
X3893Y-8793D01*
X3867Y-8609D01*
X3850Y-8437D01*
X3845Y-8356D01*
X3839Y-8281D01*
Y-8216D01*
X3834Y-8157D01*
Y-8108D01*
Y-8076D01*
Y-8049D01*
Y-8043D01*
Y-7941D01*
X3839Y-7839D01*
X3845Y-7747D01*
X3850Y-7661D01*
X3856Y-7580D01*
X3861Y-7504D01*
X3872Y-7440D01*
X3877Y-7375D01*
X3888Y-7321D01*
X3899Y-7273D01*
X3904Y-7235D01*
X3910Y-7197D01*
X3915Y-7170D01*
X3920Y-7154D01*
X3926Y-7143D01*
Y-7138D01*
X3958Y-7019D01*
X4001Y-6906D01*
X4039Y-6809D01*
X4077Y-6728D01*
X4109Y-6664D01*
X4136Y-6615D01*
X4157Y-6583D01*
X4163Y-6572D01*
X4222Y-6486D01*
X4281Y-6416D01*
X4346Y-6351D01*
X4411Y-6302D01*
X4465Y-6265D01*
X4508Y-6232D01*
X4535Y-6216D01*
X4540Y-6211D01*
X4546D01*
X4637Y-6168D01*
X4729Y-6135D01*
X4820Y-6114D01*
X4901Y-6098D01*
X4977Y-6087D01*
X5031Y-6081D01*
X5085D01*
X5235Y-6092D01*
D02*
G37*
G36*
X595Y-10000D02*
X218D01*
X-893Y-6033D01*
X-516D01*
X595Y-10000D01*
D02*
G37*
G36*
X-5194Y-6092D02*
X-5059Y-6119D01*
X-4941Y-6151D01*
X-4838Y-6195D01*
X-4758Y-6238D01*
X-4720Y-6254D01*
X-4693Y-6270D01*
X-4671Y-6286D01*
X-4655Y-6297D01*
X-4650Y-6302D01*
X-4644Y-6308D01*
X-4547Y-6400D01*
X-4461Y-6502D01*
X-4391Y-6610D01*
X-4332Y-6712D01*
X-4289Y-6804D01*
X-4272Y-6847D01*
X-4256Y-6879D01*
X-4245Y-6911D01*
X-4235Y-6933D01*
X-4229Y-6944D01*
Y-6949D01*
X-4208Y-7030D01*
X-4186Y-7116D01*
X-4154Y-7294D01*
X-4127Y-7478D01*
X-4111Y-7650D01*
X-4105Y-7731D01*
X-4100Y-7806D01*
Y-7871D01*
X-4095Y-7930D01*
Y-7979D01*
Y-8011D01*
Y-8038D01*
Y-8043D01*
X-4100Y-8237D01*
X-4111Y-8421D01*
X-4127Y-8588D01*
X-4154Y-8744D01*
X-4181Y-8884D01*
X-4213Y-9014D01*
X-4251Y-9127D01*
X-4283Y-9229D01*
X-4321Y-9321D01*
X-4353Y-9396D01*
X-4386Y-9461D01*
X-4413Y-9515D01*
X-4439Y-9553D01*
X-4456Y-9585D01*
X-4466Y-9601D01*
X-4472Y-9606D01*
X-4536Y-9677D01*
X-4601Y-9736D01*
X-4671Y-9790D01*
X-4741Y-9833D01*
X-4817Y-9871D01*
X-4887Y-9903D01*
X-4957Y-9930D01*
X-5027Y-9951D01*
X-5092Y-9968D01*
X-5151Y-9978D01*
X-5205Y-9989D01*
X-5253Y-9995D01*
X-5291D01*
X-5318Y-10000D01*
X-5345D01*
X-5496Y-9989D01*
X-5631Y-9968D01*
X-5749Y-9930D01*
X-5852Y-9887D01*
X-5932Y-9849D01*
X-5965Y-9827D01*
X-5992Y-9811D01*
X-6013Y-9801D01*
X-6030Y-9790D01*
X-6035Y-9779D01*
X-6040D01*
X-6137Y-9687D01*
X-6224Y-9585D01*
X-6294Y-9477D01*
X-6353Y-9375D01*
X-6396Y-9283D01*
X-6412Y-9240D01*
X-6428Y-9208D01*
X-6439Y-9175D01*
X-6450Y-9154D01*
X-6455Y-9143D01*
Y-9138D01*
X-6482Y-9057D01*
X-6504Y-8970D01*
X-6536Y-8793D01*
X-6563Y-8609D01*
X-6579Y-8437D01*
X-6585Y-8356D01*
X-6590Y-8281D01*
Y-8216D01*
X-6595Y-8157D01*
Y-8108D01*
Y-8076D01*
Y-8049D01*
Y-8043D01*
Y-7941D01*
X-6590Y-7839D01*
X-6585Y-7747D01*
X-6579Y-7661D01*
X-6574Y-7580D01*
X-6569Y-7504D01*
X-6558Y-7440D01*
X-6552Y-7375D01*
X-6542Y-7321D01*
X-6531Y-7273D01*
X-6525Y-7235D01*
X-6520Y-7197D01*
X-6515Y-7170D01*
X-6509Y-7154D01*
X-6504Y-7143D01*
Y-7138D01*
X-6471Y-7019D01*
X-6428Y-6906D01*
X-6391Y-6809D01*
X-6353Y-6728D01*
X-6321Y-6664D01*
X-6294Y-6615D01*
X-6272Y-6583D01*
X-6267Y-6572D01*
X-6207Y-6486D01*
X-6148Y-6416D01*
X-6083Y-6351D01*
X-6019Y-6302D01*
X-5965Y-6265D01*
X-5922Y-6232D01*
X-5895Y-6216D01*
X-5889Y-6211D01*
X-5884D01*
X-5792Y-6168D01*
X-5701Y-6135D01*
X-5609Y-6114D01*
X-5528Y-6098D01*
X-5453Y-6087D01*
X-5399Y-6081D01*
X-5345D01*
X-5194Y-6092D01*
D02*
G37*
G36*
X-2219Y-2204D02*
X-2070Y-2227D01*
X-1940Y-2258D01*
X-1882Y-2272D01*
X-1823Y-2290D01*
X-1774Y-2308D01*
X-1729Y-2326D01*
X-1689Y-2344D01*
X-1657Y-2357D01*
X-1630Y-2371D01*
X-1612Y-2379D01*
X-1599Y-2384D01*
X-1595Y-2388D01*
X-1469Y-2469D01*
X-1361Y-2559D01*
X-1267Y-2653D01*
X-1190Y-2743D01*
X-1132Y-2824D01*
X-1105Y-2860D01*
X-1087Y-2891D01*
X-1074Y-2918D01*
X-1060Y-2936D01*
X-1056Y-2950D01*
X-1051Y-2954D01*
X-988Y-3098D01*
X-943Y-3246D01*
X-908Y-3394D01*
X-885Y-3529D01*
X-881Y-3592D01*
X-872Y-3646D01*
X-867Y-3700D01*
Y-3740D01*
X-863Y-3776D01*
Y-3803D01*
Y-3821D01*
Y-3825D01*
X-872Y-3991D01*
X-890Y-4153D01*
X-917Y-4297D01*
X-930Y-4364D01*
X-948Y-4427D01*
X-961Y-4481D01*
X-975Y-4530D01*
X-988Y-4575D01*
X-1002Y-4611D01*
X-1015Y-4642D01*
X-1020Y-4665D01*
X-1029Y-4678D01*
Y-4683D01*
X-1101Y-4822D01*
X-1137Y-4889D01*
X-1177Y-4948D01*
X-1217Y-5002D01*
X-1262Y-5051D01*
X-1303Y-5096D01*
X-1339Y-5136D01*
X-1379Y-5172D01*
X-1410Y-5204D01*
X-1442Y-5231D01*
X-1469Y-5253D01*
X-1491Y-5271D01*
X-1509Y-5285D01*
X-1518Y-5289D01*
X-1523Y-5294D01*
X-1586Y-5329D01*
X-1653Y-5361D01*
X-1792Y-5415D01*
X-1931Y-5451D01*
X-2066Y-5473D01*
X-2124Y-5482D01*
X-2183Y-5491D01*
X-2232Y-5495D01*
X-2277D01*
X-2313Y-5500D01*
X-2362D01*
X-2457Y-5495D01*
X-2542Y-5486D01*
X-2627Y-5473D01*
X-2708Y-5460D01*
X-2780Y-5437D01*
X-2852Y-5415D01*
X-2915Y-5392D01*
X-2977Y-5365D01*
X-3027Y-5338D01*
X-3076Y-5316D01*
X-3117Y-5294D01*
X-3148Y-5271D01*
X-3175Y-5257D01*
X-3198Y-5244D01*
X-3207Y-5235D01*
X-3211Y-5231D01*
X-3274Y-5177D01*
X-3332Y-5118D01*
X-3382Y-5055D01*
X-3431Y-4988D01*
X-3476Y-4925D01*
X-3516Y-4858D01*
X-3579Y-4728D01*
X-3606Y-4669D01*
X-3629Y-4611D01*
X-3651Y-4562D01*
X-3664Y-4517D01*
X-3678Y-4481D01*
X-3687Y-4454D01*
X-3691Y-4436D01*
Y-4431D01*
X-3269Y-4328D01*
X-3251Y-4400D01*
X-3229Y-4467D01*
X-3207Y-4530D01*
X-3179Y-4593D01*
X-3153Y-4647D01*
X-3126Y-4696D01*
X-3094Y-4741D01*
X-3067Y-4782D01*
X-3040Y-4817D01*
X-3013Y-4849D01*
X-2991Y-4876D01*
X-2973Y-4894D01*
X-2955Y-4912D01*
X-2942Y-4925D01*
X-2937Y-4930D01*
X-2933Y-4934D01*
X-2883Y-4970D01*
X-2834Y-5002D01*
X-2735Y-5051D01*
X-2632Y-5087D01*
X-2537Y-5109D01*
X-2457Y-5127D01*
X-2421Y-5132D01*
X-2389D01*
X-2367Y-5136D01*
X-2331D01*
X-2223Y-5132D01*
X-2120Y-5114D01*
X-2026Y-5091D01*
X-1945Y-5060D01*
X-1877Y-5033D01*
X-1850Y-5024D01*
X-1828Y-5011D01*
X-1810Y-5002D01*
X-1797Y-4993D01*
X-1788Y-4988D01*
X-1783D01*
X-1698Y-4925D01*
X-1622Y-4853D01*
X-1559Y-4782D01*
X-1505Y-4705D01*
X-1464Y-4638D01*
X-1437Y-4584D01*
X-1428Y-4562D01*
X-1419Y-4548D01*
X-1415Y-4539D01*
Y-4535D01*
X-1374Y-4418D01*
X-1348Y-4297D01*
X-1325Y-4175D01*
X-1312Y-4063D01*
X-1307Y-4014D01*
X-1303Y-3969D01*
Y-3929D01*
X-1298Y-3893D01*
Y-3866D01*
Y-3843D01*
Y-3830D01*
Y-3825D01*
X-1303Y-3709D01*
X-1312Y-3596D01*
X-1330Y-3489D01*
X-1348Y-3399D01*
X-1357Y-3358D01*
X-1366Y-3322D01*
X-1374Y-3286D01*
X-1383Y-3260D01*
X-1388Y-3241D01*
X-1393Y-3224D01*
X-1397Y-3215D01*
Y-3210D01*
X-1442Y-3107D01*
X-1491Y-3012D01*
X-1550Y-2932D01*
X-1608Y-2864D01*
X-1657Y-2811D01*
X-1702Y-2770D01*
X-1720Y-2757D01*
X-1734Y-2748D01*
X-1738Y-2739D01*
X-1743D01*
X-1842Y-2680D01*
X-1945Y-2635D01*
X-2048Y-2604D01*
X-2147Y-2582D01*
X-2232Y-2568D01*
X-2268Y-2564D01*
X-2300D01*
X-2326Y-2559D01*
X-2362D01*
X-2475Y-2568D01*
X-2578Y-2586D01*
X-2672Y-2608D01*
X-2748Y-2640D01*
X-2807Y-2671D01*
X-2856Y-2694D01*
X-2870Y-2707D01*
X-2883Y-2712D01*
X-2888Y-2721D01*
X-2892D01*
X-2933Y-2752D01*
X-2968Y-2788D01*
X-3036Y-2864D01*
X-3090Y-2950D01*
X-3139Y-3035D01*
X-3175Y-3107D01*
X-3189Y-3143D01*
X-3198Y-3170D01*
X-3207Y-3197D01*
X-3215Y-3215D01*
X-3220Y-3224D01*
Y-3228D01*
X-3638Y-3129D01*
X-3610Y-3049D01*
X-3579Y-2972D01*
X-3548Y-2900D01*
X-3512Y-2833D01*
X-3476Y-2775D01*
X-3435Y-2716D01*
X-3399Y-2667D01*
X-3359Y-2617D01*
X-3323Y-2577D01*
X-3292Y-2541D01*
X-3260Y-2514D01*
X-3233Y-2487D01*
X-3211Y-2469D01*
X-3193Y-2451D01*
X-3184Y-2447D01*
X-3179Y-2442D01*
X-3117Y-2397D01*
X-3049Y-2362D01*
X-2982Y-2326D01*
X-2915Y-2299D01*
X-2780Y-2254D01*
X-2654Y-2227D01*
X-2596Y-2218D01*
X-2542Y-2209D01*
X-2492Y-2204D01*
X-2452Y-2200D01*
X-2416Y-2195D01*
X-2295D01*
X-2219Y-2204D01*
D02*
G37*
G36*
X4000Y-5446D02*
X2002D01*
Y-5069D01*
X3578D01*
Y-2249D01*
X4000D01*
Y-5446D01*
D02*
G37*
G36*
X1517D02*
X-481D01*
Y-5069D01*
X1095D01*
Y-2249D01*
X1517D01*
Y-5446D01*
D02*
G37*
G36*
X-5594Y-1946D02*
X-5998D01*
Y564D01*
X-7677Y-1946D01*
X-8113D01*
Y1251D01*
X-7709D01*
Y-1264D01*
X-6025Y1251D01*
X-5594D01*
Y-1946D01*
D02*
G37*
G36*
X5829Y1296D02*
X5977Y1273D01*
X6107Y1242D01*
X6165Y1228D01*
X6224Y1210D01*
X6273Y1192D01*
X6318Y1174D01*
X6358Y1156D01*
X6390Y1143D01*
X6417Y1130D01*
X6435Y1121D01*
X6448Y1116D01*
X6453Y1112D01*
X6578Y1031D01*
X6686Y941D01*
X6780Y847D01*
X6857Y757D01*
X6915Y676D01*
X6942Y640D01*
X6960Y609D01*
X6973Y582D01*
X6987Y564D01*
X6991Y550D01*
X6996Y546D01*
X7059Y402D01*
X7104Y254D01*
X7140Y106D01*
X7162Y-29D01*
X7167Y-92D01*
X7175Y-146D01*
X7180Y-200D01*
Y-240D01*
X7185Y-276D01*
Y-303D01*
Y-321D01*
Y-325D01*
X7175Y-491D01*
X7158Y-653D01*
X7131Y-797D01*
X7117Y-864D01*
X7099Y-927D01*
X7086Y-981D01*
X7072Y-1030D01*
X7059Y-1075D01*
X7045Y-1111D01*
X7032Y-1142D01*
X7027Y-1165D01*
X7018Y-1178D01*
Y-1183D01*
X6947Y-1322D01*
X6911Y-1389D01*
X6870Y-1448D01*
X6830Y-1502D01*
X6785Y-1551D01*
X6745Y-1596D01*
X6709Y-1636D01*
X6668Y-1672D01*
X6637Y-1704D01*
X6605Y-1731D01*
X6578Y-1753D01*
X6556Y-1771D01*
X6538Y-1784D01*
X6529Y-1789D01*
X6525Y-1794D01*
X6462Y-1829D01*
X6394Y-1861D01*
X6255Y-1915D01*
X6116Y-1951D01*
X5981Y-1973D01*
X5923Y-1982D01*
X5864Y-1991D01*
X5815Y-1995D01*
X5770D01*
X5734Y-2000D01*
X5685D01*
X5591Y-1995D01*
X5505Y-1987D01*
X5420Y-1973D01*
X5339Y-1960D01*
X5267Y-1937D01*
X5195Y-1915D01*
X5133Y-1892D01*
X5070Y-1865D01*
X5020Y-1838D01*
X4971Y-1816D01*
X4930Y-1794D01*
X4899Y-1771D01*
X4872Y-1757D01*
X4850Y-1744D01*
X4841Y-1735D01*
X4836Y-1731D01*
X4773Y-1677D01*
X4715Y-1618D01*
X4666Y-1555D01*
X4616Y-1488D01*
X4571Y-1425D01*
X4531Y-1358D01*
X4468Y-1228D01*
X4441Y-1169D01*
X4419Y-1111D01*
X4396Y-1062D01*
X4383Y-1017D01*
X4369Y-981D01*
X4360Y-954D01*
X4356Y-936D01*
Y-931D01*
X4778Y-828D01*
X4796Y-900D01*
X4818Y-967D01*
X4841Y-1030D01*
X4868Y-1093D01*
X4895Y-1147D01*
X4922Y-1196D01*
X4953Y-1241D01*
X4980Y-1282D01*
X5007Y-1318D01*
X5034Y-1349D01*
X5056Y-1376D01*
X5074Y-1394D01*
X5092Y-1412D01*
X5106Y-1425D01*
X5110Y-1430D01*
X5115Y-1434D01*
X5164Y-1470D01*
X5213Y-1502D01*
X5312Y-1551D01*
X5415Y-1587D01*
X5510Y-1609D01*
X5591Y-1627D01*
X5627Y-1632D01*
X5658D01*
X5680Y-1636D01*
X5716D01*
X5824Y-1632D01*
X5927Y-1614D01*
X6022Y-1591D01*
X6102Y-1560D01*
X6170Y-1533D01*
X6197Y-1524D01*
X6219Y-1511D01*
X6237Y-1502D01*
X6251Y-1493D01*
X6260Y-1488D01*
X6264D01*
X6349Y-1425D01*
X6426Y-1353D01*
X6489Y-1282D01*
X6542Y-1205D01*
X6583Y-1138D01*
X6610Y-1084D01*
X6619Y-1062D01*
X6628Y-1048D01*
X6632Y-1039D01*
Y-1035D01*
X6673Y-918D01*
X6700Y-797D01*
X6722Y-675D01*
X6735Y-563D01*
X6740Y-514D01*
X6745Y-469D01*
Y-428D01*
X6749Y-393D01*
Y-366D01*
Y-343D01*
Y-330D01*
Y-325D01*
X6745Y-209D01*
X6735Y-96D01*
X6718Y12D01*
X6700Y101D01*
X6691Y142D01*
X6682Y178D01*
X6673Y214D01*
X6664Y240D01*
X6659Y258D01*
X6655Y276D01*
X6650Y285D01*
Y290D01*
X6605Y393D01*
X6556Y488D01*
X6498Y568D01*
X6439Y636D01*
X6390Y690D01*
X6345Y730D01*
X6327Y743D01*
X6313Y752D01*
X6309Y761D01*
X6305D01*
X6206Y820D01*
X6102Y865D01*
X5999Y896D01*
X5900Y919D01*
X5815Y932D01*
X5779Y936D01*
X5748D01*
X5721Y941D01*
X5685D01*
X5573Y932D01*
X5469Y914D01*
X5375Y892D01*
X5299Y860D01*
X5240Y829D01*
X5191Y806D01*
X5178Y793D01*
X5164Y788D01*
X5159Y779D01*
X5155D01*
X5115Y748D01*
X5079Y712D01*
X5011Y636D01*
X4958Y550D01*
X4908Y465D01*
X4872Y393D01*
X4859Y357D01*
X4850Y330D01*
X4841Y303D01*
X4832Y285D01*
X4827Y276D01*
Y272D01*
X4410Y371D01*
X4437Y452D01*
X4468Y528D01*
X4499Y600D01*
X4535Y667D01*
X4571Y725D01*
X4612Y784D01*
X4648Y833D01*
X4688Y883D01*
X4724Y923D01*
X4755Y959D01*
X4787Y986D01*
X4814Y1013D01*
X4836Y1031D01*
X4854Y1049D01*
X4863Y1053D01*
X4868Y1058D01*
X4930Y1103D01*
X4998Y1139D01*
X5065Y1174D01*
X5133Y1201D01*
X5267Y1246D01*
X5393Y1273D01*
X5451Y1282D01*
X5505Y1291D01*
X5555Y1296D01*
X5595Y1300D01*
X5631Y1305D01*
X5752D01*
X5829Y1296D01*
D02*
G37*
G36*
X-11301D02*
X-11153Y1273D01*
X-11022Y1242D01*
X-10964Y1228D01*
X-10906Y1210D01*
X-10856Y1192D01*
X-10811Y1174D01*
X-10771Y1156D01*
X-10740Y1143D01*
X-10713Y1130D01*
X-10695Y1121D01*
X-10681Y1116D01*
X-10677Y1112D01*
X-10551Y1031D01*
X-10443Y941D01*
X-10349Y847D01*
X-10273Y757D01*
X-10214Y676D01*
X-10187Y640D01*
X-10169Y609D01*
X-10156Y582D01*
X-10142Y564D01*
X-10138Y550D01*
X-10133Y546D01*
X-10071Y402D01*
X-10026Y254D01*
X-9990Y106D01*
X-9967Y-29D01*
X-9963Y-92D01*
X-9954Y-146D01*
X-9949Y-200D01*
Y-240D01*
X-9945Y-276D01*
Y-303D01*
Y-321D01*
Y-325D01*
X-9954Y-491D01*
X-9972Y-653D01*
X-9999Y-797D01*
X-10012Y-864D01*
X-10030Y-927D01*
X-10044Y-981D01*
X-10057Y-1030D01*
X-10071Y-1075D01*
X-10084Y-1111D01*
X-10097Y-1142D01*
X-10102Y-1165D01*
X-10111Y-1178D01*
Y-1183D01*
X-10183Y-1322D01*
X-10219Y-1389D01*
X-10259Y-1448D01*
X-10300Y-1502D01*
X-10344Y-1551D01*
X-10385Y-1596D01*
X-10421Y-1636D01*
X-10461Y-1672D01*
X-10493Y-1704D01*
X-10524Y-1731D01*
X-10551Y-1753D01*
X-10573Y-1771D01*
X-10591Y-1784D01*
X-10600Y-1789D01*
X-10605Y-1794D01*
X-10668Y-1829D01*
X-10735Y-1861D01*
X-10874Y-1915D01*
X-11013Y-1951D01*
X-11148Y-1973D01*
X-11207Y-1982D01*
X-11265Y-1991D01*
X-11314Y-1995D01*
X-11359D01*
X-11395Y-2000D01*
X-11445D01*
X-11539Y-1995D01*
X-11624Y-1987D01*
X-11709Y-1973D01*
X-11790Y-1960D01*
X-11862Y-1937D01*
X-11934Y-1915D01*
X-11997Y-1892D01*
X-12060Y-1865D01*
X-12109Y-1838D01*
X-12158Y-1816D01*
X-12199Y-1794D01*
X-12230Y-1771D01*
X-12257Y-1757D01*
X-12280Y-1744D01*
X-12289Y-1735D01*
X-12293Y-1731D01*
X-12356Y-1677D01*
X-12414Y-1618D01*
X-12464Y-1555D01*
X-12513Y-1488D01*
X-12558Y-1425D01*
X-12598Y-1358D01*
X-12661Y-1228D01*
X-12688Y-1169D01*
X-12711Y-1111D01*
X-12733Y-1062D01*
X-12747Y-1017D01*
X-12760Y-981D01*
X-12769Y-954D01*
X-12774Y-936D01*
Y-931D01*
X-12352Y-828D01*
X-12333Y-900D01*
X-12311Y-967D01*
X-12289Y-1030D01*
X-12262Y-1093D01*
X-12235Y-1147D01*
X-12208Y-1196D01*
X-12176Y-1241D01*
X-12149Y-1282D01*
X-12122Y-1318D01*
X-12095Y-1349D01*
X-12073Y-1376D01*
X-12055Y-1394D01*
X-12037Y-1412D01*
X-12024Y-1425D01*
X-12019Y-1430D01*
X-12015Y-1434D01*
X-11965Y-1470D01*
X-11916Y-1502D01*
X-11817Y-1551D01*
X-11714Y-1587D01*
X-11620Y-1609D01*
X-11539Y-1627D01*
X-11503Y-1632D01*
X-11471D01*
X-11449Y-1636D01*
X-11413D01*
X-11305Y-1632D01*
X-11202Y-1614D01*
X-11108Y-1591D01*
X-11027Y-1560D01*
X-10960Y-1533D01*
X-10933Y-1524D01*
X-10910Y-1511D01*
X-10892Y-1502D01*
X-10879Y-1493D01*
X-10870Y-1488D01*
X-10865D01*
X-10780Y-1425D01*
X-10704Y-1353D01*
X-10641Y-1282D01*
X-10587Y-1205D01*
X-10547Y-1138D01*
X-10520Y-1084D01*
X-10511Y-1062D01*
X-10502Y-1048D01*
X-10497Y-1039D01*
Y-1035D01*
X-10457Y-918D01*
X-10430Y-797D01*
X-10407Y-675D01*
X-10394Y-563D01*
X-10389Y-514D01*
X-10385Y-469D01*
Y-428D01*
X-10380Y-393D01*
Y-366D01*
Y-343D01*
Y-330D01*
Y-325D01*
X-10385Y-209D01*
X-10394Y-96D01*
X-10412Y12D01*
X-10430Y101D01*
X-10439Y142D01*
X-10448Y178D01*
X-10457Y214D01*
X-10466Y240D01*
X-10470Y258D01*
X-10475Y276D01*
X-10479Y285D01*
Y290D01*
X-10524Y393D01*
X-10573Y488D01*
X-10632Y568D01*
X-10690Y636D01*
X-10740Y690D01*
X-10785Y730D01*
X-10802Y743D01*
X-10816Y752D01*
X-10820Y761D01*
X-10825D01*
X-10924Y820D01*
X-11027Y865D01*
X-11130Y896D01*
X-11229Y919D01*
X-11314Y932D01*
X-11350Y936D01*
X-11382D01*
X-11409Y941D01*
X-11445D01*
X-11557Y932D01*
X-11660Y914D01*
X-11754Y892D01*
X-11831Y860D01*
X-11889Y829D01*
X-11938Y806D01*
X-11952Y793D01*
X-11965Y788D01*
X-11970Y779D01*
X-11974D01*
X-12015Y748D01*
X-12051Y712D01*
X-12118Y636D01*
X-12172Y550D01*
X-12221Y465D01*
X-12257Y393D01*
X-12271Y357D01*
X-12280Y330D01*
X-12289Y303D01*
X-12298Y285D01*
X-12302Y276D01*
Y272D01*
X-12720Y371D01*
X-12693Y452D01*
X-12661Y528D01*
X-12630Y600D01*
X-12594Y667D01*
X-12558Y725D01*
X-12518Y784D01*
X-12482Y833D01*
X-12441Y883D01*
X-12405Y923D01*
X-12374Y959D01*
X-12342Y986D01*
X-12316Y1013D01*
X-12293Y1031D01*
X-12275Y1049D01*
X-12266Y1053D01*
X-12262Y1058D01*
X-12199Y1103D01*
X-12132Y1139D01*
X-12064Y1174D01*
X-11997Y1201D01*
X-11862Y1246D01*
X-11736Y1273D01*
X-11678Y1282D01*
X-11624Y1291D01*
X-11575Y1296D01*
X-11534Y1300D01*
X-11498Y1305D01*
X-11377D01*
X-11301Y1296D01*
D02*
G37*
G36*
X15500Y-1946D02*
X13111D01*
Y-1569D01*
X15078D01*
Y-482D01*
X13309D01*
Y-105D01*
X15078D01*
Y874D01*
X13188D01*
Y1251D01*
X15500D01*
Y-1946D01*
D02*
G37*
G36*
X12546D02*
X10548D01*
Y-1569D01*
X12123D01*
Y1251D01*
X12546D01*
Y-1946D01*
D02*
G37*
G36*
X10036D02*
X7647D01*
Y-1569D01*
X9614D01*
Y-482D01*
X7845D01*
Y-105D01*
X9614D01*
Y874D01*
X7723D01*
Y1251D01*
X10036D01*
Y-1946D01*
D02*
G37*
G36*
X4077Y874D02*
X3022D01*
Y-1946D01*
X2600D01*
Y874D01*
X1545D01*
Y1251D01*
X4077D01*
Y874D01*
D02*
G37*
G36*
X1101Y-1946D02*
X679D01*
Y-527D01*
X131D01*
X81Y-532D01*
X41D01*
X10Y-536D01*
X-17Y-541D01*
X-35D01*
X-44Y-545D01*
X-49D01*
X-116Y-568D01*
X-179Y-595D01*
X-201Y-608D01*
X-219Y-622D01*
X-233Y-626D01*
X-237Y-631D01*
X-273Y-658D01*
X-314Y-689D01*
X-350Y-725D01*
X-381Y-756D01*
X-413Y-792D01*
X-435Y-815D01*
X-448Y-833D01*
X-453Y-842D01*
X-502Y-904D01*
X-552Y-976D01*
X-606Y-1048D01*
X-655Y-1120D01*
X-695Y-1183D01*
X-731Y-1232D01*
X-745Y-1255D01*
X-754Y-1268D01*
X-763Y-1277D01*
Y-1282D01*
X-1185Y-1946D01*
X-1715D01*
X-1162Y-1080D01*
X-1099Y-990D01*
X-1037Y-904D01*
X-978Y-833D01*
X-924Y-770D01*
X-875Y-720D01*
X-839Y-684D01*
X-817Y-662D01*
X-808Y-653D01*
X-772Y-622D01*
X-731Y-595D01*
X-646Y-541D01*
X-610Y-523D01*
X-579Y-505D01*
X-561Y-496D01*
X-552Y-491D01*
X-637Y-478D01*
X-713Y-460D01*
X-785Y-442D01*
X-853Y-420D01*
X-915Y-393D01*
X-969Y-370D01*
X-1023Y-343D01*
X-1068Y-321D01*
X-1104Y-294D01*
X-1140Y-271D01*
X-1171Y-249D01*
X-1194Y-231D01*
X-1212Y-218D01*
X-1225Y-204D01*
X-1230Y-200D01*
X-1234Y-195D01*
X-1275Y-150D01*
X-1311Y-105D01*
X-1338Y-56D01*
X-1364Y-6D01*
X-1405Y88D01*
X-1432Y178D01*
X-1445Y258D01*
X-1454Y290D01*
Y321D01*
X-1459Y344D01*
Y362D01*
Y371D01*
Y375D01*
X-1454Y474D01*
X-1436Y564D01*
X-1418Y645D01*
X-1391Y716D01*
X-1369Y775D01*
X-1347Y820D01*
X-1338Y833D01*
X-1328Y847D01*
X-1324Y851D01*
Y856D01*
X-1270Y932D01*
X-1212Y995D01*
X-1153Y1049D01*
X-1095Y1089D01*
X-1041Y1121D01*
X-1001Y1143D01*
X-974Y1156D01*
X-969Y1161D01*
X-965D01*
X-920Y1179D01*
X-875Y1192D01*
X-772Y1215D01*
X-664Y1228D01*
X-556Y1242D01*
X-462Y1246D01*
X-422D01*
X-386Y1251D01*
X1101D01*
Y-1946D01*
D02*
G37*
G36*
X-8899D02*
X-9321D01*
Y1251D01*
X-8899D01*
Y-1946D01*
D02*
G37*
G36*
X-3398Y1300D02*
X-3277Y1287D01*
X-3169Y1264D01*
X-3062Y1233D01*
X-2967Y1201D01*
X-2878Y1161D01*
X-2792Y1121D01*
X-2716Y1080D01*
X-2649Y1035D01*
X-2590Y995D01*
X-2541Y954D01*
X-2496Y923D01*
X-2465Y892D01*
X-2437Y869D01*
X-2424Y856D01*
X-2420Y851D01*
X-2343Y761D01*
X-2280Y667D01*
X-2222Y568D01*
X-2173Y470D01*
X-2132Y362D01*
X-2096Y258D01*
X-2069Y160D01*
X-2047Y61D01*
X-2029Y-33D01*
X-2015Y-119D01*
X-2007Y-195D01*
X-2002Y-262D01*
X-1997Y-316D01*
X-1993Y-357D01*
Y-384D01*
Y-388D01*
Y-393D01*
X-2002Y-550D01*
X-2020Y-693D01*
X-2051Y-833D01*
X-2065Y-891D01*
X-2083Y-949D01*
X-2101Y-1003D01*
X-2114Y-1048D01*
X-2132Y-1093D01*
X-2146Y-1125D01*
X-2155Y-1156D01*
X-2164Y-1174D01*
X-2173Y-1187D01*
Y-1192D01*
X-2249Y-1322D01*
X-2334Y-1443D01*
X-2424Y-1542D01*
X-2509Y-1627D01*
X-2550Y-1663D01*
X-2590Y-1695D01*
X-2622Y-1722D01*
X-2653Y-1744D01*
X-2675Y-1762D01*
X-2698Y-1775D01*
X-2707Y-1780D01*
X-2711Y-1784D01*
X-2779Y-1820D01*
X-2846Y-1856D01*
X-2985Y-1910D01*
X-3125Y-1946D01*
X-3250Y-1973D01*
X-3304Y-1982D01*
X-3358Y-1987D01*
X-3403Y-1995D01*
X-3443D01*
X-3475Y-2000D01*
X-3520D01*
X-3596Y-1995D01*
X-3672Y-1991D01*
X-3816Y-1969D01*
X-3951Y-1937D01*
X-4009Y-1919D01*
X-4063Y-1901D01*
X-4117Y-1883D01*
X-4162Y-1870D01*
X-4202Y-1852D01*
X-4234Y-1838D01*
X-4261Y-1825D01*
X-4279Y-1816D01*
X-4292Y-1807D01*
X-4296D01*
X-4422Y-1726D01*
X-4534Y-1632D01*
X-4629Y-1538D01*
X-4710Y-1443D01*
X-4772Y-1358D01*
X-4795Y-1322D01*
X-4817Y-1291D01*
X-4831Y-1264D01*
X-4844Y-1246D01*
X-4853Y-1232D01*
Y-1228D01*
X-4889Y-1156D01*
X-4921Y-1080D01*
X-4965Y-927D01*
X-5001Y-783D01*
X-5015Y-711D01*
X-5028Y-648D01*
X-5033Y-586D01*
X-5042Y-532D01*
X-5046Y-482D01*
Y-438D01*
X-5051Y-406D01*
Y-379D01*
Y-361D01*
Y-357D01*
X-5042Y-181D01*
X-5019Y-20D01*
X-5006Y56D01*
X-4992Y124D01*
X-4974Y191D01*
X-4956Y254D01*
X-4939Y308D01*
X-4921Y357D01*
X-4907Y398D01*
X-4894Y434D01*
X-4880Y465D01*
X-4871Y483D01*
X-4867Y496D01*
X-4862Y501D01*
X-4786Y636D01*
X-4696Y752D01*
X-4606Y851D01*
X-4521Y936D01*
X-4481Y972D01*
X-4440Y1004D01*
X-4409Y1031D01*
X-4377Y1049D01*
X-4355Y1067D01*
X-4337Y1080D01*
X-4323Y1085D01*
X-4319Y1089D01*
X-4251Y1125D01*
X-4184Y1161D01*
X-4045Y1215D01*
X-3910Y1251D01*
X-3785Y1278D01*
X-3731Y1287D01*
X-3681Y1296D01*
X-3632Y1300D01*
X-3596D01*
X-3565Y1305D01*
X-3520D01*
X-3398Y1300D01*
D02*
G37*
G36*
X-14282D02*
X-14170Y1287D01*
X-14071Y1269D01*
X-13986Y1251D01*
X-13909Y1228D01*
X-13883Y1219D01*
X-13856Y1210D01*
X-13838Y1201D01*
X-13824Y1197D01*
X-13815Y1192D01*
X-13811D01*
X-13721Y1147D01*
X-13640Y1098D01*
X-13568Y1044D01*
X-13514Y995D01*
X-13469Y945D01*
X-13438Y910D01*
X-13416Y883D01*
X-13411Y878D01*
Y874D01*
X-13366Y793D01*
X-13335Y712D01*
X-13308Y636D01*
X-13294Y568D01*
X-13285Y510D01*
X-13281Y460D01*
X-13276Y443D01*
Y429D01*
Y425D01*
Y420D01*
X-13281Y339D01*
X-13294Y263D01*
X-13312Y196D01*
X-13335Y137D01*
X-13353Y88D01*
X-13371Y52D01*
X-13384Y30D01*
X-13389Y21D01*
X-13434Y-42D01*
X-13487Y-101D01*
X-13546Y-150D01*
X-13600Y-195D01*
X-13654Y-226D01*
X-13694Y-253D01*
X-13721Y-271D01*
X-13725Y-276D01*
X-13730D01*
X-13766Y-294D01*
X-13806Y-312D01*
X-13901Y-348D01*
X-14004Y-379D01*
X-14103Y-410D01*
X-14197Y-438D01*
X-14237Y-451D01*
X-14273Y-460D01*
X-14305Y-469D01*
X-14327Y-473D01*
X-14341Y-478D01*
X-14345D01*
X-14426Y-496D01*
X-14498Y-514D01*
X-14561Y-532D01*
X-14619Y-545D01*
X-14673Y-559D01*
X-14718Y-572D01*
X-14758Y-581D01*
X-14794Y-595D01*
X-14826Y-604D01*
X-14852Y-608D01*
X-14870Y-617D01*
X-14888Y-622D01*
X-14911Y-626D01*
X-14915Y-631D01*
X-14987Y-662D01*
X-15045Y-693D01*
X-15095Y-725D01*
X-15135Y-752D01*
X-15167Y-779D01*
X-15185Y-801D01*
X-15198Y-815D01*
X-15203Y-819D01*
X-15230Y-864D01*
X-15252Y-909D01*
X-15266Y-949D01*
X-15279Y-990D01*
X-15283Y-1026D01*
X-15288Y-1053D01*
Y-1075D01*
Y-1080D01*
X-15283Y-1133D01*
X-15274Y-1183D01*
X-15257Y-1232D01*
X-15243Y-1273D01*
X-15225Y-1304D01*
X-15207Y-1331D01*
X-15198Y-1349D01*
X-15194Y-1353D01*
X-15158Y-1398D01*
X-15113Y-1439D01*
X-15068Y-1470D01*
X-15023Y-1497D01*
X-14983Y-1520D01*
X-14951Y-1538D01*
X-14929Y-1546D01*
X-14920Y-1551D01*
X-14848Y-1574D01*
X-14776Y-1591D01*
X-14704Y-1605D01*
X-14637Y-1614D01*
X-14579Y-1618D01*
X-14534Y-1623D01*
X-14493D01*
X-14394Y-1618D01*
X-14305Y-1609D01*
X-14219Y-1591D01*
X-14148Y-1574D01*
X-14089Y-1560D01*
X-14044Y-1542D01*
X-14026Y-1538D01*
X-14013Y-1533D01*
X-14008Y-1529D01*
X-14004D01*
X-13927Y-1493D01*
X-13865Y-1452D01*
X-13806Y-1407D01*
X-13766Y-1371D01*
X-13730Y-1335D01*
X-13703Y-1309D01*
X-13690Y-1286D01*
X-13685Y-1282D01*
X-13649Y-1219D01*
X-13622Y-1151D01*
X-13600Y-1084D01*
X-13582Y-1021D01*
X-13568Y-967D01*
X-13559Y-922D01*
Y-904D01*
X-13555Y-891D01*
Y-886D01*
Y-882D01*
X-13155Y-918D01*
X-13164Y-1035D01*
X-13182Y-1142D01*
X-13209Y-1241D01*
X-13240Y-1326D01*
X-13272Y-1398D01*
X-13285Y-1430D01*
X-13299Y-1452D01*
X-13312Y-1470D01*
X-13317Y-1484D01*
X-13326Y-1493D01*
Y-1497D01*
X-13393Y-1587D01*
X-13469Y-1663D01*
X-13546Y-1726D01*
X-13622Y-1780D01*
X-13685Y-1820D01*
X-13739Y-1852D01*
X-13761Y-1861D01*
X-13775Y-1870D01*
X-13784Y-1874D01*
X-13788D01*
X-13905Y-1915D01*
X-14026Y-1946D01*
X-14148Y-1969D01*
X-14260Y-1982D01*
X-14314Y-1991D01*
X-14363D01*
X-14408Y-1995D01*
X-14444Y-2000D01*
X-14516D01*
X-14641Y-1995D01*
X-14758Y-1982D01*
X-14861Y-1960D01*
X-14951Y-1937D01*
X-14992Y-1928D01*
X-15028Y-1919D01*
X-15059Y-1906D01*
X-15081Y-1897D01*
X-15104Y-1888D01*
X-15117Y-1883D01*
X-15126Y-1879D01*
X-15131D01*
X-15230Y-1829D01*
X-15310Y-1771D01*
X-15382Y-1713D01*
X-15441Y-1654D01*
X-15490Y-1605D01*
X-15521Y-1564D01*
X-15544Y-1538D01*
X-15548Y-1533D01*
Y-1529D01*
X-15598Y-1443D01*
X-15634Y-1358D01*
X-15661Y-1277D01*
X-15679Y-1201D01*
X-15687Y-1138D01*
X-15697Y-1093D01*
Y-1071D01*
Y-1057D01*
Y-1053D01*
Y-1048D01*
X-15692Y-954D01*
X-15674Y-869D01*
X-15656Y-792D01*
X-15629Y-725D01*
X-15607Y-671D01*
X-15584Y-631D01*
X-15566Y-604D01*
X-15562Y-595D01*
X-15508Y-523D01*
X-15445Y-460D01*
X-15373Y-406D01*
X-15310Y-357D01*
X-15247Y-316D01*
X-15198Y-289D01*
X-15180Y-280D01*
X-15167Y-271D01*
X-15158Y-267D01*
X-15153D01*
X-15113Y-249D01*
X-15068Y-235D01*
X-15014Y-218D01*
X-14960Y-200D01*
X-14843Y-164D01*
X-14727Y-132D01*
X-14668Y-119D01*
X-14619Y-105D01*
X-14570Y-96D01*
X-14529Y-83D01*
X-14493Y-74D01*
X-14466Y-69D01*
X-14448Y-65D01*
X-14444D01*
X-14349Y-42D01*
X-14269Y-20D01*
X-14192Y-2D01*
X-14125Y21D01*
X-14067Y38D01*
X-14017Y61D01*
X-13972Y79D01*
X-13932Y92D01*
X-13901Y110D01*
X-13874Y124D01*
X-13851Y133D01*
X-13833Y146D01*
X-13811Y160D01*
X-13806Y164D01*
X-13766Y209D01*
X-13734Y254D01*
X-13716Y303D01*
X-13699Y348D01*
X-13690Y384D01*
X-13685Y420D01*
Y438D01*
Y447D01*
X-13694Y519D01*
X-13712Y582D01*
X-13739Y640D01*
X-13775Y690D01*
X-13806Y730D01*
X-13833Y761D01*
X-13851Y779D01*
X-13860Y784D01*
X-13896Y811D01*
X-13936Y833D01*
X-14022Y869D01*
X-14111Y892D01*
X-14206Y910D01*
X-14287Y919D01*
X-14323Y923D01*
X-14354Y927D01*
X-14417D01*
X-14547Y923D01*
X-14659Y905D01*
X-14754Y878D01*
X-14834Y851D01*
X-14893Y820D01*
X-14938Y797D01*
X-14965Y779D01*
X-14974Y770D01*
X-15036Y708D01*
X-15090Y636D01*
X-15126Y559D01*
X-15158Y488D01*
X-15176Y420D01*
X-15189Y366D01*
X-15194Y344D01*
X-15198Y330D01*
Y321D01*
Y317D01*
X-15602Y348D01*
X-15593Y452D01*
X-15571Y546D01*
X-15544Y627D01*
X-15517Y703D01*
X-15490Y761D01*
X-15463Y806D01*
X-15454Y824D01*
X-15445Y838D01*
X-15441Y842D01*
Y847D01*
X-15382Y927D01*
X-15315Y995D01*
X-15247Y1053D01*
X-15180Y1103D01*
X-15117Y1139D01*
X-15068Y1166D01*
X-15050Y1174D01*
X-15036Y1183D01*
X-15028Y1188D01*
X-15023D01*
X-14920Y1228D01*
X-14812Y1255D01*
X-14709Y1278D01*
X-14610Y1291D01*
X-14525Y1300D01*
X-14489D01*
X-14457Y1305D01*
X-14399D01*
X-14282Y1300D01*
D02*
G37*
%LPC*%
G36*
X2562Y10640D02*
X2270D01*
Y10629D01*
X2214D01*
Y10618D01*
X2169D01*
Y10607D01*
X2135D01*
Y10595D01*
X2101D01*
Y10584D01*
X2067D01*
Y10573D01*
X2045D01*
Y10562D01*
X2022D01*
Y10551D01*
X2000D01*
Y10539D01*
X1977D01*
Y10528D01*
X1955D01*
Y10517D01*
X1933D01*
Y10506D01*
X1921D01*
Y10494D01*
X1899D01*
Y10483D01*
X1888D01*
Y10472D01*
X1865D01*
Y10461D01*
X1854D01*
Y10449D01*
X1843D01*
Y10438D01*
X1832D01*
Y10427D01*
X1809D01*
Y10416D01*
X1798D01*
Y10405D01*
X1787D01*
Y10393D01*
X1775D01*
Y10382D01*
X1764D01*
Y10371D01*
X1753D01*
Y10360D01*
X1742D01*
Y10348D01*
X1730D01*
Y10337D01*
X1719D01*
Y10326D01*
X1708D01*
Y10315D01*
X-944D01*
Y10337D01*
X-955D01*
Y10348D01*
X-966D01*
Y10360D01*
X-977D01*
Y10371D01*
X-989D01*
Y10382D01*
X-1000D01*
Y10393D01*
X-1011D01*
Y10405D01*
X-1022D01*
Y10416D01*
X-1045D01*
Y10427D01*
X-1056D01*
Y10438D01*
X-1067D01*
Y10449D01*
X-1079D01*
Y10461D01*
X-1101D01*
Y10472D01*
X-1112D01*
Y10483D01*
X-1124D01*
Y10494D01*
X-1146D01*
Y10506D01*
X-1168D01*
Y10517D01*
X-1180D01*
Y10528D01*
X-1202D01*
Y10539D01*
X-1225D01*
Y10551D01*
X-1247D01*
Y10562D01*
X-1270D01*
Y10573D01*
X-1303D01*
Y10584D01*
X-1326D01*
Y10595D01*
X-1359D01*
Y10607D01*
X-1393D01*
Y10618D01*
X-1438D01*
Y10629D01*
X-1506D01*
Y10640D01*
X-1798D01*
Y10629D01*
X-1854D01*
Y10618D01*
X-1899D01*
Y10607D01*
X-1933D01*
Y10595D01*
X-1966D01*
Y10584D01*
X-2000D01*
Y10573D01*
X-2022D01*
Y10562D01*
X-2045D01*
Y10551D01*
X-2067D01*
Y10539D01*
X-2090D01*
Y10528D01*
X-2112D01*
Y10517D01*
X-2135D01*
Y10506D01*
X-2146D01*
Y10494D01*
X-2169D01*
Y10483D01*
X-2180D01*
Y10472D01*
X-2202D01*
Y10461D01*
X-2214D01*
Y10449D01*
X-2225D01*
Y10438D01*
X-2236D01*
Y10427D01*
X-2258D01*
Y10416D01*
X-2270D01*
Y10405D01*
X-2281D01*
Y10393D01*
X-2292D01*
Y10382D01*
X-2303D01*
Y10371D01*
X-2315D01*
Y10360D01*
X-2326D01*
Y10348D01*
X-2337D01*
Y10337D01*
X-2348D01*
Y10326D01*
X-2360D01*
Y10315D01*
X-5663D01*
Y10326D01*
X-5674D01*
Y10337D01*
X-5685D01*
Y10348D01*
X-5697D01*
Y10360D01*
X-5708D01*
Y10371D01*
X-5719D01*
Y10382D01*
X-5730D01*
Y10393D01*
X-5742D01*
Y10405D01*
X-5764D01*
Y10416D01*
X-5775D01*
Y10427D01*
X-5787D01*
Y10438D01*
X-5798D01*
Y10449D01*
X-5820D01*
Y10461D01*
X-5832D01*
Y10472D01*
X-5854D01*
Y10483D01*
X-5865D01*
Y10494D01*
X-5888D01*
Y10506D01*
X-5910D01*
Y10517D01*
X-5933D01*
Y10528D01*
X-5955D01*
Y10539D01*
X-5977D01*
Y10551D01*
X-6000D01*
Y10562D01*
X-6034D01*
Y10573D01*
X-6067D01*
Y10584D01*
X-6101D01*
Y10595D01*
X-6146D01*
Y10607D01*
X-6213D01*
Y10618D01*
X-6494D01*
Y10607D01*
X-6562D01*
Y10595D01*
X-6607D01*
Y10584D01*
X-6640D01*
Y10573D01*
X-6674D01*
Y10562D01*
X-6708D01*
Y10551D01*
X-6730D01*
Y10539D01*
X-6753D01*
Y10528D01*
X-6775D01*
Y10517D01*
X-6798D01*
Y10506D01*
X-6809D01*
Y10494D01*
X-6831D01*
Y10483D01*
X-6854D01*
Y10472D01*
X-6865D01*
Y10461D01*
X-6876D01*
Y10449D01*
X-6899D01*
Y10438D01*
X-6910D01*
Y10427D01*
X-6921D01*
Y10416D01*
X-6933D01*
Y10405D01*
X-6944D01*
Y10393D01*
X-6955D01*
Y10382D01*
X-6966D01*
Y10371D01*
X-6978D01*
Y10360D01*
X-6989D01*
Y10348D01*
X-7000D01*
Y10337D01*
X-7011D01*
Y10326D01*
X-7023D01*
Y10315D01*
X-7034D01*
Y10303D01*
X-7045D01*
Y10292D01*
X-7056D01*
Y10270D01*
X-7067D01*
Y10258D01*
X-7079D01*
Y10247D01*
X-7090D01*
Y10225D01*
X-7101D01*
Y10214D01*
X-7112D01*
Y10191D01*
X-7124D01*
Y10169D01*
X-7135D01*
Y10146D01*
X-7146D01*
Y10135D01*
X-7157D01*
Y10112D01*
X-7169D01*
Y10079D01*
X-7180D01*
Y10056D01*
X-7191D01*
Y10034D01*
X-7202D01*
Y10000D01*
X-7214D01*
Y9966D01*
X-7225D01*
Y9921D01*
X-7236D01*
Y9876D01*
X-7247D01*
Y9798D01*
X-7258D01*
Y9607D01*
X-7247D01*
Y9517D01*
X-7236D01*
Y9461D01*
X-7225D01*
Y9416D01*
X-7214D01*
Y9382D01*
X-7202D01*
Y9348D01*
X-7191D01*
Y9326D01*
X-7180D01*
Y9303D01*
X-7169D01*
Y9270D01*
X-7157D01*
Y9247D01*
X-7146D01*
Y9236D01*
X-7135D01*
Y9213D01*
X-7124D01*
Y9191D01*
X-7112D01*
Y9180D01*
X-7101D01*
Y9157D01*
X-7090D01*
Y9146D01*
X-7079D01*
Y9135D01*
X-7067D01*
Y9124D01*
X-7056D01*
Y9101D01*
X-7045D01*
Y9090D01*
X-7034D01*
Y9079D01*
X-7023D01*
Y9067D01*
X-7011D01*
Y9056D01*
X-7000D01*
Y9045D01*
X-6989D01*
Y9034D01*
X-6978D01*
Y9023D01*
X-6966D01*
Y9011D01*
X-6955D01*
Y9000D01*
X-6933D01*
Y8989D01*
X-6921D01*
Y8978D01*
X-6910D01*
Y8966D01*
X-6888D01*
Y8955D01*
X-6876D01*
Y8944D01*
X-6865D01*
Y8933D01*
X-6843D01*
Y8921D01*
X-6831D01*
Y8910D01*
X-6809D01*
Y8899D01*
X-6786D01*
Y8888D01*
X-6764D01*
Y8876D01*
X-6742D01*
Y8865D01*
X-6719D01*
Y8854D01*
X-6685D01*
Y8843D01*
X-6663D01*
Y8832D01*
X-6629D01*
Y8820D01*
X-6584D01*
Y8809D01*
X-6539D01*
Y8798D01*
X-6483D01*
Y8787D01*
X-6213D01*
Y8798D01*
X-6157D01*
Y8809D01*
X-6101D01*
Y8820D01*
X-6067D01*
Y8832D01*
X-6034D01*
Y8843D01*
X-6000D01*
Y8854D01*
X-5977D01*
Y8865D01*
X-5955D01*
Y8876D01*
X-5921D01*
Y8888D01*
X-5910D01*
Y8899D01*
X-5888D01*
Y8910D01*
X-5865D01*
Y8921D01*
X-5854D01*
Y8933D01*
X-5832D01*
Y8944D01*
X-5820D01*
Y8955D01*
X-5798D01*
Y8966D01*
X-5787D01*
Y8978D01*
X-5775D01*
Y8989D01*
X-5753D01*
Y9000D01*
X-5742D01*
Y9011D01*
X-5730D01*
Y9023D01*
X-5719D01*
Y9034D01*
X-5708D01*
Y9045D01*
X-5697D01*
Y9056D01*
X-5685D01*
Y9067D01*
X-5674D01*
Y9079D01*
X-5663D01*
Y9090D01*
X-4214D01*
Y7562D01*
X-5865D01*
Y7573D01*
X-5888D01*
Y7584D01*
X-5910D01*
Y7596D01*
X-5921D01*
Y7607D01*
X-5944D01*
Y7618D01*
X-5966D01*
Y7629D01*
X-5989D01*
Y7640D01*
X-6011D01*
Y7652D01*
X-6034D01*
Y7663D01*
X-6067D01*
Y7674D01*
X-6101D01*
Y7685D01*
X-6135D01*
Y7697D01*
X-6191D01*
Y7708D01*
X-6281D01*
Y7719D01*
X-6404D01*
Y7708D01*
X-6506D01*
Y7697D01*
X-6562D01*
Y7685D01*
X-6595D01*
Y7674D01*
X-6629D01*
Y7663D01*
X-6663D01*
Y7652D01*
X-6685D01*
Y7640D01*
X-6708D01*
Y7629D01*
X-6730D01*
Y7618D01*
X-6742D01*
Y7607D01*
X-6764D01*
Y7596D01*
X-6786D01*
Y7584D01*
X-6798D01*
Y7573D01*
X-6809D01*
Y7562D01*
X-6831D01*
Y7551D01*
X-6843D01*
Y7539D01*
X-6854D01*
Y7528D01*
X-6865D01*
Y7517D01*
X-6876D01*
Y7506D01*
X-6888D01*
Y7494D01*
X-6899D01*
Y7483D01*
X-6910D01*
Y7472D01*
X-6921D01*
Y7461D01*
X-6933D01*
Y7438D01*
X-6944D01*
Y7427D01*
X-6955D01*
Y7416D01*
X-6966D01*
Y7405D01*
X-6978D01*
Y7382D01*
X-6989D01*
Y7360D01*
X-7000D01*
Y7348D01*
X-7011D01*
Y7326D01*
X-7023D01*
Y7303D01*
X-7034D01*
Y7281D01*
X-7045D01*
Y7258D01*
X-7056D01*
Y7225D01*
X-7067D01*
Y7202D01*
X-7079D01*
Y7169D01*
X-7090D01*
Y7124D01*
X-7101D01*
Y7067D01*
X-7112D01*
Y6798D01*
X-7101D01*
Y6742D01*
X-7090D01*
Y6697D01*
X-7079D01*
Y6663D01*
X-7067D01*
Y6629D01*
X-7056D01*
Y6607D01*
X-7045D01*
Y6584D01*
X-7034D01*
Y6562D01*
X-7023D01*
Y6539D01*
X-7011D01*
Y6517D01*
X-7000D01*
Y6506D01*
X-6989D01*
Y6483D01*
X-6978D01*
Y6472D01*
X-6966D01*
Y6461D01*
X-6955D01*
Y6438D01*
X-6944D01*
Y6427D01*
X-6933D01*
Y6416D01*
X-6921D01*
Y6404D01*
X-6910D01*
Y6393D01*
X-6899D01*
Y6382D01*
X-6888D01*
Y6371D01*
X-6876D01*
Y6360D01*
X-6854D01*
Y6348D01*
X-6843D01*
Y6337D01*
X-6831D01*
Y6326D01*
X-6820D01*
Y6315D01*
X-6798D01*
Y6303D01*
X-6786D01*
Y6292D01*
X-6764D01*
Y6281D01*
X-6753D01*
Y6270D01*
X-6730D01*
Y6258D01*
X-6708D01*
Y6247D01*
X-6685D01*
Y6236D01*
X-6663D01*
Y6225D01*
X-6640D01*
Y6213D01*
X-6607D01*
Y6202D01*
X-6573D01*
Y6191D01*
X-6528D01*
Y6180D01*
X-6472D01*
Y6168D01*
X-6213D01*
Y6180D01*
X-6157D01*
Y6191D01*
X-6112D01*
Y6202D01*
X-6079D01*
Y6213D01*
X-6045D01*
Y6225D01*
X-6011D01*
Y6236D01*
X-5989D01*
Y6247D01*
X-5966D01*
Y6258D01*
X-5944D01*
Y6270D01*
X-5921D01*
Y6281D01*
X-5910D01*
Y6292D01*
X-5888D01*
Y6303D01*
X-5876D01*
Y6315D01*
X-5854D01*
Y6326D01*
X-4225D01*
Y6315D01*
X-4214D01*
Y4798D01*
X-4225D01*
Y4786D01*
X-5663D01*
Y4798D01*
X-5674D01*
Y4809D01*
X-5685D01*
Y4820D01*
X-5697D01*
Y4831D01*
X-5708D01*
Y4843D01*
X-5719D01*
Y4854D01*
X-5730D01*
Y4865D01*
X-5742D01*
Y4876D01*
X-5753D01*
Y4888D01*
X-5775D01*
Y4899D01*
X-5787D01*
Y4910D01*
X-5798D01*
Y4921D01*
X-5809D01*
Y4933D01*
X-5832D01*
Y4944D01*
X-5843D01*
Y4955D01*
X-5865D01*
Y4966D01*
X-5888D01*
Y4978D01*
X-5899D01*
Y4989D01*
X-5921D01*
Y5000D01*
X-5944D01*
Y5011D01*
X-5966D01*
Y5023D01*
X-6000D01*
Y5034D01*
X-6022D01*
Y5045D01*
X-6056D01*
Y5056D01*
X-6090D01*
Y5067D01*
X-6135D01*
Y5079D01*
X-6191D01*
Y5090D01*
X-6281D01*
Y5101D01*
X-6416D01*
Y5090D01*
X-6517D01*
Y5079D01*
X-6573D01*
Y5067D01*
X-6618D01*
Y5056D01*
X-6652D01*
Y5045D01*
X-6685D01*
Y5034D01*
X-6708D01*
Y5023D01*
X-6742D01*
Y5011D01*
X-6764D01*
Y5000D01*
X-6786D01*
Y4989D01*
X-6798D01*
Y4978D01*
X-6820D01*
Y4966D01*
X-6843D01*
Y4955D01*
X-6854D01*
Y4944D01*
X-6865D01*
Y4933D01*
X-6888D01*
Y4921D01*
X-6899D01*
Y4910D01*
X-6910D01*
Y4899D01*
X-6921D01*
Y4888D01*
X-6944D01*
Y4876D01*
X-6955D01*
Y4865D01*
X-6966D01*
Y4854D01*
X-6978D01*
Y4843D01*
X-6989D01*
Y4831D01*
X-7000D01*
Y4820D01*
X-7011D01*
Y4798D01*
X-7023D01*
Y4786D01*
X-7034D01*
Y4775D01*
X-7045D01*
Y4764D01*
X-7056D01*
Y4753D01*
X-7067D01*
Y4730D01*
X-7079D01*
Y4719D01*
X-7090D01*
Y4697D01*
X-7101D01*
Y4685D01*
X-7112D01*
Y4663D01*
X-7124D01*
Y4652D01*
X-7135D01*
Y4629D01*
X-7146D01*
Y4607D01*
X-7157D01*
Y4584D01*
X-7169D01*
Y4562D01*
X-7180D01*
Y4528D01*
X-7191D01*
Y4506D01*
X-7202D01*
Y4472D01*
X-7214D01*
Y4438D01*
X-7225D01*
Y4393D01*
X-7236D01*
Y4348D01*
X-7247D01*
Y4258D01*
X-7258D01*
Y4079D01*
X-7247D01*
Y3989D01*
X-7236D01*
Y3933D01*
X-7225D01*
Y3888D01*
X-7214D01*
Y3854D01*
X-7202D01*
Y3820D01*
X-7191D01*
Y3798D01*
X-7180D01*
Y3775D01*
X-7169D01*
Y3742D01*
X-7157D01*
Y3730D01*
X-7146D01*
Y3708D01*
X-7135D01*
Y3685D01*
X-7124D01*
Y3674D01*
X-7112D01*
Y3652D01*
X-7101D01*
Y3640D01*
X-7090D01*
Y3618D01*
X-7079D01*
Y3607D01*
X-7067D01*
Y3596D01*
X-7056D01*
Y3584D01*
X-7045D01*
Y3562D01*
X-7034D01*
Y3551D01*
X-7023D01*
Y3539D01*
X-7011D01*
Y3528D01*
X-7000D01*
Y3517D01*
X-6989D01*
Y3506D01*
X-6978D01*
Y3494D01*
X-6955D01*
Y3483D01*
X-6944D01*
Y3472D01*
X-6933D01*
Y3461D01*
X-6921D01*
Y3449D01*
X-6899D01*
Y3438D01*
X-6888D01*
Y3427D01*
X-6876D01*
Y3416D01*
X-6854D01*
Y3404D01*
X-6843D01*
Y3393D01*
X-6820D01*
Y3382D01*
X-6798D01*
Y3371D01*
X-6786D01*
Y3360D01*
X-6764D01*
Y3348D01*
X-6730D01*
Y3337D01*
X-6708D01*
Y3326D01*
X-6685D01*
Y3315D01*
X-6652D01*
Y3303D01*
X-6618D01*
Y3292D01*
X-6573D01*
Y3281D01*
X-6528D01*
Y3270D01*
X-6449D01*
Y3258D01*
X-6247D01*
Y3270D01*
X-6168D01*
Y3281D01*
X-6112D01*
Y3292D01*
X-6079D01*
Y3303D01*
X-6045D01*
Y3315D01*
X-6011D01*
Y3326D01*
X-5977D01*
Y3337D01*
X-5955D01*
Y3348D01*
X-5933D01*
Y3360D01*
X-5910D01*
Y3371D01*
X-5888D01*
Y3382D01*
X-5876D01*
Y3393D01*
X-5854D01*
Y3404D01*
X-5832D01*
Y3416D01*
X-5820D01*
Y3427D01*
X-5809D01*
Y3438D01*
X-5787D01*
Y3449D01*
X-5775D01*
Y3461D01*
X-5764D01*
Y3472D01*
X-5753D01*
Y3483D01*
X-5730D01*
Y3494D01*
X-5719D01*
Y3506D01*
X-5708D01*
Y3517D01*
X-5697D01*
Y3528D01*
X-5685D01*
Y3539D01*
X-5674D01*
Y3551D01*
X-5663D01*
Y3562D01*
X-3416D01*
Y3573D01*
X-3326D01*
Y3584D01*
X-3292D01*
Y3596D01*
X-3258D01*
Y3607D01*
X-3236D01*
Y3618D01*
X-3213D01*
Y3629D01*
X-3191D01*
Y3640D01*
X-3180D01*
Y3652D01*
X-3168D01*
Y3663D01*
X-3146D01*
Y3674D01*
X-3135D01*
Y3685D01*
X-3124D01*
Y3697D01*
X-3112D01*
Y3719D01*
X-3101D01*
Y3730D01*
X-3090D01*
Y3742D01*
X-3079D01*
Y3764D01*
X-3067D01*
Y3775D01*
X-3056D01*
Y3798D01*
X-3045D01*
Y3820D01*
X-3034D01*
Y3843D01*
X-3022D01*
Y3876D01*
X-3011D01*
Y3921D01*
X-3000D01*
Y9079D01*
X-2989D01*
Y9090D01*
X-2348D01*
Y9079D01*
X-2337D01*
Y9067D01*
X-2326D01*
Y9056D01*
X-2315D01*
Y9045D01*
X-2303D01*
Y9034D01*
X-2292D01*
Y9023D01*
X-2281D01*
Y9011D01*
X-2270D01*
Y9000D01*
X-2258D01*
Y8989D01*
X-2247D01*
Y8978D01*
X-2225D01*
Y8966D01*
X-2214D01*
Y8955D01*
X-2202D01*
Y8944D01*
X-2180D01*
Y8933D01*
X-2169D01*
Y8921D01*
X-2146D01*
Y8910D01*
X-2135D01*
Y8899D01*
X-2112D01*
Y8888D01*
X-2090D01*
Y8876D01*
X-2079D01*
Y8865D01*
X-2045D01*
Y8854D01*
X-2022D01*
Y8843D01*
X-2000D01*
Y8832D01*
X-1966D01*
Y8820D01*
X-1933D01*
Y8809D01*
X-1899D01*
Y8798D01*
X-1854D01*
Y8787D01*
X-1787D01*
Y8775D01*
X-1517D01*
Y8787D01*
X-1449D01*
Y8798D01*
X-1405D01*
Y8809D01*
X-1359D01*
Y8820D01*
X-1326D01*
Y8832D01*
X-1303D01*
Y8843D01*
X-1270D01*
Y8854D01*
X-1247D01*
Y8865D01*
X-1225D01*
Y8876D01*
X-1202D01*
Y8888D01*
X-1180D01*
Y8899D01*
X-1168D01*
Y8910D01*
X-1146D01*
Y8921D01*
X-1135D01*
Y8933D01*
X-1112D01*
Y8944D01*
X-1101D01*
Y8955D01*
X-1079D01*
Y8966D01*
X-1067D01*
Y8978D01*
X-1056D01*
Y8989D01*
X-1045D01*
Y9000D01*
X-1022D01*
Y9011D01*
X-1011D01*
Y9023D01*
X-1000D01*
Y9034D01*
X-989D01*
Y9045D01*
X-977D01*
Y9056D01*
X-966D01*
Y9067D01*
X-955D01*
Y9079D01*
X-281D01*
Y4843D01*
X-292D01*
Y4831D01*
X-303D01*
Y4820D01*
X-315D01*
Y4809D01*
X-326D01*
Y4798D01*
X-337D01*
Y4786D01*
X-348D01*
Y4775D01*
X-359D01*
Y4753D01*
X-371D01*
Y4742D01*
X-382D01*
Y4730D01*
X-393D01*
Y4719D01*
X-404D01*
Y4708D01*
X-416D01*
Y4685D01*
X-427D01*
Y4674D01*
X-438D01*
Y4652D01*
X-449D01*
Y4640D01*
X-461D01*
Y4618D01*
X-472D01*
Y4595D01*
X-483D01*
Y4573D01*
X-494D01*
Y4551D01*
X-506D01*
Y4528D01*
X-517D01*
Y4506D01*
X-528D01*
Y4472D01*
X-539D01*
Y4449D01*
X-551D01*
Y4405D01*
X-562D01*
Y4360D01*
X-573D01*
Y4292D01*
X-584D01*
Y4034D01*
X-573D01*
Y3955D01*
X-562D01*
Y3910D01*
X-551D01*
Y3865D01*
X-539D01*
Y3831D01*
X-528D01*
Y3809D01*
X-517D01*
Y3775D01*
X-506D01*
Y3753D01*
X-494D01*
Y3730D01*
X-483D01*
Y3708D01*
X-472D01*
Y3685D01*
X-461D01*
Y3674D01*
X-449D01*
Y3652D01*
X-438D01*
Y3640D01*
X-427D01*
Y3618D01*
X-416D01*
Y3607D01*
X-404D01*
Y3596D01*
X-393D01*
Y3573D01*
X-382D01*
Y3562D01*
X-371D01*
Y3551D01*
X-359D01*
Y3539D01*
X-348D01*
Y3528D01*
X-337D01*
Y3517D01*
X-326D01*
Y3506D01*
X-315D01*
Y3494D01*
X-303D01*
Y3483D01*
X-292D01*
Y3472D01*
X-281D01*
Y3461D01*
X-258D01*
Y3449D01*
X-247D01*
Y3438D01*
X-236D01*
Y3427D01*
X-213D01*
Y3416D01*
X-202D01*
Y3404D01*
X-191D01*
Y3393D01*
X-169D01*
Y3382D01*
X-157D01*
Y3371D01*
X-135D01*
Y3360D01*
X-112D01*
Y3348D01*
X-90D01*
Y3337D01*
X-67D01*
Y3326D01*
X-45D01*
Y3315D01*
X-22D01*
Y3303D01*
X11D01*
Y3292D01*
X45D01*
Y3281D01*
X79D01*
Y3270D01*
X124D01*
Y3258D01*
X180D01*
Y3247D01*
X281D01*
Y3236D01*
X393D01*
Y3247D01*
X506D01*
Y3258D01*
X562D01*
Y3270D01*
X607D01*
Y3281D01*
X652D01*
Y3292D01*
X674D01*
Y3303D01*
X708D01*
Y3315D01*
X730D01*
Y3326D01*
X753D01*
Y3337D01*
X775D01*
Y3348D01*
X798D01*
Y3360D01*
X820D01*
Y3371D01*
X831D01*
Y3382D01*
X854D01*
Y3393D01*
X865D01*
Y3404D01*
X888D01*
Y3416D01*
X899D01*
Y3427D01*
X910D01*
Y3438D01*
X921D01*
Y3449D01*
X933D01*
Y3461D01*
X955D01*
Y3472D01*
X966D01*
Y3483D01*
X977D01*
Y3494D01*
X989D01*
Y3506D01*
X1000D01*
Y3528D01*
X1011D01*
Y3539D01*
X1022D01*
Y3551D01*
X1034D01*
Y3562D01*
X1045D01*
Y3573D01*
X1056D01*
Y3596D01*
X1067D01*
Y3607D01*
X1079D01*
Y3629D01*
X1090D01*
Y3640D01*
X1101D01*
Y3663D01*
X1112D01*
Y3674D01*
X1124D01*
Y3697D01*
X1135D01*
Y3719D01*
X1146D01*
Y3742D01*
X1157D01*
Y3764D01*
X1168D01*
Y3787D01*
X1180D01*
Y3809D01*
X1191D01*
Y3843D01*
X1202D01*
Y3876D01*
X1213D01*
Y3910D01*
X1225D01*
Y3955D01*
X1236D01*
Y4011D01*
X1247D01*
Y4112D01*
X1258D01*
Y4202D01*
X1247D01*
Y4303D01*
X1236D01*
Y4371D01*
X1225D01*
Y4416D01*
X1213D01*
Y4449D01*
X1202D01*
Y4483D01*
X1191D01*
Y4517D01*
X1180D01*
Y4539D01*
X1168D01*
Y4562D01*
X1157D01*
Y4584D01*
X1146D01*
Y4607D01*
X1135D01*
Y4629D01*
X1124D01*
Y4640D01*
X1112D01*
Y4663D01*
X1101D01*
Y4674D01*
X1090D01*
Y4697D01*
X1079D01*
Y4708D01*
X1067D01*
Y4719D01*
X1056D01*
Y4742D01*
X1045D01*
Y4753D01*
X1034D01*
Y4764D01*
X1022D01*
Y4775D01*
X1011D01*
Y4786D01*
X1000D01*
Y4798D01*
X989D01*
Y4809D01*
X977D01*
Y4820D01*
X966D01*
Y4831D01*
X955D01*
Y4843D01*
X944D01*
Y9079D01*
X1730D01*
Y9067D01*
X1742D01*
Y9056D01*
X1753D01*
Y9045D01*
X1764D01*
Y9034D01*
X1775D01*
Y9023D01*
X1787D01*
Y9011D01*
X1798D01*
Y9000D01*
X1809D01*
Y8989D01*
X1820D01*
Y8978D01*
X1832D01*
Y8966D01*
X1854D01*
Y8955D01*
X1865D01*
Y8944D01*
X1888D01*
Y8933D01*
X1899D01*
Y8921D01*
X1921D01*
Y8910D01*
X1933D01*
Y8899D01*
X1955D01*
Y8888D01*
X1977D01*
Y8876D01*
X1989D01*
Y8865D01*
X2022D01*
Y8854D01*
X2045D01*
Y8843D01*
X2067D01*
Y8832D01*
X2101D01*
Y8820D01*
X2135D01*
Y8809D01*
X2169D01*
Y8798D01*
X2214D01*
Y8787D01*
X2281D01*
Y8775D01*
X2551D01*
Y8787D01*
X2618D01*
Y8798D01*
X2663D01*
Y8809D01*
X2708D01*
Y8820D01*
X2730D01*
Y8832D01*
X2764D01*
Y8843D01*
X2798D01*
Y8854D01*
X2820D01*
Y8865D01*
X2843D01*
Y8876D01*
X2865D01*
Y8888D01*
X2888D01*
Y8899D01*
X2899D01*
Y8910D01*
X2921D01*
Y8921D01*
X2933D01*
Y8933D01*
X2955D01*
Y8944D01*
X2966D01*
Y8955D01*
X2989D01*
Y8966D01*
X3000D01*
Y8978D01*
X3011D01*
Y8989D01*
X3022D01*
Y9000D01*
X3045D01*
Y9011D01*
X3056D01*
Y9023D01*
X3067D01*
Y9034D01*
X3079D01*
Y9045D01*
X3090D01*
Y9056D01*
X3101D01*
Y9067D01*
X3112D01*
Y9079D01*
X3124D01*
Y9090D01*
X4978D01*
Y9079D01*
X4989D01*
Y9067D01*
X5000D01*
Y9056D01*
X5011D01*
Y9045D01*
X5023D01*
Y9034D01*
X5034D01*
Y9023D01*
X5045D01*
Y9011D01*
X5056D01*
Y9000D01*
X5067D01*
Y8989D01*
X5079D01*
Y8978D01*
X5090D01*
Y8966D01*
X5101D01*
Y8955D01*
X5112D01*
Y8944D01*
X5124D01*
Y8933D01*
X5135D01*
Y8921D01*
X5146D01*
Y8910D01*
X5157D01*
Y8899D01*
X5169D01*
Y8888D01*
X5180D01*
Y8876D01*
X5191D01*
Y8865D01*
X5202D01*
Y8854D01*
X5213D01*
Y8843D01*
X5225D01*
Y8832D01*
X5236D01*
Y8820D01*
X5247D01*
Y8809D01*
X5258D01*
Y8798D01*
X5270D01*
Y8787D01*
X5281D01*
Y8775D01*
X5292D01*
Y8764D01*
X5303D01*
Y8753D01*
X5315D01*
Y8742D01*
X5326D01*
Y8730D01*
X5337D01*
Y8719D01*
X5348D01*
Y8708D01*
X5360D01*
Y8697D01*
X5371D01*
Y8685D01*
X5382D01*
Y8674D01*
X5393D01*
Y8663D01*
X5404D01*
Y8652D01*
X5416D01*
Y8640D01*
X5427D01*
Y8629D01*
X5438D01*
Y8618D01*
X5449D01*
Y8607D01*
X5461D01*
Y8596D01*
X5472D01*
Y8584D01*
X5483D01*
Y8573D01*
X5494D01*
Y8562D01*
X5506D01*
Y8551D01*
X5517D01*
Y8539D01*
X5528D01*
Y8528D01*
X5539D01*
Y8517D01*
X5551D01*
Y8506D01*
X5562D01*
Y8494D01*
X5573D01*
Y8483D01*
X5584D01*
Y8472D01*
X5596D01*
Y8461D01*
X5607D01*
Y8449D01*
X5618D01*
Y8438D01*
X5629D01*
Y8427D01*
X5640D01*
Y8416D01*
X5652D01*
Y8405D01*
X5663D01*
Y8393D01*
X5674D01*
Y8382D01*
X5685D01*
Y8371D01*
X5697D01*
Y8360D01*
X5708D01*
Y8348D01*
X5719D01*
Y8337D01*
X5730D01*
Y8326D01*
X5742D01*
Y8315D01*
X5753D01*
Y8303D01*
X5764D01*
Y8292D01*
X5775D01*
Y8281D01*
X5787D01*
Y8270D01*
X5798D01*
Y8258D01*
X5809D01*
Y8247D01*
X5820D01*
Y8236D01*
X5832D01*
Y8225D01*
X5843D01*
Y8213D01*
X5854D01*
Y8202D01*
X5865D01*
Y8191D01*
X5876D01*
Y7506D01*
X3472D01*
Y7494D01*
X3416D01*
Y7483D01*
X3382D01*
Y7472D01*
X3348D01*
Y7461D01*
X3326D01*
Y7449D01*
X3315D01*
Y7438D01*
X3292D01*
Y7427D01*
X3281D01*
Y7416D01*
X3258D01*
Y7405D01*
X3247D01*
Y7393D01*
X3236D01*
Y7382D01*
X3225D01*
Y7371D01*
X3213D01*
Y7360D01*
X3202D01*
Y7348D01*
X3191D01*
Y7326D01*
X3180D01*
Y7315D01*
X3168D01*
Y7292D01*
X3157D01*
Y7270D01*
X3146D01*
Y7247D01*
X3135D01*
Y7225D01*
X3124D01*
Y7202D01*
X3112D01*
Y7169D01*
X3101D01*
Y7124D01*
X3090D01*
Y7067D01*
X3079D01*
Y5225D01*
X3090D01*
Y5169D01*
X3101D01*
Y5124D01*
X3112D01*
Y5101D01*
X3124D01*
Y5067D01*
X3135D01*
Y5045D01*
X3146D01*
Y5034D01*
X3157D01*
Y5011D01*
X3168D01*
Y5000D01*
X3180D01*
Y4978D01*
X3191D01*
Y4966D01*
X3202D01*
Y4955D01*
X3213D01*
Y4944D01*
X3225D01*
Y4933D01*
X3236D01*
Y4921D01*
X3247D01*
Y4910D01*
X3258D01*
Y4899D01*
X3270D01*
Y4888D01*
X3281D01*
Y4876D01*
X3292D01*
Y4865D01*
X3303D01*
Y4854D01*
X3315D01*
Y4843D01*
X3326D01*
Y4831D01*
X3337D01*
Y4820D01*
X3348D01*
Y4809D01*
X3360D01*
Y4798D01*
X3371D01*
Y4786D01*
X3382D01*
Y4775D01*
X3393D01*
Y4764D01*
X3404D01*
Y4753D01*
X3416D01*
Y4742D01*
X3427D01*
Y4730D01*
X3438D01*
Y4719D01*
X3449D01*
Y4708D01*
X3461D01*
Y4697D01*
X3472D01*
Y4685D01*
X3483D01*
Y4674D01*
X3494D01*
Y4663D01*
X3506D01*
Y4652D01*
X3517D01*
Y4640D01*
X3528D01*
Y4629D01*
X3539D01*
Y4618D01*
X3551D01*
Y4607D01*
X3562D01*
Y4595D01*
X3573D01*
Y4584D01*
X3584D01*
Y4573D01*
X3596D01*
Y4562D01*
X3607D01*
Y4551D01*
X3618D01*
Y4539D01*
X3629D01*
Y4528D01*
X3640D01*
Y4517D01*
X3652D01*
Y4506D01*
X3663D01*
Y4494D01*
X3674D01*
Y4483D01*
X3685D01*
Y4472D01*
X3697D01*
Y4461D01*
X3708D01*
Y4449D01*
X3719D01*
Y4438D01*
X3730D01*
Y4427D01*
X3742D01*
Y4416D01*
X3753D01*
Y4405D01*
X3764D01*
Y4393D01*
X3775D01*
Y4382D01*
X3787D01*
Y4371D01*
X3798D01*
Y4360D01*
X3809D01*
Y4348D01*
X3820D01*
Y4337D01*
X3831D01*
Y4326D01*
X3843D01*
Y4315D01*
X3854D01*
Y4303D01*
X3865D01*
Y4292D01*
X3876D01*
Y4281D01*
X3888D01*
Y4270D01*
X3899D01*
Y4258D01*
X3910D01*
Y4247D01*
X3921D01*
Y4236D01*
X3933D01*
Y4225D01*
X3944D01*
Y4214D01*
X3955D01*
Y4202D01*
X3966D01*
Y4191D01*
X3977D01*
Y4180D01*
X3989D01*
Y4169D01*
X4000D01*
Y4157D01*
X4011D01*
Y4146D01*
X4022D01*
Y4135D01*
X4034D01*
Y4124D01*
X4045D01*
Y4112D01*
X4056D01*
Y4101D01*
X4067D01*
Y4090D01*
X4079D01*
Y4079D01*
X4090D01*
Y4067D01*
X4101D01*
Y4056D01*
X4112D01*
Y4045D01*
X4124D01*
Y4034D01*
X4135D01*
Y4022D01*
X4146D01*
Y4011D01*
X4157D01*
Y4000D01*
X4169D01*
Y3989D01*
X4180D01*
Y3977D01*
X4191D01*
Y3966D01*
X4202D01*
Y3955D01*
X4214D01*
Y3944D01*
X4225D01*
Y3933D01*
X4236D01*
Y3921D01*
X4247D01*
Y3910D01*
X4258D01*
Y3899D01*
X4270D01*
Y3888D01*
X4281D01*
Y3876D01*
X4292D01*
Y3865D01*
X4303D01*
Y3854D01*
X4315D01*
Y3843D01*
X4326D01*
Y3831D01*
X4337D01*
Y3820D01*
X4348D01*
Y3809D01*
X4360D01*
Y3798D01*
X4371D01*
Y3787D01*
X4382D01*
Y3775D01*
X4393D01*
Y3764D01*
X4405D01*
Y3753D01*
X4416D01*
Y3742D01*
X4427D01*
Y3730D01*
X4438D01*
Y3719D01*
X4449D01*
Y3708D01*
X4461D01*
Y3697D01*
X4472D01*
Y3685D01*
X4483D01*
Y3674D01*
X4494D01*
Y3663D01*
X4506D01*
Y3652D01*
X4517D01*
Y3640D01*
X4528D01*
Y3629D01*
X4539D01*
Y3618D01*
X4551D01*
Y3607D01*
X4562D01*
Y3596D01*
X4573D01*
Y3584D01*
X4584D01*
Y3573D01*
X4595D01*
Y3562D01*
X4618D01*
Y3551D01*
X4629D01*
Y3539D01*
X4640D01*
Y3528D01*
X4663D01*
Y3517D01*
X4685D01*
Y3506D01*
X4708D01*
Y3494D01*
X4730D01*
Y3483D01*
X4753D01*
Y3472D01*
X4798D01*
Y3461D01*
X4854D01*
Y3449D01*
X6090D01*
Y3438D01*
X6101D01*
Y3427D01*
X6124D01*
Y3416D01*
X6135D01*
Y3404D01*
X6157D01*
Y3393D01*
X6168D01*
Y3382D01*
X6191D01*
Y3371D01*
X6213D01*
Y3360D01*
X6236D01*
Y3348D01*
X6258D01*
Y3337D01*
X6292D01*
Y3326D01*
X6326D01*
Y3315D01*
X6360D01*
Y3303D01*
X6404D01*
Y3292D01*
X6483D01*
Y3281D01*
X6663D01*
Y3292D01*
X6730D01*
Y3303D01*
X6775D01*
Y3315D01*
X6820D01*
Y3326D01*
X6854D01*
Y3337D01*
X6876D01*
Y3348D01*
X6899D01*
Y3360D01*
X6933D01*
Y3371D01*
X6955D01*
Y3382D01*
X6966D01*
Y3393D01*
X6989D01*
Y3404D01*
X7011D01*
Y3416D01*
X7023D01*
Y3427D01*
X7045D01*
Y3438D01*
X7056D01*
Y3449D01*
X7067D01*
Y3461D01*
X7079D01*
Y3472D01*
X7101D01*
Y3483D01*
X7112D01*
Y3494D01*
X7124D01*
Y3506D01*
X7135D01*
Y3517D01*
X7146D01*
Y3528D01*
X7157D01*
Y3539D01*
X7169D01*
Y3562D01*
X7180D01*
Y3573D01*
X7191D01*
Y3584D01*
X7202D01*
Y3596D01*
X7214D01*
Y3618D01*
X7225D01*
Y3629D01*
X7236D01*
Y3652D01*
X7247D01*
Y3663D01*
X7258D01*
Y3685D01*
X7270D01*
Y3708D01*
X7281D01*
Y3730D01*
X7292D01*
Y3753D01*
X7303D01*
Y3775D01*
X7315D01*
Y3809D01*
X7326D01*
Y3843D01*
X7337D01*
Y3876D01*
X7348D01*
Y3933D01*
X7360D01*
Y4011D01*
X7371D01*
Y4135D01*
X7360D01*
Y4225D01*
X7348D01*
Y4281D01*
X7337D01*
Y4315D01*
X7326D01*
Y4348D01*
X7315D01*
Y4382D01*
X7303D01*
Y4405D01*
X7292D01*
Y4427D01*
X7281D01*
Y4449D01*
X7270D01*
Y4472D01*
X7258D01*
Y4494D01*
X7247D01*
Y4506D01*
X7236D01*
Y4528D01*
X7225D01*
Y4539D01*
X7214D01*
Y4551D01*
X7202D01*
Y4573D01*
X7191D01*
Y4584D01*
X7180D01*
Y4595D01*
X7169D01*
Y4607D01*
X7157D01*
Y4618D01*
X7146D01*
Y4629D01*
X7135D01*
Y4640D01*
X7124D01*
Y4652D01*
X7112D01*
Y4663D01*
X7101D01*
Y4674D01*
X7090D01*
Y4685D01*
X7079D01*
Y4697D01*
X7067D01*
Y4708D01*
X7056D01*
Y4719D01*
X7034D01*
Y4730D01*
X7023D01*
Y4742D01*
X7000D01*
Y4753D01*
X6989D01*
Y4764D01*
X6966D01*
Y4775D01*
X6944D01*
Y4786D01*
X6921D01*
Y4798D01*
X6899D01*
Y4809D01*
X6876D01*
Y4820D01*
X6843D01*
Y4831D01*
X6809D01*
Y4843D01*
X6775D01*
Y4854D01*
X6730D01*
Y4865D01*
X6640D01*
Y4876D01*
X6506D01*
Y4865D01*
X6416D01*
Y4854D01*
X6371D01*
Y4843D01*
X6326D01*
Y4831D01*
X6292D01*
Y4820D01*
X6270D01*
Y4809D01*
X6247D01*
Y4798D01*
X6225D01*
Y4786D01*
X6202D01*
Y4775D01*
X6180D01*
Y4764D01*
X6157D01*
Y4753D01*
X6146D01*
Y4742D01*
X6124D01*
Y4730D01*
X6112D01*
Y4719D01*
X6090D01*
Y4708D01*
X6079D01*
Y4697D01*
X5236D01*
Y4708D01*
X5213D01*
Y4719D01*
X5202D01*
Y4730D01*
X5191D01*
Y4742D01*
X5180D01*
Y4753D01*
X5169D01*
Y4764D01*
X5157D01*
Y4775D01*
X5146D01*
Y4786D01*
X5135D01*
Y4798D01*
X5124D01*
Y4809D01*
X5112D01*
Y4820D01*
X5101D01*
Y4831D01*
X5090D01*
Y4843D01*
X5079D01*
Y4854D01*
X5067D01*
Y4865D01*
X5056D01*
Y4876D01*
X5045D01*
Y4888D01*
X5034D01*
Y4899D01*
X5023D01*
Y4910D01*
X5011D01*
Y4921D01*
X5000D01*
Y4933D01*
X4989D01*
Y4944D01*
X4978D01*
Y4955D01*
X4966D01*
Y4966D01*
X4955D01*
Y4978D01*
X4944D01*
Y4989D01*
X4933D01*
Y5000D01*
X4921D01*
Y5011D01*
X4910D01*
Y5023D01*
X4899D01*
Y5034D01*
X4888D01*
Y5045D01*
X4876D01*
Y5056D01*
X4865D01*
Y5067D01*
X4854D01*
Y5079D01*
X4843D01*
Y5090D01*
X4831D01*
Y5101D01*
X4820D01*
Y5112D01*
X4809D01*
Y5124D01*
X4798D01*
Y5135D01*
X4786D01*
Y5146D01*
X4775D01*
Y5157D01*
X4764D01*
Y5169D01*
X4753D01*
Y5180D01*
X4742D01*
Y5191D01*
X4730D01*
Y5202D01*
X4719D01*
Y5213D01*
X4708D01*
Y5225D01*
X4697D01*
Y5236D01*
X4685D01*
Y5247D01*
X4674D01*
Y5258D01*
X4663D01*
Y5270D01*
X4652D01*
Y5281D01*
X4640D01*
Y5292D01*
X4629D01*
Y5303D01*
X4618D01*
Y5315D01*
X4607D01*
Y5326D01*
X4595D01*
Y5337D01*
X4584D01*
Y5348D01*
X4573D01*
Y5360D01*
X4562D01*
Y5371D01*
X4551D01*
Y5382D01*
X4539D01*
Y5393D01*
X4528D01*
Y5404D01*
X4517D01*
Y5416D01*
X4506D01*
Y5427D01*
X4494D01*
Y5438D01*
X4483D01*
Y5449D01*
X4472D01*
Y5461D01*
X4461D01*
Y5472D01*
X4449D01*
Y5483D01*
X4438D01*
Y5494D01*
X4427D01*
Y5506D01*
X4416D01*
Y5517D01*
X4405D01*
Y5528D01*
X4393D01*
Y5539D01*
X4382D01*
Y5551D01*
X4371D01*
Y5562D01*
X4360D01*
Y5573D01*
X4348D01*
Y5584D01*
X4337D01*
Y6258D01*
X6697D01*
Y6270D01*
X6775D01*
Y6281D01*
X6820D01*
Y6292D01*
X6854D01*
Y6303D01*
X6876D01*
Y6315D01*
X6899D01*
Y6326D01*
X6921D01*
Y6337D01*
X6933D01*
Y6348D01*
X6944D01*
Y6360D01*
X6966D01*
Y6371D01*
X6978D01*
Y6382D01*
X6989D01*
Y6393D01*
X7000D01*
Y6404D01*
X7011D01*
Y6427D01*
X7023D01*
Y6438D01*
X7034D01*
Y6449D01*
X7045D01*
Y6472D01*
X7056D01*
Y6494D01*
X7067D01*
Y6506D01*
X7079D01*
Y6528D01*
X7090D01*
Y6562D01*
X7101D01*
Y6584D01*
X7112D01*
Y6629D01*
X7124D01*
Y8584D01*
X7112D01*
Y8640D01*
X7101D01*
Y8674D01*
X7090D01*
Y8697D01*
X7079D01*
Y8719D01*
X7067D01*
Y8742D01*
X7056D01*
Y8764D01*
X7045D01*
Y8775D01*
X7034D01*
Y8798D01*
X7023D01*
Y8809D01*
X7011D01*
Y8820D01*
X7000D01*
Y8832D01*
X6989D01*
Y8843D01*
X6978D01*
Y8854D01*
X6966D01*
Y8865D01*
X6955D01*
Y8876D01*
X6944D01*
Y8888D01*
X6933D01*
Y8899D01*
X6921D01*
Y8910D01*
X6910D01*
Y8921D01*
X6899D01*
Y8933D01*
X6888D01*
Y8944D01*
X6876D01*
Y8955D01*
X6865D01*
Y8966D01*
X6854D01*
Y8978D01*
X6843D01*
Y8989D01*
X6831D01*
Y9000D01*
X6820D01*
Y9011D01*
X6809D01*
Y9023D01*
X6798D01*
Y9034D01*
X6786D01*
Y9045D01*
X6775D01*
Y9056D01*
X6764D01*
Y9067D01*
X6753D01*
Y9079D01*
X6742D01*
Y9090D01*
X6730D01*
Y9101D01*
X6719D01*
Y9112D01*
X6708D01*
Y9124D01*
X6697D01*
Y9135D01*
X6685D01*
Y9146D01*
X6674D01*
Y9157D01*
X6663D01*
Y9168D01*
X6652D01*
Y9180D01*
X6640D01*
Y9191D01*
X6629D01*
Y9202D01*
X6618D01*
Y9213D01*
X6607D01*
Y9225D01*
X6595D01*
Y9236D01*
X6584D01*
Y9247D01*
X6573D01*
Y9258D01*
X6562D01*
Y9270D01*
X6551D01*
Y9281D01*
X6539D01*
Y9292D01*
X6528D01*
Y9303D01*
X6517D01*
Y9315D01*
X6506D01*
Y9326D01*
X6494D01*
Y9337D01*
X6483D01*
Y9348D01*
X6472D01*
Y9360D01*
X6461D01*
Y9371D01*
X6449D01*
Y9382D01*
X6438D01*
Y9393D01*
X6427D01*
Y9404D01*
X6416D01*
Y9416D01*
X6404D01*
Y9427D01*
X6393D01*
Y9438D01*
X6382D01*
Y9449D01*
X6371D01*
Y9461D01*
X6360D01*
Y9472D01*
X6348D01*
Y9483D01*
X6337D01*
Y9494D01*
X6326D01*
Y9506D01*
X6315D01*
Y9517D01*
X6303D01*
Y9528D01*
X6292D01*
Y9539D01*
X6281D01*
Y9551D01*
X6270D01*
Y9562D01*
X6258D01*
Y9573D01*
X6247D01*
Y9584D01*
X6236D01*
Y9595D01*
X6225D01*
Y9607D01*
X6213D01*
Y9618D01*
X6202D01*
Y9629D01*
X6191D01*
Y9640D01*
X6180D01*
Y9652D01*
X6168D01*
Y9663D01*
X6157D01*
Y9674D01*
X6146D01*
Y9685D01*
X6135D01*
Y9697D01*
X6124D01*
Y9708D01*
X6112D01*
Y9719D01*
X6101D01*
Y9730D01*
X6090D01*
Y9742D01*
X6079D01*
Y9753D01*
X6067D01*
Y9764D01*
X6056D01*
Y9775D01*
X6045D01*
Y9787D01*
X6034D01*
Y9798D01*
X6022D01*
Y9809D01*
X6011D01*
Y9820D01*
X6000D01*
Y9832D01*
X5989D01*
Y9843D01*
X5977D01*
Y9854D01*
X5966D01*
Y9865D01*
X5955D01*
Y9876D01*
X5944D01*
Y9888D01*
X5933D01*
Y9899D01*
X5921D01*
Y9910D01*
X5910D01*
Y9921D01*
X5899D01*
Y9933D01*
X5888D01*
Y9944D01*
X5876D01*
Y9955D01*
X5865D01*
Y9966D01*
X5854D01*
Y9978D01*
X5843D01*
Y9989D01*
X5832D01*
Y10000D01*
X5820D01*
Y10011D01*
X5809D01*
Y10023D01*
X5798D01*
Y10034D01*
X5787D01*
Y10045D01*
X5775D01*
Y10056D01*
X5764D01*
Y10067D01*
X5753D01*
Y10079D01*
X5742D01*
Y10090D01*
X5730D01*
Y10101D01*
X5719D01*
Y10112D01*
X5708D01*
Y10124D01*
X5697D01*
Y10135D01*
X5685D01*
Y10146D01*
X5674D01*
Y10157D01*
X5663D01*
Y10169D01*
X5652D01*
Y10180D01*
X5640D01*
Y10191D01*
X5629D01*
Y10202D01*
X5618D01*
Y10214D01*
X5607D01*
Y10225D01*
X5596D01*
Y10236D01*
X5584D01*
Y10247D01*
X5562D01*
Y10258D01*
X5539D01*
Y10270D01*
X5528D01*
Y10281D01*
X5506D01*
Y10292D01*
X5472D01*
Y10303D01*
X5438D01*
Y10315D01*
X5404D01*
Y10326D01*
X3124D01*
Y10337D01*
X3112D01*
Y10348D01*
X3101D01*
Y10360D01*
X3090D01*
Y10371D01*
X3079D01*
Y10382D01*
X3067D01*
Y10393D01*
X3056D01*
Y10405D01*
X3045D01*
Y10416D01*
X3022D01*
Y10427D01*
X3011D01*
Y10438D01*
X3000D01*
Y10449D01*
X2989D01*
Y10461D01*
X2966D01*
Y10472D01*
X2955D01*
Y10483D01*
X2944D01*
Y10494D01*
X2921D01*
Y10506D01*
X2899D01*
Y10517D01*
X2888D01*
Y10528D01*
X2865D01*
Y10539D01*
X2843D01*
Y10551D01*
X2820D01*
Y10562D01*
X2798D01*
Y10573D01*
X2764D01*
Y10584D01*
X2742D01*
Y10595D01*
X2708D01*
Y10607D01*
X2663D01*
Y10618D01*
X2629D01*
Y10629D01*
X2562D01*
Y10640D01*
D02*
G37*
%LPD*%
G36*
X2461Y10180D02*
X2528D01*
X2528Y10169D01*
X2562D01*
Y10157D01*
X2596D01*
X2596Y10146D01*
X2618Y10146D01*
Y10135D01*
X2640Y10135D01*
Y10124D01*
X2663D01*
Y10112D01*
X2685Y10112D01*
Y10101D01*
X2697Y10101D01*
Y10090D01*
X2719D01*
Y10079D01*
X2730Y10079D01*
X2730Y10067D01*
X2742D01*
X2742Y10056D01*
X2753Y10056D01*
X2753Y10045D01*
X2764D01*
Y10034D01*
X2775Y10034D01*
Y10023D01*
X2787D01*
Y10000D01*
X2798Y10000D01*
X2798Y9989D01*
X2809Y9989D01*
X2809Y9978D01*
X2820Y9978D01*
Y9955D01*
X2832Y9955D01*
X2831Y9944D01*
X2843Y9944D01*
Y9921D01*
X2854D01*
X2854Y9888D01*
X2865Y9888D01*
Y9865D01*
X5303D01*
Y9854D01*
X5315Y9854D01*
Y9843D01*
X5326D01*
X5326Y9832D01*
X5337D01*
Y9820D01*
X5348Y9820D01*
Y9809D01*
X5360D01*
Y9798D01*
X5371Y9798D01*
Y9787D01*
X5382D01*
Y9775D01*
X5393D01*
X5393Y9764D01*
X5404D01*
Y9753D01*
X5416Y9753D01*
X5416Y9742D01*
X5427Y9742D01*
Y9730D01*
X5438Y9730D01*
Y9719D01*
X5449Y9719D01*
Y9708D01*
X5461D01*
Y9697D01*
X5472Y9697D01*
X5472Y9685D01*
X5483Y9685D01*
X5483Y9674D01*
X5494Y9674D01*
Y9663D01*
X5506Y9663D01*
Y9652D01*
X5517D01*
X5517Y9640D01*
X5528Y9640D01*
X5528Y9629D01*
X5539D01*
X5539Y9618D01*
X5551Y9618D01*
Y9607D01*
X5562Y9607D01*
Y9595D01*
X5573D01*
X5573Y9584D01*
X5584D01*
Y9573D01*
X5596Y9573D01*
Y9562D01*
X5607D01*
Y9551D01*
X5618Y9550D01*
Y9539D01*
X5629D01*
X5629Y9528D01*
X5640D01*
Y9517D01*
X5652Y9517D01*
Y9506D01*
X5663D01*
Y9494D01*
X5674Y9494D01*
Y9483D01*
X5685D01*
Y9472D01*
X5697D01*
X5697Y9461D01*
X5708D01*
Y9449D01*
X5719Y9449D01*
X5719Y9438D01*
X5730D01*
X5730Y9427D01*
X5742Y9427D01*
Y9416D01*
X5753Y9416D01*
Y9404D01*
X5764D01*
Y9393D01*
X5775Y9393D01*
X5775Y9382D01*
X5787Y9382D01*
X5787Y9371D01*
X5798Y9371D01*
Y9360D01*
X5809Y9359D01*
Y9348D01*
X5820D01*
X5820Y9337D01*
X5832Y9337D01*
X5832Y9326D01*
X5843D01*
X5843Y9315D01*
X5854Y9315D01*
Y9303D01*
X5865Y9303D01*
Y9292D01*
X5876D01*
X5876Y9281D01*
X5888D01*
Y9270D01*
X5899Y9270D01*
Y9258D01*
X5910Y9258D01*
Y9247D01*
X5921Y9247D01*
Y9236D01*
X5933D01*
X5933Y9225D01*
X5944D01*
Y9213D01*
X5955Y9213D01*
Y9202D01*
X5966D01*
Y9191D01*
X5977Y9191D01*
Y9180D01*
X5989D01*
Y9168D01*
X6000D01*
X6000Y9157D01*
X6011D01*
Y9146D01*
X6022Y9146D01*
X6022Y9135D01*
X6034D01*
X6034Y9124D01*
X6045Y9124D01*
Y9112D01*
X6056D01*
X6056Y9101D01*
X6067D01*
Y9090D01*
X6079Y9090D01*
X6079Y9079D01*
X6090Y9079D01*
X6090Y9067D01*
X6101Y9067D01*
Y9056D01*
X6112Y9056D01*
Y9045D01*
X6124D01*
Y9034D01*
X6135Y9034D01*
X6135Y9023D01*
X6146D01*
X6146Y9011D01*
X6157Y9011D01*
Y9000D01*
X6168Y9000D01*
Y8989D01*
X6180D01*
X6180Y8978D01*
X6191Y8978D01*
Y8966D01*
X6202D01*
X6202Y8955D01*
X6213Y8955D01*
Y8944D01*
X6225Y8944D01*
Y8933D01*
X6236D01*
X6236Y8921D01*
X6247D01*
Y8910D01*
X6258D01*
X6258Y8899D01*
X6270D01*
Y8888D01*
X6281Y8888D01*
Y8876D01*
X6292D01*
Y8865D01*
X6303D01*
X6303Y8854D01*
X6315Y8854D01*
Y8843D01*
X6326Y8843D01*
X6326Y8832D01*
X6337Y8831D01*
X6337Y8820D01*
X6348Y8820D01*
Y8809D01*
X6359D01*
X6360Y8798D01*
X6371Y8798D01*
Y8787D01*
X6382Y8787D01*
X6382Y8775D01*
X6393Y8775D01*
X6393Y8764D01*
X6404Y8764D01*
Y8753D01*
X6416Y8753D01*
Y8742D01*
X6427D01*
Y8730D01*
X6438Y8730D01*
X6438Y8719D01*
X6449D01*
X6449Y8708D01*
X6461Y8708D01*
Y8697D01*
X6472Y8697D01*
Y8685D01*
X6483D01*
X6483Y8674D01*
X6494Y8674D01*
Y8663D01*
X6506D01*
X6506Y8652D01*
X6517Y8652D01*
Y8640D01*
X6528Y8640D01*
Y8629D01*
X6539D01*
X6539Y8618D01*
X6550D01*
X6551Y8607D01*
X6562Y8607D01*
X6562Y8596D01*
X6573D01*
Y8584D01*
X6584Y8584D01*
Y8573D01*
X6595D01*
Y8562D01*
X6607D01*
X6607Y8551D01*
X6618Y8551D01*
Y8539D01*
X6629Y8539D01*
X6629Y8528D01*
X6640Y8528D01*
Y8517D01*
X6652D01*
Y8506D01*
X6663D01*
Y6730D01*
X3865D01*
X3865Y5393D01*
X3876D01*
Y5382D01*
X3888D01*
X3888Y5371D01*
X3899D01*
X3899Y5360D01*
X3910D01*
Y5348D01*
X3921D01*
X3921Y5337D01*
X3933D01*
Y5326D01*
X3944D01*
X3944Y5315D01*
X3955D01*
Y5303D01*
X3966D01*
Y5292D01*
X3977Y5292D01*
Y5281D01*
X3989D01*
Y5270D01*
X4000D01*
X4000Y5258D01*
X4011D01*
Y5247D01*
X4022D01*
Y5236D01*
X4034Y5236D01*
Y5225D01*
X4045D01*
X4045Y5213D01*
X4056Y5213D01*
X4056Y5202D01*
X4067D01*
Y5191D01*
X4079D01*
Y5180D01*
X4090Y5180D01*
Y5169D01*
X4101D01*
X4101Y5157D01*
X4112Y5157D01*
X4112Y5146D01*
X4124D01*
Y5135D01*
X4135Y5135D01*
Y5124D01*
X4146Y5124D01*
Y5112D01*
X4157D01*
X4157Y5101D01*
X4169D01*
X4169Y5090D01*
X4180D01*
Y5079D01*
X4191Y5079D01*
X4191Y5067D01*
X4202Y5067D01*
X4202Y5056D01*
X4214Y5056D01*
Y5045D01*
X4225D01*
X4225Y5034D01*
X4236D01*
Y5023D01*
X4247Y5023D01*
X4247Y5011D01*
X4258D01*
X4258Y5000D01*
X4270Y5000D01*
Y4989D01*
X4281Y4989D01*
Y4978D01*
X4292D01*
Y4966D01*
X4303D01*
Y4955D01*
X4315D01*
X4315Y4944D01*
X4326D01*
Y4933D01*
X4337Y4933D01*
Y4921D01*
X4348D01*
X4348Y4910D01*
X4360Y4910D01*
X4360Y4899D01*
X4371D01*
X4371Y4888D01*
X4382D01*
Y4876D01*
X4393Y4876D01*
Y4865D01*
X4405D01*
X4405Y4854D01*
X4416Y4854D01*
X4416Y4843D01*
X4427D01*
Y4831D01*
X4438Y4831D01*
Y4820D01*
X4449Y4820D01*
Y4809D01*
X4461D01*
X4461Y4798D01*
X4472D01*
X4472Y4786D01*
X4483D01*
Y4775D01*
X4494Y4775D01*
X4494Y4764D01*
X4506Y4764D01*
X4506Y4753D01*
X4517Y4753D01*
Y4742D01*
X4528D01*
X4528Y4730D01*
X4539D01*
Y4719D01*
X4551Y4719D01*
X4551Y4708D01*
X4562D01*
X4562Y4697D01*
X4573Y4697D01*
Y4685D01*
X4584Y4685D01*
Y4674D01*
X4595D01*
Y4663D01*
X4607D01*
Y4652D01*
X4618D01*
X4618Y4640D01*
X4629D01*
Y4629D01*
X4640Y4629D01*
Y4618D01*
X4652D01*
Y4607D01*
X4663D01*
Y4595D01*
X4674D01*
X4674Y4584D01*
X4685D01*
Y4573D01*
X4697Y4573D01*
Y4562D01*
X4708D01*
Y4551D01*
X4719D01*
Y4539D01*
X4730Y4539D01*
Y4528D01*
X4742D01*
Y4517D01*
X4753Y4517D01*
Y4506D01*
X4764D01*
X4764Y4494D01*
X4775D01*
Y4483D01*
X4786Y4483D01*
Y4472D01*
X4798D01*
X4798Y4461D01*
X4809Y4461D01*
Y4450D01*
X4820Y4449D01*
X4820Y4438D01*
X4831D01*
Y4427D01*
X4843Y4427D01*
Y4416D01*
X4854D01*
X4854Y4405D01*
X4865D01*
X4865Y4393D01*
X4876Y4393D01*
Y4382D01*
X4888Y4382D01*
Y4371D01*
X4899D01*
Y4360D01*
X4910D01*
Y4348D01*
X4921D01*
X4921Y4337D01*
X4933D01*
Y4326D01*
X4944Y4326D01*
Y4315D01*
X4955D01*
Y4303D01*
X4966D01*
Y4292D01*
X4978D01*
X4978Y4281D01*
X4989D01*
Y4270D01*
X5000Y4270D01*
Y4258D01*
X5011D01*
Y4247D01*
X5023D01*
Y4236D01*
X6202D01*
Y4258D01*
X6213D01*
Y4281D01*
X6225Y4281D01*
X6225Y4303D01*
X6236Y4303D01*
Y4315D01*
X6247Y4315D01*
X6247Y4326D01*
X6258Y4326D01*
X6258Y4337D01*
X6270D01*
Y4360D01*
X6281Y4360D01*
X6281Y4371D01*
X6292D01*
Y4382D01*
X6315Y4382D01*
Y4393D01*
X6326D01*
X6326Y4405D01*
X6337D01*
X6337Y4416D01*
X6360Y4416D01*
X6359Y4427D01*
X6371Y4427D01*
Y4438D01*
X6393D01*
X6393Y4449D01*
X6416Y4450D01*
Y4461D01*
X6449Y4461D01*
Y4472D01*
X6494Y4472D01*
X6494Y4483D01*
X6640D01*
Y4472D01*
X6685Y4472D01*
X6685Y4461D01*
X6719Y4461D01*
Y4449D01*
X6742Y4450D01*
X6742Y4438D01*
X6764D01*
Y4427D01*
X6786D01*
Y4416D01*
X6809D01*
Y4405D01*
X6820D01*
Y4393D01*
X6831D01*
Y4382D01*
X6843Y4382D01*
Y4371D01*
X6854Y4371D01*
X6854Y4360D01*
X6865Y4360D01*
Y4348D01*
X6876D01*
Y4337D01*
X6888D01*
X6888Y4326D01*
X6899Y4326D01*
X6899Y4315D01*
X6910D01*
X6910Y4292D01*
X6921D01*
Y4270D01*
X6933D01*
Y4247D01*
X6944D01*
X6944Y4225D01*
X6955Y4225D01*
Y4191D01*
X6966Y4191D01*
X6966Y4146D01*
X6978D01*
Y4011D01*
X6966Y4011D01*
Y3955D01*
X6955Y3955D01*
X6955Y3921D01*
X6944Y3921D01*
X6944Y3899D01*
X6933D01*
Y3876D01*
X6921D01*
Y3865D01*
X6910D01*
Y3843D01*
X6899D01*
X6899Y3831D01*
X6888D01*
X6888Y3820D01*
X6876Y3820D01*
Y3798D01*
X6865D01*
Y3787D01*
X6854D01*
Y3775D01*
X6843D01*
Y3764D01*
X6820D01*
Y3753D01*
X6809D01*
Y3742D01*
X6786D01*
Y3730D01*
X6775D01*
X6775Y3719D01*
X6753Y3719D01*
Y3708D01*
X6730Y3708D01*
Y3697D01*
X6697Y3697D01*
Y3685D01*
X6652D01*
Y3674D01*
X6494D01*
Y3685D01*
X6449D01*
Y3697D01*
X6416Y3697D01*
Y3708D01*
X6393D01*
X6393Y3719D01*
X6371D01*
Y3730D01*
X6348Y3730D01*
Y3742D01*
X6337D01*
Y3753D01*
X6315D01*
Y3764D01*
X6303Y3764D01*
Y3775D01*
X6292D01*
Y3787D01*
X6281D01*
X6281Y3798D01*
X6270D01*
Y3809D01*
X6258D01*
Y3820D01*
X6247D01*
X6247Y3843D01*
X6236D01*
X6236Y3854D01*
X6225D01*
X6225Y3876D01*
X6213Y3876D01*
Y3899D01*
X6202D01*
X6202Y3921D01*
X6191Y3921D01*
X6191Y3933D01*
X5787D01*
X5787Y3921D01*
X4921Y3921D01*
X4921Y3933D01*
X4899D01*
Y3944D01*
X4888D01*
Y3955D01*
X4876Y3955D01*
Y3966D01*
X4865Y3966D01*
X4865Y3977D01*
X4854D01*
Y3989D01*
X4843Y3989D01*
Y4000D01*
X4831Y4000D01*
Y4011D01*
X4820Y4011D01*
Y4022D01*
X4809Y4022D01*
Y4034D01*
X4798Y4034D01*
Y4045D01*
X4786D01*
Y4056D01*
X4775Y4056D01*
Y4067D01*
X4764Y4067D01*
X4764Y4079D01*
X4753D01*
Y4090D01*
X4742Y4090D01*
Y4101D01*
X4730D01*
X4730Y4112D01*
X4719Y4112D01*
X4719Y4124D01*
X4708D01*
Y4135D01*
X4697D01*
Y4146D01*
X4685Y4146D01*
Y4157D01*
X4674D01*
X4674Y4169D01*
X4663Y4169D01*
X4663Y4180D01*
X4652D01*
Y4191D01*
X4640D01*
Y4202D01*
X4629Y4202D01*
Y4214D01*
X4618Y4214D01*
Y4225D01*
X4607D01*
Y4236D01*
X4595D01*
Y4247D01*
X4584D01*
Y4258D01*
X4573Y4258D01*
X4573Y4270D01*
X4562D01*
Y4281D01*
X4551D01*
Y4292D01*
X4539D01*
Y4303D01*
X4528D01*
Y4315D01*
X4517Y4315D01*
X4517Y4326D01*
X4506D01*
Y4337D01*
X4494Y4337D01*
Y4348D01*
X4483Y4348D01*
Y4360D01*
X4472D01*
Y4371D01*
X4461Y4371D01*
Y4382D01*
X4449D01*
Y4393D01*
X4438Y4393D01*
Y4405D01*
X4427Y4405D01*
Y4416D01*
X4416Y4416D01*
X4416Y4427D01*
X4405D01*
Y4438D01*
X4393D01*
Y4449D01*
X4382Y4450D01*
Y4461D01*
X4371D01*
X4371Y4472D01*
X4360Y4472D01*
X4360Y4483D01*
X4348D01*
Y4494D01*
X4337D01*
Y4506D01*
X4326Y4506D01*
Y4517D01*
X4315Y4517D01*
Y4528D01*
X4303D01*
Y4539D01*
X4292D01*
Y4551D01*
X4281D01*
Y4562D01*
X4270Y4562D01*
X4270Y4573D01*
X4258D01*
Y4584D01*
X4247D01*
Y4595D01*
X4236D01*
Y4607D01*
X4225D01*
Y4618D01*
X4214Y4618D01*
X4214Y4629D01*
X4202D01*
Y4640D01*
X4191Y4640D01*
Y4652D01*
X4180Y4652D01*
Y4663D01*
X4169D01*
Y4674D01*
X4157D01*
Y4685D01*
X4146D01*
Y4697D01*
X4135Y4697D01*
Y4708D01*
X4124Y4708D01*
Y4719D01*
X4112Y4719D01*
X4112Y4730D01*
X4101D01*
X4101Y4742D01*
X4090D01*
Y4753D01*
X4079Y4753D01*
Y4764D01*
X4067Y4764D01*
Y4775D01*
X4056Y4775D01*
X4056Y4786D01*
X4045D01*
Y4798D01*
X4022D01*
X4022Y4809D01*
X4011D01*
Y4820D01*
X4000Y4820D01*
X4000Y4831D01*
X3989Y4831D01*
X3989Y4843D01*
X3977D01*
Y4854D01*
X3966D01*
X3966Y4865D01*
X3955D01*
X3955Y4876D01*
X3944Y4876D01*
X3944Y4888D01*
X3933D01*
Y4899D01*
X3921D01*
Y4910D01*
X3910D01*
X3910Y4921D01*
X3899D01*
X3899Y4933D01*
X3888Y4933D01*
Y4944D01*
X3876D01*
Y4955D01*
X3865D01*
Y4966D01*
X3854Y4966D01*
X3854Y4978D01*
X3843D01*
Y4989D01*
X3831Y4989D01*
Y5000D01*
X3820D01*
Y5011D01*
X3809D01*
X3809Y5023D01*
X3798Y5022D01*
X3798Y5034D01*
X3787D01*
Y5045D01*
X3775D01*
X3775Y5056D01*
X3764D01*
Y5067D01*
X3753Y5067D01*
X3753Y5079D01*
X3742Y5079D01*
X3742Y5090D01*
X3730D01*
Y5101D01*
X3719D01*
X3719Y5112D01*
X3708D01*
Y5124D01*
X3697D01*
X3697Y5135D01*
X3685Y5135D01*
X3685Y5146D01*
X3674D01*
Y5157D01*
X3663D01*
X3663Y5169D01*
X3652D01*
X3652Y5180D01*
X3640Y5180D01*
X3641Y5191D01*
X3629D01*
Y5202D01*
X3618D01*
Y5213D01*
X3607D01*
X3607Y5225D01*
X3596D01*
X3596Y5236D01*
X3584Y5236D01*
Y5247D01*
X3573D01*
Y5258D01*
X3562D01*
X3562Y7034D01*
X6337D01*
Y7270D01*
Y7281D01*
X6337Y8393D01*
X6326D01*
Y8405D01*
X6315D01*
Y8416D01*
X6303Y8416D01*
X6303Y8427D01*
X6292Y8427D01*
Y8438D01*
X6281D01*
Y8449D01*
X6270D01*
Y8461D01*
X6258D01*
Y8472D01*
X6247Y8472D01*
X6247Y8483D01*
X6236Y8483D01*
Y8494D01*
X6225Y8494D01*
Y8506D01*
X6213Y8506D01*
Y8517D01*
X6202D01*
Y8528D01*
X6191Y8528D01*
X6191Y8539D01*
X6180Y8539D01*
Y8551D01*
X6168Y8551D01*
Y8562D01*
X6157Y8562D01*
Y8573D01*
X6146D01*
Y8584D01*
X6135D01*
X6135Y8596D01*
X6124D01*
X6124Y8607D01*
X6112D01*
Y8618D01*
X6101Y8618D01*
Y8629D01*
X6090D01*
Y8640D01*
X6079D01*
Y8652D01*
X6067D01*
X6067Y8663D01*
X6056D01*
Y8674D01*
X6045Y8674D01*
Y8685D01*
X6034D01*
Y8697D01*
X6022D01*
Y8708D01*
X6011Y8708D01*
Y8719D01*
X6000D01*
Y8730D01*
X5989Y8730D01*
X5989Y8742D01*
X5977D01*
Y8753D01*
X5966D01*
Y8764D01*
X5955Y8764D01*
Y8775D01*
X5944D01*
X5944Y8787D01*
X5933Y8787D01*
X5933Y8798D01*
X5921D01*
Y8809D01*
X5910D01*
Y8820D01*
X5899Y8820D01*
Y8831D01*
X5888D01*
X5888Y8843D01*
X5876Y8843D01*
X5876Y8854D01*
X5865D01*
X5865Y8865D01*
X5854Y8865D01*
Y8876D01*
X5843D01*
Y8888D01*
X5832D01*
X5832Y8899D01*
X5820D01*
Y8910D01*
X5809Y8910D01*
Y8921D01*
X5798Y8921D01*
Y8933D01*
X5787D01*
Y8944D01*
X5775D01*
Y8955D01*
X5764D01*
X5764Y8966D01*
X5753D01*
Y8978D01*
X5742Y8978D01*
Y8989D01*
X5730D01*
Y9000D01*
X5719D01*
Y9011D01*
X5708Y9011D01*
Y9023D01*
X5697D01*
Y9034D01*
X5685Y9034D01*
X5685Y9045D01*
X5674D01*
Y9056D01*
X5663D01*
Y9067D01*
X5652Y9067D01*
Y9079D01*
X5640D01*
X5640Y9090D01*
X5629Y9090D01*
X5629Y9101D01*
X5618D01*
Y9112D01*
X5607D01*
Y9124D01*
X5596Y9124D01*
Y9135D01*
X5584D01*
X5584Y9146D01*
X5573Y9146D01*
X5573Y9157D01*
X5562D01*
X5562Y9169D01*
X5551Y9168D01*
Y9180D01*
X5539Y9180D01*
Y9191D01*
X5528D01*
Y9202D01*
X5517D01*
Y9213D01*
X5506Y9213D01*
Y9225D01*
X5494Y9225D01*
Y9236D01*
X5483Y9236D01*
Y9247D01*
X5472Y9247D01*
Y9258D01*
X5461D01*
Y9270D01*
X5449Y9270D01*
Y9281D01*
X5438Y9281D01*
Y9292D01*
X5427D01*
X5427Y9303D01*
X5416D01*
Y9315D01*
X5404Y9315D01*
Y9326D01*
X5393D01*
Y9337D01*
X5382Y9337D01*
Y9348D01*
X5371D01*
Y9360D01*
X5360D01*
Y9371D01*
X5348Y9371D01*
Y9382D01*
X5337D01*
X5337Y9393D01*
X5326Y9393D01*
X5326Y9404D01*
X5315D01*
Y9416D01*
X5303D01*
Y9427D01*
X5292Y9427D01*
Y9438D01*
X5281D01*
X5281Y9449D01*
X5270Y9449D01*
X5270Y9461D01*
X5258D01*
X5258Y9472D01*
X5247Y9472D01*
Y9483D01*
X5236Y9483D01*
Y9494D01*
X5225D01*
Y9506D01*
X5213D01*
Y9517D01*
X5202Y9517D01*
Y9528D01*
X5191Y9528D01*
Y9539D01*
X5180Y9539D01*
Y9550D01*
X2865D01*
Y9528D01*
X2854Y9528D01*
Y9494D01*
X2843D01*
Y9472D01*
X2832D01*
Y9461D01*
X2820Y9461D01*
X2820Y9438D01*
X2809Y9438D01*
X2809Y9427D01*
X2798Y9427D01*
Y9404D01*
X2787D01*
Y9393D01*
X2775Y9393D01*
X2775Y9382D01*
X2764Y9382D01*
Y9371D01*
X2753D01*
Y9360D01*
X2742Y9360D01*
Y9348D01*
X2730D01*
X2730Y9337D01*
X2708Y9337D01*
Y9326D01*
X2697Y9326D01*
X2697Y9315D01*
X2685D01*
Y9303D01*
X2663D01*
Y9292D01*
X2640D01*
X2640Y9281D01*
X2618Y9281D01*
X2618Y9270D01*
X2596Y9270D01*
X2596Y9258D01*
X2562D01*
X2562Y9247D01*
X2528Y9247D01*
Y9236D01*
X2438Y9236D01*
Y9225D01*
X2393Y9225D01*
X2393Y9236D01*
X2315Y9236D01*
Y9247D01*
X2270Y9247D01*
X2270Y9258D01*
X2236D01*
X2236Y9270D01*
X2214Y9270D01*
X2214Y9281D01*
X2191Y9281D01*
Y9292D01*
X2169D01*
Y9303D01*
X2157Y9303D01*
Y9315D01*
X2135Y9315D01*
X2135Y9326D01*
X2124D01*
X2124Y9337D01*
X2112Y9337D01*
Y9348D01*
X2101Y9348D01*
Y9359D01*
X2079Y9360D01*
X2079Y9371D01*
X2067Y9371D01*
Y9393D01*
X2056Y9393D01*
Y9404D01*
X2045Y9404D01*
X2045Y9416D01*
X2034D01*
X2034Y9427D01*
X2022Y9427D01*
X2022Y9449D01*
X2011Y9449D01*
X2011Y9461D01*
X2000D01*
Y9483D01*
X1989Y9483D01*
X1989Y9506D01*
X1977D01*
X1977Y9539D01*
X1966D01*
Y9551D01*
X494D01*
X494Y4584D01*
X517Y4584D01*
X517Y4573D01*
X539Y4573D01*
Y4562D01*
X551Y4562D01*
X550Y4551D01*
X573D01*
Y4539D01*
X584D01*
X584Y4528D01*
X595Y4528D01*
X595Y4517D01*
X618Y4517D01*
Y4506D01*
X629D01*
Y4494D01*
X640Y4494D01*
X641Y4483D01*
X652D01*
X652Y4472D01*
X663Y4472D01*
X663Y4461D01*
X674Y4461D01*
Y4449D01*
X685D01*
Y4427D01*
X697D01*
X697Y4416D01*
X708Y4416D01*
X708Y4405D01*
X719Y4405D01*
X719Y4382D01*
X730D01*
Y4360D01*
X742D01*
Y4337D01*
X753D01*
X753Y4315D01*
X764D01*
Y4292D01*
X775Y4292D01*
Y4258D01*
X786Y4258D01*
Y4202D01*
X798D01*
Y4090D01*
X786D01*
Y4034D01*
X775Y4034D01*
Y3989D01*
X764Y3989D01*
Y3966D01*
X753Y3966D01*
X753Y3944D01*
X742D01*
Y3921D01*
X730D01*
Y3899D01*
X719D01*
Y3888D01*
X708D01*
Y3876D01*
X697Y3876D01*
Y3865D01*
X685Y3865D01*
Y3843D01*
X674D01*
Y3831D01*
X652D01*
Y3820D01*
X640Y3820D01*
Y3809D01*
X629Y3809D01*
Y3798D01*
X618D01*
Y3787D01*
X595D01*
Y3775D01*
X573D01*
Y3764D01*
X550D01*
X551Y3753D01*
X528Y3753D01*
Y3742D01*
X506Y3742D01*
X506Y3730D01*
X472D01*
X472Y3719D01*
X427Y3719D01*
Y3708D01*
X382Y3708D01*
Y3697D01*
X258D01*
Y3708D01*
X202Y3708D01*
Y3719D01*
X169Y3719D01*
X169Y3730D01*
X135D01*
Y3742D01*
X112D01*
X112Y3753D01*
X90Y3753D01*
X90Y3764D01*
X79Y3764D01*
Y3775D01*
X67Y3775D01*
Y3787D01*
X45D01*
X45Y3798D01*
X34D01*
X34Y3809D01*
X22Y3809D01*
Y3820D01*
X11Y3820D01*
X11Y3831D01*
X-0Y3831D01*
X0Y3843D01*
X-11Y3843D01*
X-11Y3854D01*
X-22Y3854D01*
Y3865D01*
X-34Y3865D01*
Y3888D01*
X-45Y3888D01*
Y3899D01*
X-56Y3899D01*
X-56Y3921D01*
X-67Y3921D01*
X-67Y3944D01*
X-79Y3944D01*
Y3966D01*
X-90Y3966D01*
Y3989D01*
X-101D01*
X-101Y4022D01*
X-112Y4022D01*
Y4067D01*
X-124D01*
X-124Y4146D01*
X-135Y4146D01*
Y4180D01*
X-124D01*
Y4281D01*
X-112Y4281D01*
X-112Y4326D01*
X-101Y4326D01*
X-101Y4360D01*
X-90Y4360D01*
Y4382D01*
X-79Y4382D01*
Y4405D01*
X-67Y4405D01*
X-67Y4416D01*
X-56Y4416D01*
X-56Y4438D01*
X-45D01*
Y4449D01*
X-34D01*
Y4461D01*
X-22Y4461D01*
Y4472D01*
X-11D01*
X-11Y4483D01*
X-0D01*
Y4494D01*
X11D01*
X11Y4506D01*
X22Y4506D01*
Y4517D01*
X34Y4517D01*
Y4528D01*
X56D01*
X56Y4539D01*
X67Y4539D01*
Y4551D01*
X90D01*
Y4562D01*
X101Y4562D01*
Y4573D01*
X124Y4573D01*
Y4584D01*
X157D01*
X157Y4595D01*
X180D01*
Y9551D01*
X-1202Y9550D01*
Y9517D01*
X-1213Y9517D01*
Y9494D01*
X-1225D01*
Y9472D01*
X-1236D01*
Y9461D01*
X-1247D01*
Y9438D01*
X-1258Y9438D01*
X-1258Y9427D01*
X-1270Y9427D01*
X-1270Y9404D01*
X-1281D01*
X-1281Y9393D01*
X-1292Y9393D01*
Y9382D01*
X-1303D01*
Y9371D01*
X-1315Y9371D01*
X-1315Y9360D01*
X-1326D01*
Y9348D01*
X-1337D01*
X-1337Y9337D01*
X-1348Y9337D01*
Y9326D01*
X-1371D01*
X-1371Y9315D01*
X-1382Y9315D01*
X-1382Y9303D01*
X-1405D01*
Y9292D01*
X-1427D01*
X-1427Y9281D01*
X-1449Y9281D01*
Y9270D01*
X-1472Y9270D01*
X-1472Y9258D01*
X-1506D01*
X-1506Y9247D01*
X-1539Y9247D01*
Y9236D01*
X-1618Y9236D01*
X-1618Y9225D01*
X-1674Y9225D01*
X-1674Y9236D01*
X-1753Y9236D01*
Y9247D01*
X-1798Y9247D01*
Y9258D01*
X-1832Y9258D01*
X-1831Y9270D01*
X-1854D01*
Y9281D01*
X-1876Y9281D01*
Y9292D01*
X-1899D01*
Y9303D01*
X-1910D01*
Y9315D01*
X-1933D01*
X-1933Y9326D01*
X-1944Y9326D01*
Y9337D01*
X-1955Y9337D01*
Y9348D01*
X-1966D01*
Y9360D01*
X-1989D01*
X-1989Y9371D01*
X-2000Y9371D01*
Y9393D01*
X-2011Y9393D01*
Y9404D01*
X-2022D01*
Y9416D01*
X-2034D01*
X-2034Y9427D01*
X-2045Y9427D01*
X-2045Y9449D01*
X-2056Y9449D01*
X-2056Y9461D01*
X-2067D01*
Y9483D01*
X-2079D01*
Y9506D01*
X-2090D01*
X-2090Y9539D01*
X-2101Y9539D01*
X-2101Y9551D01*
X-3449D01*
Y4022D01*
X-5910Y4022D01*
Y4011D01*
X-5921Y4011D01*
Y3989D01*
X-5933D01*
X-5933Y3966D01*
X-5944Y3966D01*
Y3955D01*
X-5955Y3955D01*
Y3933D01*
X-5966D01*
Y3921D01*
X-5977Y3921D01*
Y3899D01*
X-5989D01*
X-5989Y3888D01*
X-6000D01*
Y3876D01*
X-6011Y3876D01*
Y3865D01*
X-6022D01*
X-6022Y3854D01*
X-6034D01*
Y3843D01*
X-6045D01*
X-6045Y3831D01*
X-6056D01*
Y3820D01*
X-6067Y3820D01*
Y3809D01*
X-6090Y3809D01*
Y3798D01*
X-6101D01*
X-6101Y3787D01*
X-6124D01*
X-6124Y3775D01*
X-6146Y3775D01*
X-6146Y3764D01*
X-6168Y3764D01*
Y3753D01*
X-6191D01*
X-6191Y3742D01*
X-6225D01*
X-6225Y3730D01*
X-6270D01*
X-6270Y3719D01*
X-6449D01*
X-6449Y3730D01*
X-6494D01*
X-6494Y3742D01*
X-6528D01*
Y3753D01*
X-6551D01*
X-6551Y3764D01*
X-6573D01*
Y3775D01*
X-6595D01*
Y3787D01*
X-6607D01*
Y3798D01*
X-6629Y3798D01*
X-6629Y3809D01*
X-6640Y3809D01*
X-6640Y3820D01*
X-6652D01*
Y3831D01*
X-6663D01*
Y3843D01*
X-6674Y3843D01*
Y3854D01*
X-6685D01*
X-6685Y3865D01*
X-6697Y3865D01*
X-6697Y3888D01*
X-6708D01*
Y3899D01*
X-6719D01*
Y3910D01*
X-6730Y3910D01*
Y3933D01*
X-6742Y3933D01*
X-6742Y3955D01*
X-6753Y3955D01*
X-6753Y3977D01*
X-6764D01*
Y4011D01*
X-6775D01*
Y4045D01*
X-6786D01*
Y4090D01*
X-6798D01*
X-6798Y4270D01*
X-6786Y4270D01*
Y4315D01*
X-6775Y4315D01*
Y4348D01*
X-6764D01*
X-6764Y4382D01*
X-6753Y4382D01*
X-6753Y4405D01*
X-6742Y4405D01*
X-6742Y4427D01*
X-6730Y4427D01*
X-6730Y4438D01*
X-6719Y4438D01*
Y4450D01*
X-6708D01*
Y4472D01*
X-6697Y4472D01*
X-6697Y4483D01*
X-6685D01*
X-6685Y4494D01*
X-6674D01*
Y4506D01*
X-6663Y4506D01*
Y4517D01*
X-6640D01*
X-6640Y4528D01*
X-6629Y4528D01*
Y4539D01*
X-6618D01*
X-6618Y4551D01*
X-6595D01*
X-6595Y4562D01*
X-6584D01*
Y4573D01*
X-6562Y4573D01*
X-6562Y4584D01*
X-6539Y4584D01*
Y4595D01*
X-6517D01*
Y4607D01*
X-6483D01*
X-6483Y4618D01*
X-6449Y4618D01*
X-6449Y4629D01*
X-6404Y4629D01*
Y4640D01*
X-6258Y4640D01*
X-6258Y4629D01*
X-6202Y4629D01*
X-6202Y4618D01*
X-6168D01*
Y4607D01*
X-6146D01*
Y4595D01*
X-6112D01*
Y4584D01*
X-6101Y4584D01*
X-6101Y4573D01*
X-6079Y4573D01*
Y4562D01*
X-6067Y4562D01*
Y4551D01*
X-6045Y4551D01*
Y4539D01*
X-6034D01*
X-6034Y4528D01*
X-6022Y4528D01*
X-6022Y4517D01*
X-6011D01*
Y4506D01*
X-6000Y4506D01*
Y4494D01*
X-5989D01*
X-5989Y4472D01*
X-5977Y4472D01*
X-5977Y4461D01*
X-5966Y4461D01*
Y4438D01*
X-5955Y4438D01*
X-5955Y4427D01*
X-5944Y4427D01*
Y4405D01*
X-5933D01*
X-5933Y4382D01*
X-5921D01*
X-5921Y4360D01*
X-5910Y4360D01*
Y4337D01*
X-3764D01*
X-3764Y6786D01*
X-6067Y6786D01*
Y6775D01*
X-6079D01*
X-6079Y6753D01*
X-6090Y6753D01*
X-6090Y6742D01*
X-6101D01*
X-6101Y6730D01*
X-6112D01*
Y6719D01*
X-6124Y6719D01*
X-6124Y6708D01*
X-6135Y6708D01*
X-6135Y6697D01*
X-6146Y6697D01*
X-6146Y6685D01*
X-6157Y6685D01*
Y6674D01*
X-6180Y6674D01*
X-6180Y6663D01*
X-6191D01*
Y6652D01*
X-6213Y6652D01*
Y6640D01*
X-6247Y6640D01*
X-6247Y6629D01*
X-6303D01*
Y6618D01*
X-6382D01*
X-6382Y6629D01*
X-6438D01*
X-6438Y6640D01*
X-6472Y6640D01*
Y6652D01*
X-6494D01*
X-6494Y6663D01*
X-6517D01*
Y6674D01*
X-6528D01*
X-6528Y6685D01*
X-6551D01*
X-6551Y6697D01*
X-6562Y6697D01*
Y6708D01*
X-6573Y6708D01*
Y6719D01*
X-6584D01*
Y6742D01*
X-6595D01*
X-6595Y6753D01*
X-6607D01*
Y6775D01*
X-6618D01*
X-6618Y6798D01*
X-6629D01*
X-6629Y6820D01*
X-6640D01*
Y6854D01*
X-6652D01*
X-6652Y6910D01*
X-6663Y6910D01*
Y6989D01*
X-6652D01*
Y7045D01*
X-6640D01*
Y7079D01*
X-6629Y7079D01*
X-6629Y7101D01*
X-6618Y7101D01*
Y7112D01*
X-6607Y7112D01*
X-6607Y7135D01*
X-6595D01*
Y7146D01*
X-6584D01*
Y7157D01*
X-6573D01*
Y7169D01*
X-6562D01*
X-6562Y7180D01*
X-6551D01*
Y7191D01*
X-6528D01*
Y7202D01*
X-6517D01*
Y7214D01*
X-6494Y7214D01*
X-6494Y7225D01*
X-6472D01*
X-6472Y7236D01*
X-6438D01*
X-6438Y7247D01*
X-6393Y7247D01*
X-6393Y7258D01*
X-6292D01*
X-6292Y7247D01*
X-6247Y7247D01*
X-6247Y7236D01*
X-6213Y7236D01*
X-6213Y7225D01*
X-6191D01*
Y7214D01*
X-6168D01*
Y7202D01*
X-6157Y7202D01*
Y7191D01*
X-6146Y7191D01*
Y7180D01*
X-6124Y7180D01*
X-6124Y7169D01*
X-6112D01*
Y7146D01*
X-6101D01*
Y7135D01*
X-6090D01*
Y7124D01*
X-6079D01*
Y7112D01*
X-6067Y7112D01*
Y7090D01*
X-3764Y7090D01*
X-3764Y9551D01*
X-5910Y9550D01*
Y9539D01*
X-5921Y9539D01*
Y9517D01*
X-5933D01*
X-5933Y9494D01*
X-5944Y9494D01*
Y9472D01*
X-5955D01*
X-5955Y9461D01*
X-5966D01*
Y9449D01*
X-5977Y9449D01*
Y9427D01*
X-5989D01*
X-5989Y9416D01*
X-6000D01*
Y9404D01*
X-6011Y9404D01*
Y9393D01*
X-6022D01*
X-6022Y9382D01*
X-6034D01*
Y9371D01*
X-6045D01*
X-6045Y9360D01*
X-6056D01*
Y9348D01*
X-6067Y9348D01*
Y9337D01*
X-6079D01*
X-6079Y9326D01*
X-6101D01*
X-6101Y9315D01*
X-6112D01*
Y9303D01*
X-6135D01*
X-6135Y9292D01*
X-6157D01*
Y9281D01*
X-6191Y9281D01*
X-6191Y9270D01*
X-6225D01*
X-6225Y9258D01*
X-6258D01*
X-6258Y9247D01*
X-6326Y9247D01*
Y9236D01*
X-6393Y9236D01*
Y9247D01*
X-6461D01*
Y9258D01*
X-6506D01*
X-6506Y9270D01*
X-6539Y9270D01*
Y9281D01*
X-6562D01*
X-6562Y9292D01*
X-6584D01*
Y9303D01*
X-6595D01*
Y9315D01*
X-6618Y9315D01*
Y9326D01*
X-6629D01*
Y9337D01*
X-6640Y9337D01*
X-6640Y9348D01*
X-6652Y9348D01*
X-6652Y9360D01*
X-6663D01*
Y9371D01*
X-6674Y9371D01*
Y9382D01*
X-6685D01*
X-6685Y9393D01*
X-6697Y9393D01*
X-6697Y9404D01*
X-6708D01*
Y9427D01*
X-6719D01*
Y9438D01*
X-6730D01*
Y9461D01*
X-6742Y9461D01*
X-6742Y9483D01*
X-6753Y9483D01*
X-6753Y9506D01*
X-6764D01*
Y9528D01*
X-6775D01*
Y9573D01*
X-6786D01*
Y9618D01*
X-6798D01*
X-6798Y9798D01*
X-6786Y9798D01*
Y9843D01*
X-6775Y9843D01*
Y9888D01*
X-6764D01*
X-6764Y9910D01*
X-6753Y9910D01*
X-6753Y9933D01*
X-6742Y9933D01*
X-6742Y9944D01*
X-6730Y9944D01*
Y9966D01*
X-6719Y9966D01*
Y9978D01*
X-6708D01*
X-6708Y9989D01*
X-6697Y9989D01*
X-6697Y10000D01*
X-6685Y10000D01*
Y10011D01*
X-6674D01*
X-6674Y10023D01*
X-6663Y10023D01*
Y10034D01*
X-6652D01*
Y10045D01*
X-6640Y10045D01*
X-6640Y10056D01*
X-6629Y10056D01*
Y10067D01*
X-6607D01*
Y10079D01*
X-6595Y10079D01*
X-6595Y10090D01*
X-6573D01*
Y10101D01*
X-6551Y10101D01*
Y10112D01*
X-6528D01*
Y10124D01*
X-6506D01*
Y10135D01*
X-6483D01*
X-6483Y10146D01*
X-6449Y10146D01*
Y10157D01*
X-6393Y10157D01*
Y10169D01*
X-6281D01*
Y10157D01*
X-6213D01*
Y10146D01*
X-6180Y10146D01*
X-6180Y10135D01*
X-6146Y10135D01*
Y10124D01*
X-6124Y10124D01*
Y10112D01*
X-6101Y10112D01*
X-6101Y10101D01*
X-6079Y10101D01*
Y10090D01*
X-6067Y10090D01*
Y10079D01*
X-6056Y10079D01*
Y10067D01*
X-6045D01*
X-6045Y10056D01*
X-6034Y10056D01*
X-6034Y10045D01*
X-6022Y10045D01*
X-6022Y10034D01*
X-6011Y10034D01*
X-6011Y10023D01*
X-6000D01*
Y10011D01*
X-5989Y10011D01*
X-5989Y10000D01*
X-5977Y10000D01*
X-5977Y9989D01*
X-5966Y9989D01*
Y9966D01*
X-5955Y9966D01*
X-5955Y9955D01*
X-5944Y9955D01*
Y9933D01*
X-5933D01*
X-5933Y9910D01*
X-5921D01*
X-5921Y9876D01*
X-5910Y9876D01*
Y9854D01*
X-2326Y9854D01*
Y9865D01*
X-2101D01*
Y9876D01*
X-2090D01*
X-2090Y9910D01*
X-2079Y9910D01*
X-2079Y9933D01*
X-2067D01*
Y9944D01*
X-2056Y9944D01*
Y9966D01*
X-2045Y9966D01*
X-2045Y9978D01*
X-2034Y9978D01*
Y10000D01*
X-2022Y10000D01*
X-2022Y10011D01*
X-2011D01*
Y10023D01*
X-2000Y10023D01*
Y10034D01*
X-1989D01*
X-1989Y10045D01*
X-1977Y10045D01*
X-1977Y10056D01*
X-1966Y10056D01*
X-1966Y10067D01*
X-1955D01*
Y10079D01*
X-1944Y10079D01*
Y10090D01*
X-1921Y10090D01*
X-1921Y10101D01*
X-1910Y10101D01*
X-1910Y10112D01*
X-1888D01*
Y10124D01*
X-1876D01*
Y10135D01*
X-1854D01*
Y10146D01*
X-1832D01*
X-1831Y10157D01*
X-1798Y10157D01*
Y10169D01*
X-1753D01*
Y10180D01*
X-1697Y10180D01*
Y10191D01*
X-1607D01*
Y10180D01*
X-1539D01*
Y10169D01*
X-1506D01*
Y10157D01*
X-1472D01*
X-1472Y10146D01*
X-1449D01*
Y10135D01*
X-1427Y10135D01*
Y10124D01*
X-1405D01*
X-1405Y10112D01*
X-1382D01*
Y10101D01*
X-1371D01*
Y10090D01*
X-1348D01*
Y10079D01*
X-1337Y10079D01*
X-1337Y10067D01*
X-1326D01*
X-1326Y10056D01*
X-1315D01*
X-1315Y10045D01*
X-1303Y10045D01*
Y10034D01*
X-1292D01*
Y10023D01*
X-1281D01*
Y10011D01*
X-1270D01*
X-1270Y9989D01*
X-1258D01*
X-1258Y9978D01*
X-1247D01*
Y9955D01*
X-1236D01*
Y9944D01*
X-1225Y9944D01*
X-1225Y9921D01*
X-1213D01*
Y9899D01*
X-1202D01*
Y9865D01*
X-1034D01*
X-1034Y9854D01*
X1955Y9854D01*
Y9865D01*
X1966D01*
Y9876D01*
X1977D01*
X1978Y9910D01*
X1989Y9910D01*
X1989Y9933D01*
X2000D01*
Y9944D01*
X2011D01*
Y9966D01*
X2022D01*
X2022Y9978D01*
X2034D01*
Y10000D01*
X2045Y10000D01*
Y10011D01*
X2056Y10011D01*
Y10023D01*
X2067D01*
Y10034D01*
X2079D01*
X2079Y10045D01*
X2090D01*
X2090Y10056D01*
X2101D01*
Y10067D01*
X2112Y10067D01*
Y10079D01*
X2124D01*
X2124Y10090D01*
X2146Y10090D01*
Y10101D01*
X2157D01*
Y10112D01*
X2180D01*
X2180Y10124D01*
X2191D01*
X2191Y10135D01*
X2214Y10135D01*
Y10146D01*
X2236Y10146D01*
X2236Y10157D01*
X2270Y10157D01*
X2270Y10169D01*
X2315D01*
X2315Y10180D01*
X2371D01*
X2371Y10191D01*
X2461Y10191D01*
X2461Y10180D01*
D02*
G37*
%LPC*%
G36*
X-6315Y9854D02*
X-6371D01*
Y9843D01*
X-6393D01*
Y9832D01*
X-6416D01*
Y9820D01*
X-6427D01*
Y9809D01*
X-6438D01*
Y9798D01*
X-6449D01*
Y9787D01*
X-6461D01*
Y9764D01*
X-6472D01*
Y9742D01*
X-6483D01*
Y9730D01*
Y9719D01*
X-6494D01*
Y9697D01*
X-6483D01*
Y9652D01*
X-6472D01*
Y9629D01*
X-6461D01*
Y9618D01*
X-6449D01*
Y9595D01*
X-6427D01*
Y9584D01*
X-6416D01*
Y9573D01*
X-6393D01*
Y9562D01*
X-6371D01*
Y9551D01*
X-6292D01*
Y9562D01*
X-6258D01*
Y9573D01*
X-6247D01*
Y9584D01*
X-6236D01*
Y9595D01*
X-6225D01*
Y9607D01*
X-6213D01*
Y9629D01*
X-6202D01*
Y9663D01*
X-6191D01*
Y9730D01*
X-6202D01*
Y9764D01*
X-6213D01*
Y9787D01*
X-6225D01*
Y9798D01*
X-6236D01*
Y9809D01*
X-6247D01*
Y9820D01*
X-6258D01*
Y9832D01*
X-6281D01*
Y9843D01*
X-6315D01*
Y9854D01*
D02*
G37*
G36*
X-1595Y9865D02*
X-1708D01*
Y9854D01*
X-1730D01*
Y9843D01*
X-1742D01*
Y9832D01*
X-1764D01*
Y9820D01*
X-1775D01*
Y9798D01*
X-1787D01*
Y9787D01*
X-1798D01*
Y9753D01*
X-1809D01*
Y9663D01*
X-1798D01*
Y9629D01*
X-1787D01*
Y9618D01*
X-1775D01*
Y9595D01*
X-1764D01*
Y9584D01*
X-1742D01*
Y9573D01*
X-1730D01*
Y9562D01*
X-1708D01*
Y9551D01*
X-1595D01*
Y9562D01*
X-1573D01*
Y9573D01*
X-1551D01*
Y9584D01*
X-1539D01*
Y9595D01*
X-1528D01*
Y9607D01*
X-1517D01*
Y9629D01*
X-1506D01*
Y9652D01*
X-1494D01*
Y9697D01*
X-1483D01*
Y9719D01*
X-1494D01*
Y9775D01*
X-1506D01*
Y9787D01*
X-1517D01*
Y9809D01*
X-1528D01*
Y9820D01*
X-1539D01*
Y9832D01*
X-1551D01*
Y9843D01*
X-1573D01*
Y9854D01*
X-1595D01*
Y9865D01*
D02*
G37*
G36*
X2472D02*
X2360D01*
Y9854D01*
X2337D01*
Y9843D01*
X2326D01*
Y9832D01*
X2303D01*
Y9820D01*
X2292D01*
Y9798D01*
X2281D01*
Y9787D01*
X2270D01*
Y9753D01*
X2258D01*
Y9663D01*
X2270D01*
Y9629D01*
X2281D01*
Y9618D01*
X2292D01*
Y9595D01*
X2303D01*
Y9584D01*
X2326D01*
Y9573D01*
X2337D01*
Y9562D01*
X2360D01*
Y9551D01*
X2472D01*
Y9562D01*
X2494D01*
Y9573D01*
X2517D01*
Y9584D01*
X2528D01*
Y9595D01*
X2539D01*
Y9607D01*
X2551D01*
Y9629D01*
X2562D01*
Y9652D01*
X2573D01*
Y9764D01*
X2562D01*
Y9787D01*
X2551D01*
Y9809D01*
X2539D01*
Y9820D01*
X2528D01*
Y9832D01*
X2517D01*
Y9843D01*
X2494D01*
Y9854D01*
X2472D01*
Y9865D01*
D02*
G37*
G36*
X-6382Y4326D02*
Y4315D01*
X-6404D01*
Y4303D01*
X-6416D01*
Y4292D01*
X-6438D01*
Y4281D01*
X-6449D01*
Y4270D01*
X-6461D01*
Y4247D01*
X-6472D01*
Y4225D01*
X-6483D01*
Y4180D01*
X-6494D01*
Y4169D01*
X-6483D01*
Y4135D01*
X-6472D01*
Y4112D01*
X-6461D01*
Y4090D01*
X-6449D01*
Y4079D01*
X-6438D01*
Y4067D01*
X-6427D01*
Y4056D01*
X-6404D01*
Y4045D01*
X-6393D01*
Y4034D01*
X-6360D01*
Y4022D01*
X-6326D01*
Y4034D01*
X-6292D01*
Y4045D01*
X-6270D01*
Y4056D01*
X-6247D01*
Y4067D01*
X-6236D01*
Y4079D01*
X-6225D01*
Y4101D01*
X-6213D01*
Y4124D01*
X-6202D01*
Y4146D01*
X-6191D01*
Y4191D01*
X-6202D01*
Y4225D01*
X-6213D01*
Y4247D01*
X-6225D01*
Y4258D01*
X-6236D01*
Y4281D01*
X-6247D01*
Y4292D01*
X-6270D01*
Y4303D01*
X-6281D01*
Y4315D01*
X-6303D01*
Y4326D01*
X-6382D01*
D02*
G37*
G36*
X359Y4315D02*
X315D01*
Y4303D01*
X281D01*
Y4292D01*
X270D01*
Y4281D01*
X247D01*
Y4270D01*
X236D01*
Y4258D01*
X225D01*
Y4247D01*
X213D01*
Y4236D01*
X202D01*
Y4214D01*
X191D01*
Y4180D01*
X180D01*
Y4112D01*
X191D01*
Y4079D01*
X202D01*
Y4067D01*
X213D01*
Y4056D01*
X225D01*
Y4045D01*
X236D01*
Y4034D01*
X258D01*
Y4022D01*
X292D01*
Y4011D01*
X371D01*
Y4022D01*
X393D01*
Y4034D01*
X404D01*
Y4045D01*
X427D01*
Y4056D01*
X438D01*
Y4067D01*
X449D01*
Y4090D01*
X461D01*
Y4112D01*
X472D01*
Y4135D01*
X483D01*
Y4146D01*
Y4157D01*
Y4202D01*
X472D01*
Y4225D01*
X461D01*
Y4247D01*
X449D01*
Y4258D01*
X438D01*
Y4270D01*
X427D01*
Y4281D01*
X416D01*
Y4292D01*
X393D01*
Y4303D01*
X359D01*
Y4315D01*
D02*
G37*
G36*
X6528Y4214D02*
Y4202D01*
X6506D01*
Y4191D01*
X6483D01*
Y4180D01*
X6472D01*
Y4169D01*
X6461D01*
Y4146D01*
X6449D01*
Y4124D01*
X6438D01*
Y4034D01*
X6449D01*
Y4000D01*
X6461D01*
Y3989D01*
X6472D01*
Y3977D01*
X6483D01*
Y3966D01*
X6494D01*
Y3955D01*
X6517D01*
Y3944D01*
X6618D01*
Y3955D01*
X6640D01*
Y3966D01*
X6663D01*
Y3977D01*
X6674D01*
Y3989D01*
X6685D01*
Y4011D01*
X6697D01*
Y4034D01*
X6708D01*
Y4124D01*
X6697D01*
Y4146D01*
X6685D01*
Y4157D01*
X6674D01*
Y4169D01*
X6663D01*
Y4180D01*
X6652D01*
Y4191D01*
X6640D01*
Y4202D01*
X6618D01*
Y4214D01*
X6528D01*
D02*
G37*
G36*
X5122Y-6470D02*
X5090D01*
X5031Y-6475D01*
X4971Y-6480D01*
X4918Y-6497D01*
X4864Y-6518D01*
X4772Y-6567D01*
X4691Y-6626D01*
X4626Y-6685D01*
X4578Y-6734D01*
X4562Y-6755D01*
X4551Y-6766D01*
X4540Y-6777D01*
Y-6782D01*
X4502Y-6847D01*
X4465Y-6928D01*
X4438Y-7014D01*
X4411Y-7111D01*
X4389Y-7213D01*
X4373Y-7316D01*
X4346Y-7531D01*
X4335Y-7634D01*
X4330Y-7725D01*
X4325Y-7812D01*
Y-7892D01*
X4319Y-7952D01*
Y-8000D01*
Y-8033D01*
Y-8038D01*
Y-8043D01*
Y-8211D01*
X4330Y-8367D01*
X4341Y-8507D01*
X4352Y-8636D01*
X4368Y-8755D01*
X4389Y-8857D01*
X4411Y-8944D01*
X4427Y-9024D01*
X4449Y-9094D01*
X4470Y-9148D01*
X4486Y-9197D01*
X4508Y-9235D01*
X4519Y-9262D01*
X4530Y-9283D01*
X4540Y-9294D01*
Y-9299D01*
X4583Y-9353D01*
X4626Y-9402D01*
X4675Y-9445D01*
X4718Y-9477D01*
X4767Y-9510D01*
X4810Y-9537D01*
X4896Y-9574D01*
X4971Y-9596D01*
X5031Y-9606D01*
X5052Y-9612D01*
X5085D01*
X5144Y-9606D01*
X5203Y-9601D01*
X5257Y-9585D01*
X5311Y-9563D01*
X5403Y-9515D01*
X5483Y-9456D01*
X5548Y-9402D01*
X5597Y-9353D01*
X5613Y-9332D01*
X5624Y-9315D01*
X5629Y-9310D01*
X5634Y-9305D01*
X5672Y-9240D01*
X5705Y-9159D01*
X5737Y-9073D01*
X5758Y-8976D01*
X5780Y-8873D01*
X5796Y-8766D01*
X5823Y-8556D01*
X5834Y-8453D01*
X5839Y-8361D01*
X5845Y-8275D01*
Y-8194D01*
X5850Y-8135D01*
Y-8087D01*
Y-8054D01*
Y-8043D01*
X5845Y-7871D01*
X5839Y-7715D01*
X5829Y-7575D01*
X5812Y-7445D01*
X5796Y-7327D01*
X5774Y-7219D01*
X5753Y-7127D01*
X5731Y-7041D01*
X5710Y-6971D01*
X5688Y-6911D01*
X5667Y-6858D01*
X5651Y-6820D01*
X5634Y-6788D01*
X5624Y-6766D01*
X5613Y-6755D01*
Y-6750D01*
X5575Y-6701D01*
X5532Y-6658D01*
X5494Y-6621D01*
X5451Y-6588D01*
X5359Y-6540D01*
X5279Y-6502D01*
X5203Y-6486D01*
X5144Y-6475D01*
X5122Y-6470D01*
D02*
G37*
G36*
X-5307D02*
X-5340D01*
X-5399Y-6475D01*
X-5458Y-6480D01*
X-5512Y-6497D01*
X-5566Y-6518D01*
X-5658Y-6567D01*
X-5739Y-6626D01*
X-5803Y-6685D01*
X-5852Y-6734D01*
X-5868Y-6755D01*
X-5879Y-6766D01*
X-5889Y-6777D01*
Y-6782D01*
X-5927Y-6847D01*
X-5965Y-6928D01*
X-5992Y-7014D01*
X-6019Y-7111D01*
X-6040Y-7213D01*
X-6056Y-7316D01*
X-6083Y-7531D01*
X-6094Y-7634D01*
X-6100Y-7725D01*
X-6105Y-7812D01*
Y-7892D01*
X-6110Y-7952D01*
Y-8000D01*
Y-8033D01*
Y-8038D01*
Y-8043D01*
Y-8211D01*
X-6100Y-8367D01*
X-6089Y-8507D01*
X-6078Y-8636D01*
X-6062Y-8755D01*
X-6040Y-8857D01*
X-6019Y-8944D01*
X-6003Y-9024D01*
X-5981Y-9094D01*
X-5959Y-9148D01*
X-5943Y-9197D01*
X-5922Y-9235D01*
X-5911Y-9262D01*
X-5900Y-9283D01*
X-5889Y-9294D01*
Y-9299D01*
X-5846Y-9353D01*
X-5803Y-9402D01*
X-5755Y-9445D01*
X-5711Y-9477D01*
X-5663Y-9510D01*
X-5620Y-9537D01*
X-5534Y-9574D01*
X-5458Y-9596D01*
X-5399Y-9606D01*
X-5377Y-9612D01*
X-5345D01*
X-5286Y-9606D01*
X-5226Y-9601D01*
X-5173Y-9585D01*
X-5119Y-9563D01*
X-5027Y-9515D01*
X-4946Y-9456D01*
X-4882Y-9402D01*
X-4833Y-9353D01*
X-4817Y-9332D01*
X-4806Y-9315D01*
X-4801Y-9310D01*
X-4795Y-9305D01*
X-4758Y-9240D01*
X-4725Y-9159D01*
X-4693Y-9073D01*
X-4671Y-8976D01*
X-4650Y-8873D01*
X-4634Y-8766D01*
X-4607Y-8556D01*
X-4596Y-8453D01*
X-4590Y-8361D01*
X-4585Y-8275D01*
Y-8194D01*
X-4580Y-8135D01*
Y-8087D01*
Y-8054D01*
Y-8043D01*
X-4585Y-7871D01*
X-4590Y-7715D01*
X-4601Y-7575D01*
X-4617Y-7445D01*
X-4634Y-7327D01*
X-4655Y-7219D01*
X-4677Y-7127D01*
X-4698Y-7041D01*
X-4720Y-6971D01*
X-4741Y-6911D01*
X-4763Y-6858D01*
X-4779Y-6820D01*
X-4795Y-6788D01*
X-4806Y-6766D01*
X-4817Y-6755D01*
Y-6750D01*
X-4854Y-6701D01*
X-4898Y-6658D01*
X-4935Y-6621D01*
X-4978Y-6588D01*
X-5070Y-6540D01*
X-5151Y-6502D01*
X-5226Y-6486D01*
X-5286Y-6475D01*
X-5307Y-6470D01*
D02*
G37*
G36*
X679Y896D02*
X-399D01*
X-458Y892D01*
X-565Y874D01*
X-655Y851D01*
X-731Y824D01*
X-785Y793D01*
X-826Y770D01*
X-848Y752D01*
X-857Y748D01*
X-911Y690D01*
X-951Y631D01*
X-983Y568D01*
X-1001Y510D01*
X-1014Y456D01*
X-1019Y416D01*
X-1023Y384D01*
Y380D01*
Y375D01*
X-1019Y321D01*
X-1010Y268D01*
X-996Y218D01*
X-978Y173D01*
X-960Y137D01*
X-947Y110D01*
X-938Y92D01*
X-933Y88D01*
X-898Y43D01*
X-857Y2D01*
X-817Y-29D01*
X-776Y-56D01*
X-740Y-74D01*
X-709Y-87D01*
X-691Y-96D01*
X-682Y-101D01*
X-615Y-119D01*
X-543Y-132D01*
X-466Y-146D01*
X-395Y-150D01*
X-327Y-155D01*
X-278Y-159D01*
X679D01*
Y896D01*
D02*
G37*
G36*
X-3479Y941D02*
X-3524D01*
X-3641Y932D01*
X-3744Y914D01*
X-3843Y892D01*
X-3928Y860D01*
X-3996Y829D01*
X-4027Y815D01*
X-4050Y806D01*
X-4067Y793D01*
X-4081Y788D01*
X-4090Y779D01*
X-4094D01*
X-4184Y712D01*
X-4265Y640D01*
X-4328Y564D01*
X-4382Y492D01*
X-4427Y425D01*
X-4458Y375D01*
X-4467Y353D01*
X-4476Y339D01*
X-4481Y330D01*
Y326D01*
X-4525Y214D01*
X-4557Y97D01*
X-4584Y-15D01*
X-4597Y-119D01*
X-4606Y-168D01*
Y-213D01*
X-4611Y-253D01*
X-4615Y-285D01*
Y-316D01*
Y-334D01*
Y-348D01*
Y-352D01*
X-4611Y-464D01*
X-4602Y-568D01*
X-4588Y-667D01*
X-4566Y-761D01*
X-4543Y-846D01*
X-4516Y-922D01*
X-4490Y-994D01*
X-4462Y-1057D01*
X-4431Y-1115D01*
X-4404Y-1165D01*
X-4377Y-1205D01*
X-4355Y-1241D01*
X-4332Y-1268D01*
X-4319Y-1286D01*
X-4310Y-1300D01*
X-4305Y-1304D01*
X-4247Y-1362D01*
X-4184Y-1412D01*
X-4117Y-1457D01*
X-4054Y-1497D01*
X-3987Y-1529D01*
X-3919Y-1555D01*
X-3856Y-1578D01*
X-3798Y-1596D01*
X-3740Y-1609D01*
X-3686Y-1618D01*
X-3641Y-1627D01*
X-3601Y-1632D01*
X-3565D01*
X-3542Y-1636D01*
X-3520D01*
X-3434Y-1632D01*
X-3349Y-1623D01*
X-3273Y-1605D01*
X-3201Y-1587D01*
X-3129Y-1560D01*
X-3066Y-1533D01*
X-3008Y-1502D01*
X-2954Y-1470D01*
X-2905Y-1443D01*
X-2860Y-1412D01*
X-2824Y-1385D01*
X-2792Y-1358D01*
X-2770Y-1340D01*
X-2752Y-1322D01*
X-2743Y-1313D01*
X-2738Y-1309D01*
X-2685Y-1241D01*
X-2635Y-1174D01*
X-2595Y-1102D01*
X-2559Y-1026D01*
X-2527Y-949D01*
X-2505Y-873D01*
X-2482Y-801D01*
X-2469Y-729D01*
X-2455Y-662D01*
X-2447Y-599D01*
X-2437Y-541D01*
X-2433Y-491D01*
X-2429Y-451D01*
Y-424D01*
Y-402D01*
Y-397D01*
X-2433Y-267D01*
X-2442Y-146D01*
X-2460Y-33D01*
X-2478Y65D01*
X-2505Y160D01*
X-2532Y245D01*
X-2559Y321D01*
X-2590Y389D01*
X-2622Y447D01*
X-2649Y496D01*
X-2675Y537D01*
X-2702Y573D01*
X-2720Y600D01*
X-2738Y618D01*
X-2747Y627D01*
X-2752Y631D01*
X-2815Y685D01*
X-2878Y734D01*
X-2945Y775D01*
X-3008Y811D01*
X-3075Y842D01*
X-3138Y865D01*
X-3201Y887D01*
X-3259Y900D01*
X-3313Y914D01*
X-3367Y923D01*
X-3412Y932D01*
X-3448Y936D01*
X-3479Y941D01*
D02*
G37*
%LPD*%
D10*
X13300Y-8500D02*
G03*
X13300Y-8500I-2500J0D01*
G01*
M02*
